<svg width="5000" height="5000" viewBox="0 0 5000 5000" fill="none" xmlns="http://www.w3.org/2000/svg">
<g clip-path="url(#clip0_46_529)">
<path d="M5000 0H0V5000H5000V0Z" fill="white"/>
<path d="M3818 4723.66C3315.34 3545.27 2321.57 2437.19 1094.67 2015.83C204 1709.94 -796.64 1736.59 -1669.76 2089.48C-1871.92 2171.18 -2102.86 2340.82 -2045.99 2551.32C-2022.8 2637.16 -1954.6 2702.57 -1886.69 2759.97C-1241.08 3305.69 -393.26 3456.31 334.41 3849.7C1443.24 4449.16 2200.75 5476.74 3257.85 6140.7C3359.62 6204.62 3469.93 6268.02 3590.1 6266.86C3782.33 6265.01 3938.39 6091.84 3986.3 5905.65C4074.65 5562.19 3953.83 5042.1 3818 4723.66Z" fill="#FDF2D6"/>
<path d="M3818 -276.34C3315.34 -1454.73 2321.57 -2562.81 1094.67 -2984.17C204 -3290.06 -796.64 -3263.41 -1669.76 -2910.52C-1871.92 -2828.82 -2102.86 -2659.18 -2045.99 -2448.68C-2022.8 -2362.84 -1954.6 -2297.43 -1886.69 -2240.03C-1241.08 -1694.31 -393.26 -1543.69 334.41 -1150.3C1443.24 -550.84 2200.75 476.74 3257.85 1140.7C3359.62 1204.62 3469.93 1268.02 3590.1 1266.86C3782.33 1265.01 3938.39 1091.84 3986.3 905.65C4074.65 562.19 3953.83 42.0999 3818 -276.34Z" fill="#FDF2D6"/>
<path d="M8818 4723.66C8315.34 3545.27 7321.57 2437.19 6094.67 2015.83C5204 1709.94 4203.36 1736.6 3330.24 2089.48C3128.08 2171.18 2897.14 2340.82 2954.01 2551.32C2977.2 2637.16 3045.4 2702.57 3113.31 2759.97C3758.92 3305.69 4606.74 3456.31 5334.41 3849.7C6443.24 4449.16 7200.75 5476.74 8257.85 6140.7C8359.62 6204.62 8469.93 6268.02 8590.1 6266.86C8782.33 6265.01 8938.39 6091.84 8986.3 5905.65C9074.65 5562.19 8953.83 5042.1 8818 4723.66Z" fill="#FDF2D6"/>
<path d="M2520.78 2919.95C2459.87 2820.19 2541.76 2762.81 2650.82 2822.73C2991.61 3009.98 2822.46 3643.31 2592.32 3626.76C2428.64 3615 2745.23 3287.59 2520.78 2919.95Z" fill="#FE674C"/>
<path d="M2961.44 -309.61C2955.67 -327.23 2947.73 -343.94 2936.65 -359.09C2909.32 -396.47 2866.62 -419.01 2825.03 -439.39C2708.98 -496.27 2589.59 -546.33 2467.68 -589.24C2381.16 -619.69 2273.07 -642.28 2207.47 -578.17C2133.72 -506.1 2169.6 -383.73 2203.91 -286.49C2228.3 -217.36 2249.36 -147.06 2267 -75.91C2275.87 -40.13 2277.66 8.63999 2243.3 21.99C2225.5 28.91 2205.62 22.06 2187.77 15.25C2043.31 -39.9 1898.86 -95.06 1754.4 -150.21C1692.56 -173.82 1620.55 -196.85 1563.16 -163.86C1488.32 -120.84 1488.4 -9.97001 1524.37 68.49C1546.78 117.37 1579.22 162.29 1591.87 214.55C1604.52 266.81 1589.72 331.88 1540.77 354.13C1503.34 371.14 1459.68 357.96 1421.3 343.2C1344.5 313.68 1269.95 278.34 1198.47 237.58C1128.37 197.61 1048.99 150.67 972.27 175.69C919.27 192.98 881.62 242.94 866.72 296.66C851.82 350.38 856.57 407.6 866.31 462.5C878.19 529.43 891.97 611.81 838.45 653.72C813.49 673.27 779.84 677.49 748.14 676.78C628.18 674.11 518.01 612.63 400.8 586.97C283.59 561.31 134.6 589.37 91.0796 701.19C70.9296 752.97 78.5496 811.07 89.5596 865.53C108.86 961.01 137.69 1054.56 175.49 1144.34C207.51 1220.41 268.93 1327.16 366.9 1314.84C445.24 1304.99 500.09 1227.16 538.58 1165.53C586.64 1088.57 656.1 1000.74 745.68 1015.16C820.53 1027.21 863.59 1105.83 888.35 1177.48C913.12 1249.13 936.18 1330.07 1001.15 1369.13C1055.32 1401.7 1126.51 1394.65 1182.53 1365.37C1238.55 1336.1 1281.98 1287.69 1320.87 1237.86C1407.3 1127.1 1477.8 1003.93 1529.53 873.31C1545.61 832.72 1573.17 782.92 1616.33 789.49C1633.09 792.04 1647.14 803.31 1659.23 815.2C1720.55 875.48 1752.45 959.13 1803.95 1027.98C1855.45 1096.83 1944.36 1153.31 2024.54 1122.25C2116.79 1086.53 2134.83 966.7 2143.52 868.16C2160.71 673.09 2199.54 474.03 2306.43 309.94C2325.82 280.17 2352.73 248.89 2388.27 249C2425.96 249.12 2454.48 286.65 2459.98 323.94C2465.48 361.23 2454.51 398.68 2447.43 435.7C2432.11 515.86 2435.96 602.52 2475.31 674.03C2514.66 745.54 2594.49 797.8 2675.62 788.94C2746.52 781.2 2805.75 730.45 2848.3 673.21C2947.24 540.11 2977.93 368.39 2985.5 202.72C2991.52 71.03 2984.79 -60.88 2978.07 -192.54C2976.1 -231.79 2973.52 -272.72 2961.44 -309.61Z" fill="#FE674C"/>
<path d="M840.52 855.38C840.52 855.38 2208.75 397.15 2961.44 -309.6" stroke="#FDFAF3" stroke-width="21.891" stroke-miterlimit="10" stroke-linecap="round" stroke-linejoin="round"/>
<path d="M2961.44 4690.39C2955.67 4672.77 2947.73 4656.06 2936.65 4640.91C2909.32 4603.53 2866.62 4580.99 2825.03 4560.61C2708.98 4503.73 2589.59 4453.67 2467.68 4410.76C2381.16 4380.31 2273.07 4357.72 2207.47 4421.83C2133.72 4493.9 2169.6 4616.27 2203.91 4713.51C2228.3 4782.64 2249.36 4852.94 2267 4924.09C2275.87 4959.87 2277.66 5008.64 2243.3 5021.99C2225.5 5028.91 2205.62 5022.06 2187.77 5015.25C2043.31 4960.1 1898.86 4904.94 1754.4 4849.79C1692.56 4826.18 1620.55 4803.15 1563.16 4836.14C1488.32 4879.16 1488.4 4990.03 1524.37 5068.49C1546.78 5117.37 1579.22 5162.29 1591.87 5214.55C1604.52 5266.81 1589.72 5331.88 1540.77 5354.13C1503.34 5371.14 1459.68 5357.96 1421.3 5343.2C1344.5 5313.68 1269.95 5278.34 1198.47 5237.58C1128.37 5197.61 1048.99 5150.67 972.27 5175.69C919.27 5192.98 881.62 5242.94 866.72 5296.66C851.82 5350.38 856.57 5407.6 866.31 5462.5C878.19 5529.43 891.97 5611.81 838.45 5653.72C813.49 5673.27 779.84 5677.49 748.14 5676.78C628.18 5674.11 518.01 5612.63 400.8 5586.97C283.59 5561.31 134.6 5589.37 91.0796 5701.19C70.9296 5752.97 78.5496 5811.07 89.5596 5865.53C108.86 5961.01 137.69 6054.56 175.49 6144.34C207.51 6220.41 268.93 6327.16 366.9 6314.84C445.24 6304.99 500.09 6227.16 538.58 6165.53C586.64 6088.57 656.1 6000.74 745.68 6015.16C820.53 6027.21 863.59 6105.83 888.35 6177.48C913.11 6249.13 936.18 6330.07 1001.15 6369.13C1055.32 6401.69 1126.51 6394.65 1182.53 6365.37C1238.55 6336.09 1281.98 6287.69 1320.87 6237.86C1407.3 6127.1 1477.8 6003.93 1529.53 5873.32C1545.61 5832.73 1573.17 5782.93 1616.33 5789.5C1633.09 5792.05 1647.14 5803.32 1659.23 5815.21C1720.55 5875.49 1752.45 5959.14 1803.95 6027.99C1855.45 6096.84 1944.36 6153.32 2024.54 6122.26C2116.79 6086.54 2134.83 5966.71 2143.52 5868.17C2160.71 5673.1 2199.54 5474.04 2306.43 5309.95C2325.82 5280.18 2352.73 5248.9 2388.27 5249.01C2425.96 5249.13 2454.48 5286.66 2459.98 5323.95C2465.48 5361.24 2454.51 5398.69 2447.43 5435.71C2432.11 5515.87 2435.96 5602.53 2475.31 5674.04C2514.66 5745.55 2594.49 5797.81 2675.62 5788.95C2746.52 5781.21 2805.75 5730.46 2848.3 5673.22C2947.24 5540.12 2977.93 5368.4 2985.5 5202.73C2991.52 5071.04 2984.79 4939.13 2978.07 4807.47C2976.1 4768.21 2973.52 4727.28 2961.44 4690.39Z" fill="#FE674C"/>
<path d="M840.52 5855.38C840.52 5855.38 2208.75 5397.15 2961.44 4690.4" stroke="#FDFAF3" stroke-width="21.891" stroke-miterlimit="10" stroke-linecap="round" stroke-linejoin="round"/>
<path d="M4900 2629.77C4900 2629.77 4955.42 2531.22 4831.33 2428.63C4796.01 2399.43 4760.23 2370.75 4723.46 2343.27C4651.76 2289.69 4573.53 2242 4480.49 2222.64C4364.43 2198.48 4210.68 2245.38 4124.2 2160.66C4086.55 2123.78 4101.04 2095.8 4074.55 2052.05C4067.36 2040.18 4032.11 1969.37 4007.59 1979.36C3983.07 1989.35 4035.78 2080.9 3991.84 2088.01C3947.9 2095.12 3931.44 1997.97 3893.65 1962.96C3857.33 1929.32 3793.02 1930 3757.13 1897.88C3705.66 1851.8 3687.15 1767.55 3639.92 1717.36C3593.55 1668.08 3533.46 1620.09 3460.75 1609.08C3393.64 1598.92 3327.11 1636.27 3280.03 1701.66C3180.85 1839.41 3258.55 2014.99 3270.24 2012.28C3303.92 2004.47 3344.72 1985.31 3378.38 1978.41C3412.04 1971.51 3446.86 1975.65 3467.08 1997.39C3475.04 2005.96 3480.6 2018.11 3477.26 2031.65C3469.89 2061.6 3430.17 2073.06 3401.72 2072.88C3373.27 2072.7 3335.04 2064.81 3319.68 2102.01C3296.52 2160.44 3392.38 2191.14 3452.21 2198.94C3514.69 2207.09 3574.52 2207.79 3614.54 2256C3642.03 2289.12 3657.11 2332.2 3671.79 2374.64C3708.05 2479.52 3754.84 2559.34 3888.27 2521.47C4123.31 2454.78 4219.79 2683.22 4406.9 2729.29C4650.63 2789.31 4828.84 2746.74 4900 2629.77Z" fill="#FFD662"/>
<path d="M3302.99 1673.61C3302.99 1673.61 3844.94 2482.09 4900 2629.77" stroke="#FF7F40" stroke-width="9.985" stroke-miterlimit="10" stroke-linecap="round" stroke-linejoin="round"/>
<path d="M3970.37 1099.67C3916 1110.67 3869.23 1123.75 3827.43 1139.67C3786.56 1155.24 3750.33 1173.4 3716.66 1195.2C3686.05 1215.02 3626.61 1265.92 3620.68 1316.7C3618.44 1335.89 3624.13 1352.76 3637.61 1366.83C3653.95 1383.9 3678.86 1385.08 3696.87 1383.06C3768.95 1374.99 3830.16 1312.01 3860.23 1275.18C3882.04 1248.47 3901.64 1219.51 3920.59 1191.51C3938.58 1164.93 3957.18 1137.46 3977.52 1112.17C3996.74 1102.14 4015.82 1092.1 4034.8 1082.11C4060.43 1068.62 4085.6 1055.4 4110.56 1042.45C4107.47 1046.62 4104.18 1051.14 4100.64 1056.08C4098.59 1058.94 4096.96 1061.23 4095.88 1062.65C4073.84 1091.92 4057.78 1117.63 4046.78 1141.24C4046.34 1142.18 4045.91 1143.13 4045.48 1144.08C4045.48 1144.08 4045.48 1144.09 4045.47 1144.09C4035.54 1166.29 4031.04 1186.95 4032.11 1205.48C4033.22 1224.81 4041.13 1241.87 4053.8 1252.27C4064.19 1260.8 4077.04 1264.28 4090.98 1262.35C4125.08 1257.61 4148.44 1222.12 4158.07 1193.17C4172.15 1150.86 4177.53 1106.29 4173.63 1064.28C4173.53 1063.15 4173.41 1061.6 4173.27 1059.73C4171.73 1039.35 4169.72 1023.92 4165.76 1014.2C4206.34 993.79 4246.62 974.41 4287.37 956.54C4332.33 936.82 4379.87 918.58 4430.69 901.58C4404.5 929.79 4379.89 959.51 4358.99 985.28C4329.22 1021.99 4305.87 1053.76 4288.7 1089.43C4279.42 1108.71 4274.41 1124.61 4272.92 1139.48C4270.96 1159.06 4275.79 1176.65 4286.16 1187.75C4305.97 1208.94 4340.92 1203.61 4365.21 1187.41C4385.79 1173.68 4403.55 1152.03 4421.1 1119.29C4447.57 1069.88 4464.42 1015.79 4469.81 962.86C4471.44 946.83 4472.18 929.53 4472.15 908.44C4472.14 901.09 4471.86 894.1 4469.87 888.91C4506.81 877.38 4545.43 866.41 4586.08 855.95C4642.49 841.43 4699.41 832.07 4755.7 824.58C4759.87 824.94 4763.96 825.23 4767.92 825.42C4731.98 855.5 4703.2 882.36 4677.69 909.67C4677.69 909.67 4677.69 909.67 4677.68 909.68C4621.61 969.82 4585.95 1026.55 4568.64 1083.11C4560.67 1109.13 4555.18 1144.78 4574.25 1166.82C4586.21 1180.63 4606.88 1186.2 4628.23 1181.34C4645.7 1177.36 4663.86 1166.8 4680.76 1150.79C4706.8 1126.11 4727.52 1091.86 4745.95 1043C4760.24 1005.13 4771.13 966.33 4780.21 932.94C4787.32 906.8 4796.91 880.07 4806.17 854.22C4810.29 842.72 4814.56 830.83 4818.54 819.16C4818.8 818.38 4819.08 817.55 4819.35 816.68C4827.64 815.71 4835.91 814.74 4844.15 813.78C4865.46 811.3 4887.5 808.74 4909.2 806.03C4913.15 805.54 4915.95 801.94 4915.45 797.99C4915.12 795.34 4913.39 793.21 4911.09 792.24C4909.97 791.77 4908.71 791.58 4907.41 791.74C4885.77 794.45 4863.76 797.01 4842.48 799.48C4834.45 800.41 4826.38 801.35 4818.3 802.3C4818.14 802.07 4817.98 801.83 4817.81 801.63C4818.14 791.63 4813.66 781.94 4810.12 774.32C4809 771.9 4807.94 769.62 4807.18 767.67C4800.93 751.45 4794.75 736.9 4788.29 723.19C4773.01 690.78 4756.85 664.37 4738.87 642.45C4723.34 623.51 4706.68 610.39 4689.55 603.21C4661.07 591.26 4631.32 595.73 4603.38 617.19C4568.62 643.88 4562.7 674.09 4563.86 694.73C4566.15 735.57 4596.16 771.33 4624.88 788.65C4644.38 800.41 4666.37 809.33 4690.24 815.16C4694.15 816.11 4698.15 816.97 4702.19 817.77C4662.36 824.06 4622.35 831.74 4582.48 842.01C4541.83 852.48 4503.17 863.44 4466.19 874.98C4465.4 872.76 4464.53 870.65 4463.74 868.73C4463.12 867.25 4462.56 865.89 4462.14 864.7C4450.69 832.14 4434.68 803.59 4420.53 779.96C4407.71 758.55 4392.19 734.32 4370.16 717.87C4364.17 713.4 4357.38 709.5 4350.04 706.42C4324.33 695.63 4291.91 694.94 4263.93 715.29C4239.02 733.41 4224.46 766.04 4229.32 792.88C4233.12 813.89 4246.28 832.91 4267.38 847.88C4295.85 868.08 4327.95 881.77 4362.78 888.57C4366.19 889.24 4384.49 892.42 4404.5 895.27C4361.32 910.29 4320.5 926.26 4281.57 943.34C4240.83 961.21 4200.62 980.55 4160.15 1000.89C4162.26 991.21 4155.05 978.67 4148.4 968.7L4147.76 967.74C4119.35 923.89 4079.32 871.2 4026.14 848.89C4001.86 838.7 3974.81 834.84 3944.9 841.05C3935.26 843.05 3926.44 846.19 3918.69 850.36C3873.6 874.67 3868.32 931.16 3886.24 971.98C3909.54 1025.03 3967.85 1033.63 4012.67 1031.51C4030.76 1030.65 4048.86 1028.48 4066.37 1026.38L4073.4 1025.54C4077.92 1025.01 4082.53 1024.53 4087.19 1024.06C4099.58 1022.79 4112.21 1021.46 4124.7 1018.9C4092.92 1035.23 4060.85 1052.11 4028.08 1069.35C4008.97 1079.44 3989.73 1089.56 3970.37 1099.67ZM3908.66 1183.45C3889.89 1211.19 3870.48 1239.87 3849.08 1266.08C3820.4 1301.21 3762.28 1361.25 3695.28 1368.76C3686.47 1369.75 3672.3 1370.15 3660.26 1365.1C3655.76 1363.21 3651.55 1360.56 3648.03 1356.88C3637.52 1345.9 3633.26 1333.31 3635 1318.38C3639.92 1276.21 3691.23 1228.84 3724.51 1207.29C3757.31 1186.05 3792.66 1168.33 3832.58 1153.13C3868.9 1139.3 3909.1 1127.63 3955.01 1117.62C3938.66 1139.12 3923.46 1161.58 3908.66 1183.45ZM4732.45 1037.95C4714.81 1084.7 4695.23 1117.24 4670.83 1140.37C4655.81 1154.6 4639.97 1163.93 4625.01 1167.33C4614.67 1169.68 4604.68 1168.97 4596.61 1165.59C4592.08 1163.69 4588.16 1160.95 4585.12 1157.43C4569.58 1139.47 4576.74 1105.81 4582.39 1087.35C4599.05 1032.93 4633.66 978.03 4688.19 919.53C4714.01 891.9 4743.22 864.71 4780.13 833.97C4780.58 833.59 4781.36 832.91 4782.38 832.01C4785.43 829.33 4788.13 827.02 4790.55 825.02C4794.8 824.55 4798.66 823.79 4802.04 822.7C4798.93 831.63 4795.73 840.61 4792.59 849.39C4783.23 875.5 4773.55 902.5 4766.28 929.19C4757.3 962.26 4746.52 1000.67 4732.45 1037.95ZM4741 808.6C4738.56 808.31 4736.63 808.09 4735.4 807.98C4720.88 806.7 4706.83 804.42 4693.65 801.2C4671.2 795.72 4650.56 787.36 4632.31 776.35C4607.66 761.48 4580.22 729.35 4578.23 693.96C4576.83 668.98 4588.24 647.01 4612.14 628.65C4663.78 588.99 4706.72 626.02 4727.73 651.63C4744.94 672.61 4760.49 698.04 4775.25 729.37C4781.56 742.76 4787.61 756.99 4793.73 772.89C4794.66 775.29 4795.82 777.79 4797.04 780.43C4799.88 786.54 4802.98 793.23 4803.37 799.28C4800.26 800.45 4796.66 802.49 4792.43 805.42C4780.16 806.91 4767.85 808.47 4755.51 810.1C4751.1 809.72 4746.29 809.22 4741 808.6ZM4455.47 961.43C4450.27 1012.51 4433.99 1064.75 4408.4 1112.51C4392.02 1143.09 4375.75 1163.09 4357.22 1175.46C4342.09 1185.55 4321.22 1190.84 4306.27 1184.57C4302.68 1183.06 4299.42 1180.89 4296.68 1177.95C4289.14 1169.88 4285.7 1156.4 4287.25 1140.95C4288.57 1127.8 4293.15 1113.43 4301.68 1095.71C4318.24 1061.29 4341.04 1030.31 4370.18 994.38C4392.85 966.43 4419.88 933.79 4448.47 903.67C4449.83 902.23 4451.03 901.05 4452.09 900.04C4454.15 900.03 4455.92 899.95 4457.43 899.8C4457.61 901.92 4457.74 904.73 4457.74 908.51C4457.77 929.08 4457.05 945.9 4455.47 961.43ZM4365.55 874.47C4332.74 868.06 4302.52 855.17 4275.72 836.16C4257.5 823.23 4246.66 807.82 4243.49 790.34C4239.56 768.65 4251.72 742 4272.4 726.97C4304.49 703.63 4340.48 713.72 4361.53 729.44C4381.46 744.32 4396.05 767.15 4408.16 787.39C4421.94 810.41 4437.51 838.16 4448.54 869.51C4449.03 870.91 4449.7 872.53 4450.43 874.28C4451.01 875.67 4451.75 877.47 4452.43 879.35C4446.89 881.12 4441.39 882.9 4435.93 884.69C4413.2 882.46 4379.2 877.13 4365.55 874.47ZM4158.9 1060.84C4159.05 1062.8 4159.17 1064.44 4159.28 1065.63C4163 1105.67 4157.85 1148.2 4144.4 1188.64C4135.41 1215.65 4114.79 1244.52 4088.99 1248.11C4082.43 1249.02 4076.4 1248.33 4070.97 1246.05C4068.13 1244.86 4065.45 1243.23 4062.94 1241.17C4053.51 1233.42 4047.36 1219.78 4046.49 1204.68C4045.56 1188.47 4049.64 1170.07 4058.62 1149.99C4059.02 1149.11 4059.42 1148.23 4059.83 1147.35C4070.4 1124.65 4085.96 1099.79 4107.38 1071.34C4108.5 1069.85 4110.21 1067.47 4112.35 1064.49C4126.14 1045.23 4135.47 1033.46 4141.79 1026.4C4145.52 1024.49 4149.25 1022.59 4152.97 1020.7C4154.87 1026.1 4157.13 1037.37 4158.9 1060.84ZM4085.73 1009.76C4080.99 1010.24 4076.3 1010.72 4071.71 1011.27L4064.66 1012.11C4047.4 1014.18 4029.56 1016.32 4011.99 1017.15C3971.68 1019.06 3919.43 1011.77 3899.43 966.22C3887.2 938.37 3883.47 885.74 3925.53 863.07C3932.05 859.55 3939.56 856.9 3947.84 855.18C4034.61 837.16 4096.61 915.27 4135.68 975.6L4136.43 976.72C4146.06 991.16 4146.34 996.29 4146.17 997.57C4127.2 1005.52 4106.12 1007.68 4085.73 1009.76Z" fill="#FFB83A"/>
<path d="M3583.76 3322.59C3583.76 3322.59 3476.36 3407.98 3280.59 3259.68C3224.87 3217.47 3169.63 3174.59 3115.57 3130.26C3010.13 3043.82 2909.65 2948.07 2840.53 2829.25C2754.31 2681.02 2746.59 2474.19 2592.3 2372.6C2525.13 2328.37 2494.07 2350.98 2422.79 2322.24C2403.45 2314.44 2291.6 2277.84 2293.76 2244.52C2295.92 2211.21 2443.82 2267.83 2433.11 2209.55C2422.4 2151.27 2283.69 2142.69 2218.99 2098.02C2156.81 2055.09 2128.02 1971.09 2068.09 1928.53C1982.13 1867.49 1859.87 1854.52 1770.32 1799.55C1682.4 1745.58 1589.86 1673.55 1541.43 1580.14C1496.72 1493.92 1516.4 1402.16 1582.9 1332.05C1722.99 1184.36 1995.84 1262.44 1997.58 1278.06C2002.6 1323.04 1995.58 1378.82 2001.82 1423.65C2008.06 1468.48 2029.73 1513.37 2068.41 1536.87C2083.65 1546.13 2102.61 1551.76 2119.35 1545.61C2156.37 1532.01 2153.48 1478.68 2140.11 1441.58C2126.73 1404.48 2098.42 1355.65 2141.54 1330.67C2209.7 1292.7 2295.41 1413.7 2333.58 1490.73C2373.44 1571.18 2402.02 1649.15 2485.57 1694.96C2542.97 1726.44 2608.07 1740.4 2672.12 1753.91C2830.42 1787.31 2959.75 1837.76 2970.28 2016.89C2988.84 2332.42 3341.7 2427.98 3490.32 2666.02C3683.88 2976.04 3708.74 3214.22 3583.76 3322.59Z" fill="#486D87"/>
<path d="M1555.66 1365.73C1555.66 1365.73 2897.1 1965.56 3583.76 3322.59" stroke="#FDF2D6" stroke-width="17.7099" stroke-miterlimit="10" stroke-linecap="round" stroke-linejoin="round"/>
<path d="M699.321 278.31C712.941 305.31 704.411 345.63 633.951 374.32C477.071 438.18 244.601 346.28 187.731 264.3C150.571 210.73 157.571 146.67 228.281 122.78C258.861 112.45 292.091 113.07 322.641 123.5C352.231 133.61 396.021 153.92 434.981 174.73C466.491 191.56 525.261 226.48 568.771 226.26C612.281 226.04 673.501 227.11 699.321 278.31Z" fill="#486D87"/>
<path d="M3480.37 4516.2C3396.23 4609.74 3212.68 4520.86 3121.49 4486.05C2874.21 4391.64 2571.72 4258.54 2589.76 3947.09C2591.58 3915.71 2597.53 3883.48 2615.27 3857.21C2656.12 3796.73 2747.76 3788.42 2814.36 3818.85C2880.96 3849.28 2928.62 3908.04 2974.81 3964.08C3021 4020.12 3071.19 4077.55 3139.79 4103.43C3209.91 4129.88 3290.1 4119.63 3360.78 4144.64C3495.61 4192.34 3550.51 4367.14 3495.9 4491.95C3491.83 4501.26 3486.58 4509.29 3480.37 4516.2Z" stroke="#FFD662" stroke-width="25" stroke-miterlimit="10" stroke-linecap="round" stroke-linejoin="round"/>
<path d="M1129.99 2667.12C1129.99 2667.12 1133.68 2548.19 1129.18 2513.24C1115.09 2403.94 1089.62 2295.76 1048.85 2193.23C1011.42 2099.1 956.63 1976.11 877.93 1909.5C893.18 1976.82 800.81 2121.68 764.97 2144.65C764.97 2144.65 805.32 1932.44 806.48 1885.34C807.92 1826.94 794.87 1790.84 749.75 1754.01C654.42 1676.21 553.78 1604.91 448.75 1540.79C469.46 1578.12 490.24 1732.1 409.44 1856.41C409.44 1856.41 419.87 1446.33 194.01 1371.27C83.2803 1334.47 -34.4497 1327.07 -151.1 1324.41C-264.37 1321.83 -377.63 1319.26 -490.9 1316.68C-517.07 1373.25 -511.76 1439.17 -495.18 1499.25C-488.09 1524.94 -477.01 1549.73 -460.78 1570.87C-427.53 1614.2 -374.83 1639.22 -321.23 1649.71C-267.63 1660.2 -249.17 1659.23 -194.61 1656.63C-276.93 1720.81 -339.69 1724.18 -433.78 1706.6C-398.82 1915.47 -264.34 2091.93 -134.14 2258.95C-80.1797 2328.17 -22.0997 2383.97 71.7903 2380.67C152.15 2377.85 230.41 2341.71 304.91 2314.52C261.13 2388.57 154.7 2443.92 115.41 2457.77C134.3 2469.64 160.51 2478.9 182.18 2489.17C338.2 2563.09 504.96 2620.68 674.92 2650.76C869.5 2685.21 1129.99 2667.12 1129.99 2667.12Z" fill="#45BE93"/>
<path d="M-490.899 1316.69C-490.899 1316.69 -47.9194 1434.98 1195.87 2738.62" stroke="#288594" stroke-width="21.1272" stroke-miterlimit="10"/>
<path d="M6129.99 2667.12C6129.99 2667.12 6133.68 2548.19 6129.18 2513.24C6115.09 2403.94 6089.62 2295.76 6048.85 2193.23C6011.42 2099.1 5956.63 1976.11 5877.93 1909.5C5893.18 1976.82 5800.81 2121.68 5764.97 2144.65C5764.97 2144.65 5805.32 1932.44 5806.48 1885.34C5807.92 1826.94 5794.87 1790.84 5749.75 1754.01C5654.42 1676.21 5553.78 1604.91 5448.75 1540.79C5469.46 1578.12 5490.24 1732.1 5409.44 1856.41C5409.44 1856.41 5419.87 1446.33 5194.01 1371.27C5083.28 1334.47 4965.55 1327.07 4848.9 1324.41C4735.63 1321.83 4622.37 1319.26 4509.1 1316.68C4482.93 1373.25 4488.24 1439.17 4504.82 1499.25C4511.91 1524.94 4522.99 1549.73 4539.22 1570.87C4572.47 1614.2 4625.17 1639.22 4678.77 1649.71C4732.37 1660.2 4750.83 1659.23 4805.39 1656.63C4723.07 1720.81 4660.31 1724.18 4566.22 1706.6C4601.18 1915.47 4735.66 2091.93 4865.86 2258.95C4919.82 2328.17 4977.9 2383.97 5071.79 2380.67C5152.15 2377.85 5230.41 2341.71 5304.91 2314.52C5261.13 2388.57 5154.7 2443.92 5115.41 2457.77C5134.3 2469.64 5160.51 2478.9 5182.18 2489.17C5338.2 2563.09 5504.96 2620.68 5674.92 2650.76C5869.5 2685.21 6129.99 2667.12 6129.99 2667.12Z" fill="#45BE93"/>
<path d="M4509.1 1316.69C4509.1 1316.69 4952.08 1434.98 6195.87 2738.62" stroke="#288594" stroke-width="21.1272" stroke-miterlimit="10"/>
<path d="M3267.47 5700.9C3267.47 5700.9 3411.01 5730.89 3454.43 5733.04C3590.25 5739.76 3727.23 5732.68 3860.78 5706.15C3983.39 5681.8 4144.9 5642.95 4243.3 5563.49C4158.19 5567.18 4002.96 5425.91 3983.07 5378.24C3983.07 5378.24 4231.65 5472 4288.57 5483.52C4359.14 5497.8 4405.87 5490.02 4460.64 5444.16C4576.35 5347.27 4685.34 5242.66 4786.6 5131.28C4736.66 5147.93 4545.13 5139.56 4412.27 5016.5C4412.27 5016.5 4907.71 5117.18 5049.2 4864.12C5118.56 4740.06 5153.82 4601.32 5183.06 4462.86C5211.46 4328.41 5239.85 4193.96 5268.24 4059.5C5205.41 4016.13 5124.22 4008.28 5047.59 4015.12C5014.83 4018.04 4982.26 4025.92 4952.98 4040.71C4892.97 4071.02 4850.85 4128.45 4826.15 4190.08C4801.46 4251.71 4798.52 4273.93 4789.51 4339.51C4729.98 4227.58 4739.88 4152.05 4782.21 4043.69C4520.88 4040.41 4276.69 4162.73 4044.91 4281.98C3948.86 4331.4 3868.16 4388.62 3851.22 4501.25C3836.72 4597.64 3863.13 4698.69 3879.51 4793.34C3799.4 4725.22 3755.95 4586.46 3747.9 4536.65C3729.27 4556.61 3712.19 4585.86 3694.89 4609.48C3570.36 4779.54 3463.26 4965.91 3388.83 5162.02C3303.61 5386.52 3267.47 5700.9 3267.47 5700.9Z" fill="#486D87"/>
<path d="M5268.24 4059.51C5268.24 4059.51 5025.83 4562.05 3165.98 5764.04" stroke="#FDF2D6" stroke-width="25.8305" stroke-miterlimit="10"/>
<path d="M3267.47 700.9C3267.47 700.9 3411.01 730.89 3454.43 733.04C3590.25 739.76 3727.23 732.68 3860.78 706.15C3983.39 681.79 4144.9 642.95 4243.3 563.49C4158.19 567.18 4002.96 425.91 3983.07 378.24C3983.07 378.24 4231.65 472 4288.57 483.52C4359.14 497.8 4405.87 490.02 4460.64 444.16C4576.35 347.27 4685.34 242.66 4786.6 131.28C4736.66 147.93 4545.13 139.56 4412.27 16.5001C4412.27 16.5001 4907.71 117.18 5049.2 -135.88C5118.56 -259.94 5153.82 -398.68 5183.06 -537.14C5211.46 -671.59 5239.85 -806.04 5268.24 -940.5C5205.41 -983.87 5124.22 -991.72 5047.59 -984.88C5014.83 -981.96 4982.26 -974.08 4952.98 -959.29C4892.97 -928.98 4850.85 -871.55 4826.15 -809.92C4801.46 -748.29 4798.52 -726.07 4789.51 -660.49C4729.98 -772.42 4739.88 -847.95 4782.21 -956.31C4520.88 -959.59 4276.69 -837.27 4044.91 -718.02C3948.86 -668.6 3868.16 -611.38 3851.22 -498.75C3836.72 -402.36 3863.13 -301.31 3879.51 -206.66C3799.4 -274.78 3755.95 -413.54 3747.9 -463.35C3729.27 -443.39 3712.19 -414.14 3694.89 -390.52C3570.36 -220.46 3463.26 -34.09 3388.83 162.02C3303.61 386.52 3267.47 700.9 3267.47 700.9Z" fill="#486D87"/>
<path d="M5268.24 -940.49C5268.24 -940.49 5025.83 -437.95 3165.98 764.04" stroke="#FDF2D6" stroke-width="25.8305" stroke-miterlimit="10"/>
<path d="M-1732.53 5700.9C-1732.53 5700.9 -1588.99 5730.89 -1545.57 5733.04C-1409.75 5739.76 -1272.77 5732.68 -1139.22 5706.15C-1016.61 5681.8 -855.099 5642.95 -756.699 5563.49C-841.809 5567.18 -997.039 5425.91 -1016.93 5378.24C-1016.93 5378.24 -768.349 5472 -711.429 5483.52C-640.859 5497.8 -594.129 5490.02 -539.359 5444.16C-423.649 5347.27 -314.659 5242.66 -213.399 5131.28C-263.339 5147.93 -454.869 5139.56 -587.739 5016.5C-587.739 5016.5 -92.2993 5117.18 49.1907 4864.12C118.551 4740.06 153.811 4601.32 183.051 4462.86C211.441 4328.41 239.841 4193.96 268.231 4059.5C205.401 4016.13 124.211 4008.28 47.5807 4015.12C14.8207 4018.04 -17.7493 4025.92 -47.0293 4040.71C-107.039 4071.02 -149.169 4128.45 -173.859 4190.08C-198.549 4251.71 -201.489 4273.93 -210.499 4339.51C-270.029 4227.58 -260.129 4152.05 -217.799 4043.69C-479.129 4040.41 -723.319 4162.73 -955.099 4281.98C-1051.15 4331.4 -1131.85 4388.62 -1148.79 4501.25C-1163.29 4597.64 -1136.88 4698.69 -1120.5 4793.34C-1200.61 4725.22 -1244.06 4586.46 -1252.11 4536.65C-1270.74 4556.61 -1287.82 4585.86 -1305.12 4609.48C-1429.65 4779.54 -1536.75 4965.91 -1611.18 5162.02C-1696.39 5386.52 -1732.53 5700.9 -1732.53 5700.9Z" fill="#486D87"/>
<path d="M268.24 4059.51C268.24 4059.51 25.8304 4562.05 -1834.02 5764.04" stroke="#FDF2D6" stroke-width="25.8305" stroke-miterlimit="10"/>
<path d="M4194.05 3029.45C4120.08 3047.11 3993.27 3078.53 3888.92 2983.77C3810.54 2912.59 3768.43 2713.55 3845.1 2692.4C3918.1 2672.27 3949.93 2730.01 3974.21 2793.33C4050.32 2991.84 4176.45 2893.13 4225.09 2917.12C4280.22 2944.31 4258.29 3014.12 4194.05 3029.45Z" fill="#45BE93"/>
<path d="M1732.27 2171.85C1695.26 2185.68 1373.78 2241.15 1215.91 2054.5C1107.12 1925.87 1079.88 1674.13 1147.02 1577.62C1212.2 1483.93 1307.43 1539.26 1337.94 1610.61C1414.59 1789.81 1236.51 1999.98 1571.33 1994.84C1864.48 1990.34 1806.72 2144.02 1732.27 2171.85Z" fill="#FFD662"/>
<path d="M5549.67 3044.93C5085.22 3172.49 4658.92 3330.24 4251.72 3583.73C3995.87 3743 3700.14 3907.4 3537.25 4042.88" stroke="#FE674C" stroke-width="19.0835" stroke-miterlimit="10" stroke-linecap="round" stroke-linejoin="round"/>
<path d="M4846.8 3298.48C4841.1 3291.77 4844.5 3282.07 4852.62 3278.66C4897.4 3259.81 5050.86 3231 5230.87 3357.68C5351.5 3442.57 5296.37 3479.99 5234.62 3488C5121.2 3502.71 4881 3338.77 4846.8 3298.48Z" stroke="#FE674C" stroke-width="19.0835" stroke-miterlimit="10" stroke-linecap="round" stroke-linejoin="round"/>
<path d="M4852.62 3278.65C4917.98 3251.64 5034.33 2969.37 4994.86 2879.24C4994.86 2879.24 4965.05 2779.4 4876.28 2838.6C4787.5 2897.79 4757.17 3318.1 4852.62 3278.65Z" stroke="#FE674C" stroke-width="19.0835" stroke-miterlimit="10" stroke-linecap="round" stroke-linejoin="round"/>
<path d="M4526.6 3428C4612.44 3383.07 4699.33 3159.89 4680.37 3048.27C4665.04 2958.02 4573.46 2997.97 4538.36 3062.07C4480.4 3167.92 4474.46 3455.3 4526.6 3428Z" stroke="#FE674C" stroke-width="19.0835" stroke-miterlimit="10" stroke-linecap="round" stroke-linejoin="round"/>
<path d="M4530.35 3426.29C4575.86 3401.68 4725.92 3354.57 4924.08 3500.84C4947.83 3518.37 4968.92 3539.33 4986 3563.4C5020.1 3611.47 5024.32 3688.39 4927.33 3672.81C4851.69 3660.65 4477.79 3454.72 4530.35 3426.29Z" stroke="#FE674C" stroke-width="19.0835" stroke-miterlimit="10" stroke-linecap="round" stroke-linejoin="round"/>
<path d="M4232.13 3595.88C4260.98 3575.87 4479.44 3562.13 4670.32 3751.11C4670.32 3751.11 4812.07 3884.62 4645.86 3866.37C4402.95 3839.7 4187.62 3626.75 4232.13 3595.88Z" stroke="#FE674C" stroke-width="19.0835" stroke-miterlimit="10" stroke-linecap="round" stroke-linejoin="round"/>
<path d="M4206.38 3595.98C4210.27 3602.74 4218.68 3604.33 4225.3 3600.22C4275.35 3569.13 4358.29 3461.38 4363.69 3286.51C4372.92 2988.11 4072.09 3362.58 4206.38 3595.98Z" stroke="#FE674C" stroke-width="19.0835" stroke-miterlimit="10" stroke-linecap="round" stroke-linejoin="round"/>
<path d="M3922.96 3783.43C3953.07 3765.04 4107.28 3769.69 4288.47 3917.29C4372.27 3985.55 4370.54 4055.74 4257.47 4030.14C4090.85 3992.4 3884.91 3806.67 3922.96 3783.43Z" stroke="#FE674C" stroke-width="19.0835" stroke-miterlimit="10" stroke-linecap="round" stroke-linejoin="round"/>
<path d="M3922.96 3783.43C3898.36 3797.19 3824.68 3760.5 3836.06 3441.53C3841.39 3292.3 3979.4 3281.72 4007.5 3387.85C4051.24 3553.04 3965.12 3759.84 3922.96 3783.43Z" stroke="#FE674C" stroke-width="19.0835" stroke-miterlimit="10" stroke-linecap="round" stroke-linejoin="round"/>
<path d="M3680.77 3936.95C3712.92 3915.46 3883.01 3946.09 4037.92 4132.37C4131.84 4245.31 4000.26 4290.06 3811.41 4110.1C3753.82 4055.23 3648.63 3958.44 3680.77 3936.95Z" stroke="#FE674C" stroke-width="19.0835" stroke-miterlimit="10" stroke-linecap="round" stroke-linejoin="round"/>
<path d="M3680.97 3936.46C3720.15 3908.97 3765.77 3592.79 3710.2 3475.44C3658.09 3365.39 3602.6 3429.56 3581.87 3466.69C3519.34 3578.71 3612.58 3984.43 3680.97 3936.46Z" stroke="#FE674C" stroke-width="19.0835" stroke-miterlimit="10" stroke-linecap="round" stroke-linejoin="round"/>
<path d="M556.97 3054.89C544.34 3051.85 541.56 3035.08 552.43 3027.97C634.59 2974.23 940.99 2786.86 1040.61 2911.85C1143.58 3041.03 673.16 3082.83 556.97 3054.89Z" stroke="#FE674C" stroke-width="19.0835" stroke-miterlimit="10" stroke-linecap="round" stroke-linejoin="round"/>
<path d="M549.67 3044.93C85.2199 3172.49 -341.08 3330.24 -748.28 3583.73C-1004.13 3743 -1299.86 3907.4 -1462.75 4042.88" stroke="#FE674C" stroke-width="19.0835" stroke-miterlimit="10" stroke-linecap="round" stroke-linejoin="round"/>
<path d="M204.48 3148.5C155.61 3164.08 479.89 3316.24 598.19 3310.9C681.71 3307.13 704.31 3225.9 606.48 3172.33C548.85 3140.77 318.93 3112.02 204.48 3148.5Z" stroke="#FE674C" stroke-width="19.0835" stroke-miterlimit="10" stroke-linecap="round" stroke-linejoin="round"/>
<path d="M257.96 2787.09C300.37 2712.31 355.27 2709.87 377.36 2790.57C408.7 2905.07 266.82 3128.22 211.6 3146.35C166.1 3161.28 129.45 3013.69 257.96 2787.09Z" stroke="#FE674C" stroke-width="19.0835" stroke-miterlimit="10" stroke-linecap="round" stroke-linejoin="round"/>
<path d="M-153.2 3298.48C-158.9 3291.77 -155.5 3282.07 -147.38 3278.66C-102.6 3259.81 50.86 3231 230.87 3357.68C351.5 3442.57 296.37 3479.99 234.62 3488C121.2 3502.71 -119 3338.77 -153.2 3298.48Z" stroke="#FE674C" stroke-width="19.0835" stroke-miterlimit="10" stroke-linecap="round" stroke-linejoin="round"/>
<path d="M-147.38 3278.65C-82.0196 3251.64 34.3304 2969.37 -5.13963 2879.24C-5.13963 2879.24 -34.9496 2779.4 -123.72 2838.6C-212.5 2897.79 -242.83 3318.1 -147.38 3278.65Z" stroke="#FE674C" stroke-width="19.0835" stroke-miterlimit="10" stroke-linecap="round" stroke-linejoin="round"/>
<path d="M-469.65 3426.29C-424.14 3401.68 -274.08 3354.57 -75.9204 3500.84C-52.1804 3518.37 -31.0805 3539.33 -14.0005 3563.4C20.0995 3611.47 24.3196 3688.39 -72.6704 3672.81C-148.31 3660.65 -522.21 3454.72 -469.65 3426.29Z" stroke="#FE674C" stroke-width="19.0835" stroke-miterlimit="10" stroke-linecap="round" stroke-linejoin="round"/>
<path d="M1148.59 4681.47C1138.41 4697.82 1124.19 4711.78 1105.73 4721.55C1044.29 4754.09 948.911 4729.85 892.451 4697.29C752.561 4616.63 663.271 4468.83 610.391 4316.26C557.511 4163.69 535.361 4002.38 494.521 3846.16C485.131 3810.23 474.651 3773.91 475.471 3736.78C476.281 3699.65 490.371 3660.72 520.901 3639.57C554.901 3616.03 601.151 3619.53 640.151 3633.27C691.721 3651.44 737.371 3686 768.861 3730.7C832.221 3820.66 833.661 3938.71 865.221 4044.12C900.431 4161.71 973.571 4263.76 1047.56 4361.72C1094.23 4423.51 1140.15 4492.34 1162.14 4567.31C1173.23 4605.19 1169.26 4648.25 1148.59 4681.47Z" fill="#45BE93"/>
<path d="M4460.64 1854.86C4506.52 1877.79 4587.68 1972.85 4487.32 2028.81C4406.14 2074.08 4311.62 2024.41 4248.43 1969.88C4198.46 1926.75 4158.25 1873.7 4116.04 1822.96C4045.03 1737.61 3964.85 1672.08 3860.87 1631.93C3801.46 1608.99 3792.89 1529.36 3832.85 1485.13C3895.64 1415.64 4022.38 1440.97 4091.19 1485.83C4161.38 1531.59 4204.95 1604.91 4253.17 1671.19C4307.31 1745.6 4377.73 1813.43 4460.64 1854.86Z" fill="#FE674C"/>
<path d="M1713.5 2310.68C1713.5 2310.68 1942.61 2202.06 2066.49 2245.81C2190.37 2289.55 2633.83 2626.78 2276.39 3772.66C2276.39 3772.66 2081.95 3753.55 2205.95 3934.46C2205.95 3934.46 1994.42 4391.39 1545.23 4274.96C1050.3 4146.67 837.62 3182.36 1553.92 2438.37C1553.92 2438.35 1751.03 2583.79 1713.5 2310.68Z" fill="#FFB83A"/>
<path d="M1567.66 2663.07C1580.05 2655.02 1595.99 2655.98 1607.15 2666.06C1621.02 2678.58 1638.55 2703.68 1616.37 2733.39C1597.79 2758.27 1562.4 2745.32 1548.96 2728.47C1543.35 2721.44 1540.41 2712.33 1541.38 2703.23C1542.63 2691.55 1548.34 2675.62 1567.66 2663.07Z" stroke="#FF7F40" stroke-width="24.0027" stroke-miterlimit="10" stroke-linecap="round" stroke-linejoin="round"/>
<path d="M1418.11 2791.13C1441.94 2782.1 1469.02 2786.7 1488.46 2804.2C1512.64 2825.97 1532.81 2863.12 1494.88 2920.48C1457.18 2977.49 1390 2954.53 1362.9 2925.94C1346.71 2908.86 1347.1 2879.55 1353.61 2856.51C1360.08 2833.61 1376.86 2806.76 1418.11 2791.13Z" stroke="#FF7F40" stroke-width="24.0027" stroke-miterlimit="10" stroke-linecap="round" stroke-linejoin="round"/>
<path d="M2018.13 2451.38C1976.97 3285.59 1324.68 4969.52 1324.68 4969.52" stroke="#FF7F40" stroke-width="24.0027" stroke-miterlimit="10" stroke-linecap="round" stroke-linejoin="round"/>
<path d="M3488.17 969.26C3416.74 909.66 3271.81 850.91 2995.28 934.01L3065.38 1004.4L2942.89 954.22C2942.89 954.22 2726.9 985.49 2729.29 1216.85C2799.08 1468.26 3242.53 1375.09 3334.17 1316.64L3345.66 1235.11L3402.09 1289.47C3402.09 1289.47 3522.9 1265.8 3550.69 1152.78C3567.36 1085.01 3541.76 1013.97 3488.17 969.26Z" fill="#FFB83A"/>
<path d="M3447.62 1181.67C3454.49 1184.51 3458.7 1191.46 3458.13 1198.87C3457.65 1205.07 3454.97 1211.65 3445.71 1211.38C3438.76 1211.18 3434.3 1208.45 3431.45 1205.25C3426.16 1199.3 3426.9 1190.1 3432.54 1184.48C3435.92 1181.12 3440.84 1178.87 3447.62 1181.67Z" stroke="#FF7F40" stroke-width="9.7262" stroke-miterlimit="10" stroke-linecap="round" stroke-linejoin="round"/>
<path d="M3467.79 1084.6C2933.78 1072.5 2372.81 1313.78 2372.81 1313.78" stroke="#FF7F40" stroke-width="9.7262" stroke-miterlimit="10" stroke-linecap="round" stroke-linejoin="round"/>
<path d="M3142.51 3740.13C3228.27 3740.13 3297.79 3670.61 3297.79 3584.85C3297.79 3499.09 3228.27 3429.57 3142.51 3429.57C3056.75 3429.57 2987.23 3499.09 2987.23 3584.85C2987.23 3670.61 3056.75 3740.13 3142.51 3740.13Z" stroke="#45BE93" stroke-width="25" stroke-miterlimit="10" stroke-linecap="round"/>
<path d="M786.009 1551.87C846.661 1551.87 895.829 1502.7 895.829 1442.05C895.829 1381.4 846.661 1332.23 786.009 1332.23C725.358 1332.23 676.189 1381.4 676.189 1442.05C676.189 1502.7 725.358 1551.87 786.009 1551.87Z" stroke="#486D87" stroke-width="17.6807" stroke-miterlimit="10" stroke-linecap="round"/>
<path d="M2920.3 1717.24C2980.95 1717.24 3030.12 1668.07 3030.12 1607.42C3030.12 1546.77 2980.95 1497.6 2920.3 1497.6C2859.65 1497.6 2810.48 1546.77 2810.48 1607.42C2810.48 1668.07 2859.65 1717.24 2920.3 1717.24Z" stroke="#486D87" stroke-width="17.6807" stroke-miterlimit="10" stroke-linecap="round"/>
<path d="M475.411 4845.67C561.17 4845.67 630.691 4776.15 630.691 4690.39C630.691 4604.63 561.17 4535.11 475.411 4535.11C389.652 4535.11 320.131 4604.63 320.131 4690.39C320.131 4776.15 389.652 4845.67 475.411 4845.67Z" stroke="#FE674C" stroke-width="25" stroke-miterlimit="10" stroke-linecap="round"/>
<rect width="5000" height="5000" fill="#F8F8F8" fill-opacity="0.75"/>
</g>
<defs>
<clipPath id="clip0_46_529">
<rect width="5000" height="5000" fill="white"/>
</clipPath>
</defs>
</svg>
