<svg width="5000" height="5000" viewBox="0 0 5000 5000" fill="none" xmlns="http://www.w3.org/2000/svg">
<g clip-path="url(#clip0_46_249)">
<path d="M5000 0H0V5000H5000V0Z" fill="white"/>
<path d="M325.62 -212.88C380.21 -208.1 436.02 -217.28 489.57 -205.65C551.83 -192.13 607.65 -148.54 632.46 -89.8598C686 36.7402 594.86 292.7 659.63 315.29C724.4 337.88 740.52 197.95 780.96 139.28C797.69 115.01 815.51 89.7602 841.81 76.4402C899.45 47.2402 967.2 86.7602 1017.25 127.63C1104.52 198.9 1184.17 279.5 1254.39 367.61C1272.85 390.77 1291.65 417.97 1287.49 447.3C1281.9 486.68 1239.43 507.82 1202.64 522.92C1094.42 567.32 892.07 661.11 916.87 717.52C941.66 773.92 990.17 712.98 1023.47 695.03C1076.17 666.62 1134.57 644.24 1194.34 647.77C1254.11 651.3 1315 686.01 1334.77 742.52C1344 768.92 1343.81 797.6 1342.44 825.54C1337.62 924.47 1319.44 1022.75 1288.54 1116.86C1275.65 1156.12 1258.77 1197.02 1224.79 1220.54C1158.84 1266.18 1067.11 1223.35 1009.9 1167.13C994.26 1151.76 979.12 1135.05 959.36 1125.55C939.6 1116.06 913.41 1115.75 898.03 1131.38C882 1147.66 883.72 1175.57 896.09 1194.78C908.46 1213.99 928.9 1226.31 949.09 1237.01C996.7 1262.23 1052.48 1288.31 1067.34 1340.1C1078.26 1378.14 1062.16 1419.82 1035.88 1449.4C1009.6 1478.98 974.35 1498.83 939.8 1518.12C907.68 1536.05 875.57 1553.98 843.45 1571.92C819.63 1585.22 794.82 1598.83 767.61 1600.83C740.4 1602.83 710.03 1589.73 701.01 1563.98C687.97 1526.77 723.32 1482.72 704.22 1448.23C686.63 1416.46 634.99 1422.95 611.73 1450.83C588.47 1478.71 584.93 1517.45 580.03 1553.43C575.14 1589.41 565.7 1628.66 536.05 1649.63C493.06 1680.04 432.94 1655.78 390.94 1624.01C362.61 1602.58 335.89 1576.71 323.36 1543.47C307.93 1502.53 316.31 1456.07 333.37 1415.78C349.38 1377.99 373.08 1342.14 376.78 1301.27C380.48 1260.4 352.77 1212.34 311.79 1214.37C268.01 1216.54 247.88 1267.64 223.65 1304.16C186.65 1359.93 106.89 1392.31 50.1298 1356.85C20.6598 1338.44 2.99981 1306.33 -12.1902 1275.07C-42.1802 1213.34 -67.5402 1149.36 -87.9902 1083.84C-100.37 1044.17 -106.53 991.56 -71.1702 969.73C-38.4402 949.53 2.84982 972.66 41.1598 975.98C95.6598 980.7 145.91 942.71 175.95 896.99C193.5 870.28 206.46 838.84 203.24 807.05C200.02 775.26 176.91 744.08 145.27 739.61C98.6298 733.02 64.4998 780.86 22.7398 802.67C-22.4802 826.29 -76.9902 818.5 -127.31 810.12C-158.27 804.96 -190.77 799.13 -215.11 779.32C-254.22 747.49 -260.07 690.47 -258.01 640.09C-253.93 539.9 -230.52 440.53 -189.43 349.06C-180.35 328.84 -168.66 307.33 -147.99 299.31C-129.34 292.06 -108.35 297.84 -89.5702 304.75C-22.4102 329.45 39.4698 368.4 90.7898 418.27C106.43 433.47 121.72 450.1 141.87 458.42C162.02 466.75 188.9 463.8 200.66 445.44C216.04 421.43 197.59 390.69 179.82 368.38C127 302.1 74.1998 235.81 21.3898 169.52C1.4498 144.48 -19.2202 117.83 -23.8502 86.1602C-28.5902 53.7202 -15.6902 21.5202 -2.0202 -8.26978C36.0598 -91.2798 81.3998 -177.08 138.69 -248.65C169.97 -287.72 175.33 -284.66 213.88 -259.61C250.8 -235.63 279.6 -216.9 325.62 -212.88Z" fill="#FE674C"/>
<path d="M363.78 195.14C426.75 293.3 602.73 802.69 647.49 1167.92C660.04 1270.33 662.27 1361.4 648.8 1428.9" stroke="#F5F5ED" stroke-width="16.3043" stroke-miterlimit="10" stroke-linecap="round" stroke-linejoin="round"/>
<path d="M856.87 945.6C856.87 945.6 736.92 1011.81 647.49 1167.92" stroke="#F5F5ED" stroke-width="16.3043" stroke-miterlimit="10" stroke-linecap="round" stroke-linejoin="round"/>
<path d="M753.4 507.76C753.4 507.76 577.33 692.15 579.21 818.62" stroke="#F5F5ED" stroke-width="16.3043" stroke-miterlimit="10" stroke-linecap="round" stroke-linejoin="round"/>
<path d="M175.09 603.3C175.09 603.3 459.79 637.52 593.08 875.43" stroke="#F5F5ED" stroke-width="16.3043" stroke-miterlimit="10" stroke-linecap="round" stroke-linejoin="round"/>
<path d="M375.59 974.51C375.59 974.51 545.41 956.18 642.88 1132.99" stroke="#F5F5ED" stroke-width="16.3043" stroke-miterlimit="10" stroke-linecap="round" stroke-linejoin="round"/>
<path d="M325.62 4787.12C380.21 4791.9 436.02 4782.72 489.57 4794.35C551.83 4807.87 607.65 4851.46 632.46 4910.14C686 5036.74 594.86 5292.7 659.63 5315.29C724.4 5337.88 740.52 5197.95 780.96 5139.28C797.69 5115.01 815.51 5089.76 841.81 5076.44C899.45 5047.24 967.2 5086.76 1017.25 5127.63C1104.52 5198.9 1184.17 5279.5 1254.39 5367.61C1272.85 5390.77 1291.65 5417.97 1287.49 5447.3C1281.9 5486.68 1239.43 5507.82 1202.64 5522.92C1094.42 5567.32 892.07 5661.11 916.87 5717.52C941.66 5773.92 990.17 5712.98 1023.47 5695.03C1076.17 5666.62 1134.57 5644.24 1194.34 5647.77C1254.11 5651.3 1315 5686.01 1334.77 5742.52C1344 5768.92 1343.81 5797.6 1342.44 5825.54C1337.62 5924.47 1319.44 6022.75 1288.54 6116.86C1275.65 6156.12 1258.77 6197.02 1224.79 6220.54C1158.84 6266.18 1067.11 6223.35 1009.9 6167.13C994.26 6151.76 979.12 6135.05 959.36 6125.55C939.6 6116.06 913.41 6115.75 898.03 6131.38C882 6147.67 883.72 6175.57 896.09 6194.78C908.46 6213.99 928.9 6226.31 949.09 6237.01C996.7 6262.23 1052.48 6288.31 1067.34 6340.1C1078.26 6378.14 1062.16 6419.82 1035.88 6449.4C1009.6 6478.98 974.35 6498.83 939.8 6518.12C907.68 6536.05 875.57 6553.98 843.45 6571.92C819.63 6585.22 794.82 6598.83 767.61 6600.83C740.4 6602.83 710.03 6589.73 701.01 6563.98C687.97 6526.77 723.32 6482.72 704.22 6448.23C686.63 6416.46 634.99 6422.95 611.73 6450.83C588.47 6478.71 584.93 6517.45 580.03 6553.43C575.13 6589.41 565.7 6628.66 536.05 6649.63C493.06 6680.04 432.94 6655.78 390.94 6624.01C362.61 6602.58 335.89 6576.71 323.36 6543.47C307.93 6502.53 316.31 6456.07 333.37 6415.78C349.38 6377.99 373.08 6342.14 376.78 6301.27C380.48 6260.4 352.77 6212.34 311.79 6214.37C268.01 6216.54 247.88 6267.64 223.65 6304.16C186.65 6359.93 106.89 6392.31 50.1298 6356.85C20.6598 6338.44 2.99981 6306.33 -12.1902 6275.07C-42.1802 6213.34 -67.5402 6149.36 -87.9902 6083.84C-100.37 6044.17 -106.53 5991.56 -71.1702 5969.73C-38.4402 5949.52 2.84982 5972.66 41.1598 5975.98C95.6598 5980.7 145.91 5942.71 175.95 5896.99C193.5 5870.28 206.46 5838.84 203.24 5807.05C200.02 5775.26 176.91 5744.08 145.27 5739.61C98.6298 5733.02 64.4998 5780.86 22.7398 5802.67C-22.4802 5826.29 -76.9902 5818.5 -127.31 5810.12C-158.27 5804.96 -190.77 5799.13 -215.11 5779.32C-254.22 5747.49 -260.07 5690.47 -258.01 5640.09C-253.93 5539.9 -230.52 5440.53 -189.43 5349.06C-180.35 5328.84 -168.66 5307.33 -147.99 5299.31C-129.34 5292.06 -108.35 5297.84 -89.5702 5304.75C-22.4102 5329.45 39.4698 5368.4 90.7898 5418.27C106.43 5433.47 121.72 5450.1 141.87 5458.42C162.02 5466.74 188.9 5463.8 200.66 5445.44C216.04 5421.43 197.59 5390.69 179.82 5368.38C127 5302.1 74.1998 5235.81 21.3898 5169.52C1.4498 5144.48 -19.2202 5117.83 -23.8502 5086.16C-28.5902 5053.72 -15.6902 5021.52 -2.0202 4991.72C36.0598 4908.71 81.3998 4822.91 138.69 4751.34C169.97 4712.27 175.33 4715.33 213.88 4740.38C250.8 4764.37 279.6 4783.1 325.62 4787.12Z" fill="#FE674C"/>
<path d="M2298.29 -677.04C2331.89 -644.8 2373.74 -621.15 2403 -584.92C2437.02 -542.8 2450.76 -484.21 2435.94 -432.13C2403.96 -319.78 2207.27 -198.84 2238.12 -149.38C2268.97 -99.9199 2354.19 -184 2412.22 -201.31C2436.23 -208.47 2461.47 -215.7 2485.98 -210.51C2539.7 -199.14 2563.52 -136.89 2574.89 -83.17C2594.72 10.51 2604.53 106.3 2604.09 202.06C2603.98 227.23 2601.94 255.26 2583.56 272.46C2558.88 295.56 2519.5 286.94 2487.09 277.34C2391.78 249.1 2207.83 203.42 2194.2 253.98C2180.57 304.54 2245.16 290.02 2276.77 295.87C2326.8 305.13 2377.39 321.42 2415.09 355.59C2452.79 389.76 2474.62 445.18 2457.61 493.13C2449.66 515.53 2434.25 534.42 2418.47 552.19C2362.58 615.13 2298.19 670.52 2227.61 716.39C2198.16 735.52 2165.2 753.62 2130.17 751.09C2062.19 746.19 2024.26 668.96 2016.32 601.26C2014.15 582.75 2013.03 563.62 2005 546.81C1996.97 530 1979.79 515.85 1961.29 518C1942 520.25 1928.27 539.64 1926.23 558.95C1924.19 578.26 1931.16 597.31 1938.83 615.15C1956.92 657.21 1979.97 704.19 1962.22 746.4C1949.19 777.4 1916.33 796.43 1883.17 802.02C1850.01 807.61 1816.1 801.98 1782.95 796.35C1752.13 791.12 1721.31 785.88 1690.49 780.65C1667.63 776.77 1643.95 772.56 1624.87 759.4C1605.78 746.23 1592.66 721.38 1600.4 699.52C1611.59 667.94 1658.45 657.6 1664.18 624.58C1669.46 594.17 1631.81 570.96 1601.55 577.03C1571.29 583.1 1548.32 606.87 1525.91 628.09C1503.5 649.31 1476.34 670.27 1445.54 668.37C1400.87 665.6 1373.99 617.52 1363.1 574.11C1355.75 544.83 1351.84 513.46 1361.25 484.78C1372.84 449.45 1403.13 423.15 1435.9 405.56C1466.63 389.06 1501.42 377.95 1525.64 352.86C1549.86 327.77 1557.11 281.19 1528.89 260.7C1498.75 238.82 1458.19 261.93 1422.69 273.21C1368.48 290.43 1298.42 269.39 1279.72 215.67C1270.01 187.78 1275.42 157.11 1282.02 128.33C1295.05 71.48 1312.33 15.6 1333.69 -38.67C1346.62 -71.53 1370.57 -109.65 1405.61 -105.28C1438.04 -101.23 1453.06 -63.9099 1476.66 -41.2999C1510.24 -9.13993 1563.74 -7.53994 1607.99 -21.8099C1633.83 -30.1499 1659.16 -44.06 1673.97 -66.83C1688.78 -89.6 1690.07 -122.55 1671.5 -142.37C1644.12 -171.58 1596.04 -158.08 1556.78 -165.88C1514.25 -174.33 1482.31 -208.52 1453.45 -240.88C1435.7 -260.79 1417.28 -281.96 1411.72 -308.05C1402.78 -349.96 1429.28 -390.83 1457.47 -423.1C1513.54 -487.27 1581.97 -540.6 1657.91 -579.28C1674.7 -587.83 1693.89 -595.85 1711.85 -590.15C1728.06 -585.01 1738.88 -570.01 1747.64 -555.43C1778.96 -503.3 1799.19 -444.54 1806.6 -384.18C1808.86 -365.79 1810.13 -346.63 1819.04 -330.38C1827.95 -314.13 1847.32 -301.76 1864.88 -307.66C1887.86 -315.37 1892.01 -345.55 1892.12 -369.79C1892.46 -441.81 1892.81 -513.83 1893.15 -585.85C1893.28 -613.05 1893.79 -641.71 1907.59 -665.15C1921.73 -689.15 1947.42 -703.61 1972.35 -716.06C2041.78 -750.74 2117.51 -783.41 2193.57 -800.28C2235.09 -809.49 2237.02 -804.6 2249.2 -767.49C2260.87 -731.96 2269.96 -704.21 2298.29 -677.04Z" fill="#FF7F40"/>
<path d="M2106.22 -386.53C2095.63 -287.99 1940.83 143.06 1775.92 408.75C1729.68 483.25 1682.65 544.74 1637.77 582.26" stroke="#F5F5ED" stroke-width="16.3043" stroke-miterlimit="10" stroke-linecap="round" stroke-linejoin="round"/>
<path d="M2032.99 373.06C2032.99 373.06 1918.29 353.01 1775.93 408.75" stroke="#F5F5ED" stroke-width="16.3043" stroke-miterlimit="10" stroke-linecap="round" stroke-linejoin="round"/>
<path d="M2197.7 28.02C2197.7 28.02 1982.89 56.33 1916.77 141.08" stroke="#F5F5ED" stroke-width="16.3043" stroke-miterlimit="10" stroke-linecap="round" stroke-linejoin="round"/>
<path d="M1763.87 -216.76C1763.87 -216.76 1934.17 -42.45 1895.7 186.09" stroke="#F5F5ED" stroke-width="16.3043" stroke-miterlimit="10" stroke-linecap="round" stroke-linejoin="round"/>
<path d="M1698.9 135.84C1698.9 135.84 1821.11 214.16 1791.48 383.16" stroke="#F5F5ED" stroke-width="16.3043" stroke-miterlimit="10" stroke-linecap="round" stroke-linejoin="round"/>
<path d="M2376.29 3912.86C2371.04 3878.82 2357.09 3846.13 2356.18 3811.7C2355.12 3771.67 2373.38 3731.08 2405.49 3707.16C2474.76 3655.54 2644.64 3672.89 2648.75 3629.98C2652.85 3587.07 2565.02 3598.16 2523.16 3582.24C2505.84 3575.66 2487.77 3568.56 2475.7 3554.49C2449.26 3523.67 2463.24 3476.4 2480.7 3439.74C2511.15 3375.81 2548.44 3315.13 2591.72 3259.08C2603.1 3244.35 2616.89 3228.8 2635.41 3226.95C2660.29 3224.47 2679.54 3247.23 2694.26 3267.44C2737.55 3326.86 2825.07 3436.35 2855.79 3412.78C2886.51 3389.21 2842.05 3368.71 2826.11 3351.07C2800.88 3323.15 2778.49 3290.85 2771.7 3253.84C2764.91 3216.83 2776.99 3174.46 2808.54 3153.94C2823.28 3144.35 2840.81 3140.18 2858.07 3136.84C2919.18 3124.99 2981.89 3121.39 3043.96 3126.17C3069.85 3128.16 3097.35 3132.35 3116.79 3149.58C3154.52 3183.01 3142.09 3245.42 3116.33 3288.74C3109.29 3300.59 3101.35 3312.33 3098.51 3325.81C3095.67 3339.3 3099.4 3355.32 3111.24 3362.37C3123.58 3369.72 3140.36 3364.5 3150.23 3354.07C3160.11 3343.64 3164.57 3329.32 3168.08 3315.4C3176.36 3282.56 3183.93 3244.62 3213.32 3227.8C3234.91 3215.45 3262.76 3219.04 3284.75 3230.65C3306.74 3242.27 3324.12 3260.82 3341.07 3279.02C3356.82 3295.94 3372.57 3312.87 3388.32 3329.79C3400 3342.34 3412.02 3355.45 3417.31 3371.76C3422.6 3388.07 3419.15 3408.57 3404.78 3417.93C3384.01 3431.45 3351.84 3416.47 3333.64 3433.28C3316.88 3448.77 3328.56 3479.32 3349.06 3489.35C3369.56 3499.38 3393.74 3495.75 3416.43 3493.35C3439.13 3490.95 3464.5 3490.85 3481.74 3505.81C3506.73 3527.51 3500.91 3567.83 3487.8 3598.22C3478.96 3618.72 3467.16 3638.9 3448.74 3651.52C3426.05 3667.07 3396.44 3668.9 3369.3 3664.51C3343.84 3660.39 3318.41 3651.29 3292.91 3655.14C3267.41 3658.99 3242.22 3683.09 3249.59 3707.81C3257.46 3734.21 3291.67 3738.86 3317.59 3748.19C3357.17 3762.44 3388.86 3806.28 3375.71 3846.23C3368.88 3866.97 3351.92 3882.56 3335.11 3896.5C3301.91 3924.04 3266.65 3949.09 3229.71 3971.38C3207.35 3984.87 3176.15 3996.5 3157.54 3978.18C3140.31 3961.22 3148.26 3932.56 3144.55 3908.67C3139.28 3874.69 3108.57 3849.71 3076.17 3838.21C3057.24 3831.49 3036.11 3828.29 3017.19 3835.01C2998.26 3841.73 2982.69 3860.5 2984.69 3880.49C2987.64 3909.95 3021.95 3923.63 3041.51 3945.85C3062.69 3969.92 3066.09 4004.36 3068.5 4036.33C3069.98 4056 3071.28 4076.71 3062.83 4094.53C3049.25 4123.17 3015.32 4135.26 2984.25 4141.55C2922.48 4154.05 2858.32 4154.62 2796.34 4143.21C2782.64 4140.69 2767.76 4136.77 2759.77 4125.36C2752.56 4115.06 2752.94 4101.38 2754.35 4088.88C2759.38 4044.19 2773.9 4000.59 2796.67 3961.8C2803.61 3949.98 2811.47 3938.16 2813.54 3924.61C2815.61 3911.06 2809.79 3895.09 2796.82 3890.66C2779.86 3884.86 2763.86 3900.73 2752.9 3914.91C2720.33 3957.06 2687.77 3999.21 2655.2 4041.36C2642.9 4057.28 2629.72 4073.88 2611.08 4081.45C2591.99 4089.2 2570.4 4086.14 2550.17 4082.25C2493.8 4071.42 2434.64 4056.58 2382.39 4032.31C2353.86 4019.06 2354.93 4015.33 2364.45 3988.05C2373.59 3961.93 2380.72 3941.55 2376.29 3912.86Z" fill="#FF7F40"/>
<path d="M2619.65 3828.53C2670.15 3775.41 2954.78 3591.79 3171.04 3509.84C3231.68 3486.86 3286.94 3471.88 3330.16 3470" stroke="#F5F5ED" stroke-width="12.0579" stroke-miterlimit="10" stroke-linecap="round" stroke-linejoin="round"/>
<path d="M3004.01 3415.29C3004.01 3415.29 3062.37 3478.61 3171.04 3509.85" stroke="#F5F5ED" stroke-width="12.0579" stroke-miterlimit="10" stroke-linecap="round" stroke-linejoin="round"/>
<path d="M2752.21 3543.93C2752.21 3543.93 2891.11 3623.83 2968.03 3603.77" stroke="#F5F5ED" stroke-width="12.0579" stroke-miterlimit="10" stroke-linecap="round" stroke-linejoin="round"/>
<path d="M2897.03 3882.67C2897.03 3882.67 2875.33 3703.76 3000.63 3586.81" stroke="#F5F5ED" stroke-width="12.0579" stroke-miterlimit="10" stroke-linecap="round" stroke-linejoin="round"/>
<path d="M3093.65 3704.75C3093.65 3704.75 3057.06 3603.83 3150.41 3517.88" stroke="#F5F5ED" stroke-width="12.0579" stroke-miterlimit="10" stroke-linecap="round" stroke-linejoin="round"/>
<path d="M629.3 2890.93C665.42 2939.13 713.85 2978.08 743.59 3030.45C778.17 3091.33 783.41 3168.99 753.57 3232.33C689.18 3368.98 412.82 3482.05 441.81 3551.63C470.8 3621.21 597.18 3531.81 674.86 3521.9C707 3517.8 740.73 3513.88 770.92 3525.64C837.09 3551.42 854.41 3635.85 857.65 3706.79C863.3 3830.49 855.71 3954.79 835.07 4076.88C829.64 4108.98 821.16 4144.31 794.11 4162.41C757.78 4186.71 709.33 4167.45 669.99 4148.39C554.29 4092.35 329.15 3995.47 301.15 4057.12C273.16 4118.77 358.62 4113.8 397.72 4127.89C459.62 4150.2 520.76 4181.6 561.69 4233.12C602.62 4284.64 618.86 4359.94 587.08 4417.56C572.24 4444.48 548.61 4465.35 524.74 4484.72C440.21 4553.31 346.43 4610.48 246.73 4654.2C205.14 4672.44 159.28 4688.61 115.11 4678.03C29.3999 4657.51 -2.80009 4551 1.27991 4462.95C2.39991 4438.88 4.97995 4414.23 -1.74005 4391.09C-8.46005 4367.95 -27.41 4346.29 -51.48 4345.16C-76.56 4343.98 -98.1501 4365.85 -104.81 4390.06C-111.47 4414.27 -106.57 4440.04 -100.52 4464.41C-86.2601 4521.88 -66.7101 4586.66 -98.2101 4636.8C-121.34 4673.63 -167.27 4691.01 -210.75 4691.19C-254.23 4691.37 -296.32 4677.06 -337.45 4662.92C-375.68 4649.78 -413.91 4636.63 -452.13 4623.49C-480.49 4613.74 -509.82 4603.41 -531.41 4582.6C-553 4561.79 -564.54 4527.33 -550.07 4501.06C-529.16 4463.1 -467.19 4459.74 -452.96 4418.82C-439.85 4381.12 -483.02 4343.61 -522.91 4345.01C-562.8 4346.41 -597.1 4371.91 -630.14 4394.29C-663.19 4416.67 -702.24 4437.72 -741.15 4428.82C-797.57 4415.92 -821.78 4348.92 -826.57 4291.24C-829.8 4252.33 -828.21 4211.49 -810.19 4176.86C-787.99 4134.2 -743.81 4107.01 -698.32 4091.43C-655.65 4076.83 -608.92 4069.95 -572.75 4043.01C-536.58 4016.07 -517.55 3958.16 -549.27 3926.09C-583.14 3891.84 -639.74 3912.83 -687.41 3919.77C-760.2 3930.37 -845.18 3888.82 -857.77 3816.35C-864.31 3778.73 -850.97 3740.72 -836.51 3705.38C-807.96 3635.57 -774.18 3567.89 -735.54 3503.11C-712.15 3463.89 -673.59 3420.27 -629.79 3433.21C-589.25 3445.19 -577.92 3495.95 -552.54 3529.76C-516.44 3577.84 -448.5 3591.12 -389.05 3582.18C-354.32 3576.96 -319.08 3564.52 -295.41 3538.57C-271.74 3512.62 -263.17 3470.84 -282.71 3441.66C-311.51 3398.64 -375.7 3405.78 -424.17 3387.59C-476.66 3367.89 -510.25 3317.56 -540.29 3270.21C-558.77 3241.08 -577.82 3210.2 -579.45 3175.75C-582.06 3120.39 -539.68 3073.8 -496.92 3038.54C-411.91 2968.42 -313.39 2914.73 -208.38 2881.3C-185.17 2873.91 -158.99 2867.71 -137.27 2878.74C-117.66 2888.7 -107 2910.12 -98.8801 2930.56C-69.8601 3003.65 -56.3701 3082.87 -59.5701 3161.45C-60.5501 3185.39 -62.9501 3210.11 -54.9901 3232.71C-47.0301 3255.31 -24.9101 3275.16 -1.26007 3271.33C29.6799 3266.32 41.3099 3228.67 46.5399 3197.77C62.0899 3105.94 77.6399 3014.11 93.1899 2922.28C99.0599 2887.6 105.73 2851.13 128.26 2824.12C151.34 2796.46 187.16 2783.4 221.57 2772.75C317.45 2743.06 420.93 2717.26 521.53 2711.69C576.45 2708.65 577.88 2715.29 585.64 2765.21C593.08 2813.01 598.87 2850.31 629.3 2890.93Z" fill="#FF7F40"/>
<path d="M323.27 3221.34C289.08 3344.86 1.10001 3862.42 -265.07 4166.86C-339.7 4252.22 -412.63 4320.82 -477.76 4359.29" stroke="#F5F5ED" stroke-width="21.0846" stroke-miterlimit="10" stroke-linecap="round" stroke-linejoin="round"/>
<path d="M70.4399 4175.25C70.4399 4175.25 -71.7101 4125.6 -265.08 4166.85" stroke="#F5F5ED" stroke-width="21.0846" stroke-miterlimit="10" stroke-linecap="round" stroke-linejoin="round"/>
<path d="M353.02 3769.53C353.02 3769.53 72.9701 3760.59 -29.1899 3854.86" stroke="#F5F5ED" stroke-width="21.0846" stroke-miterlimit="10" stroke-linecap="round" stroke-linejoin="round"/>
<path d="M5629.3 2890.93C5665.42 2939.13 5713.85 2978.08 5743.59 3030.45C5778.17 3091.33 5783.41 3168.99 5753.57 3232.33C5689.18 3368.98 5412.82 3482.05 5441.81 3551.63C5470.8 3621.21 5597.18 3531.81 5674.86 3521.9C5707 3517.8 5740.73 3513.88 5770.92 3525.64C5837.09 3551.42 5854.41 3635.85 5857.65 3706.79C5863.3 3830.49 5855.71 3954.79 5835.07 4076.88C5829.64 4108.98 5821.16 4144.31 5794.11 4162.41C5757.78 4186.71 5709.33 4167.45 5669.99 4148.39C5554.29 4092.35 5329.14 3995.47 5301.15 4057.12C5273.16 4118.77 5358.62 4113.8 5397.72 4127.89C5459.62 4150.2 5520.76 4181.6 5561.69 4233.12C5602.62 4284.63 5618.86 4359.94 5587.08 4417.56C5572.23 4444.48 5548.61 4465.35 5524.74 4484.72C5440.21 4553.31 5346.43 4610.48 5246.73 4654.2C5205.14 4672.44 5159.28 4688.61 5115.11 4678.03C5029.39 4657.51 4997.19 4551 5001.27 4462.95C5002.39 4438.88 5004.97 4414.23 4998.25 4391.09C4991.53 4367.95 4972.58 4346.29 4948.51 4345.16C4923.43 4343.98 4901.84 4365.85 4895.18 4390.06C4888.52 4414.27 4893.42 4440.04 4899.47 4464.41C4913.73 4521.88 4933.28 4586.66 4901.78 4636.8C4878.65 4673.63 4832.72 4691.01 4789.24 4691.19C4745.76 4691.37 4703.67 4677.06 4662.54 4662.92C4624.31 4649.78 4586.08 4636.63 4547.86 4623.49C4519.5 4613.74 4490.17 4603.41 4468.58 4582.6C4446.99 4561.79 4435.45 4527.33 4449.92 4501.06C4470.83 4463.1 4532.8 4459.74 4547.03 4418.82C4560.14 4381.12 4516.97 4343.61 4477.08 4345.01C4437.19 4346.41 4402.89 4371.91 4369.85 4394.29C4336.8 4416.67 4297.75 4437.72 4258.84 4428.82C4202.42 4415.92 4178.21 4348.92 4173.42 4291.24C4170.19 4252.33 4171.78 4211.49 4189.8 4176.86C4212 4134.2 4256.18 4107.01 4301.67 4091.43C4344.34 4076.83 4391.07 4069.95 4427.24 4043.01C4463.41 4016.07 4482.44 3958.16 4450.72 3926.09C4416.85 3891.84 4360.25 3912.83 4312.58 3919.77C4239.79 3930.37 4154.81 3888.82 4142.22 3816.35C4135.68 3778.73 4149.02 3740.72 4163.48 3705.38C4192.03 3635.57 4225.81 3567.89 4264.45 3503.11C4287.84 3463.89 4326.4 3420.27 4370.2 3433.21C4410.74 3445.19 4422.07 3495.95 4447.45 3529.76C4483.55 3577.84 4551.49 3591.12 4610.94 3582.18C4645.67 3576.96 4680.91 3564.52 4704.58 3538.57C4728.25 3512.62 4736.82 3470.84 4717.28 3441.66C4688.48 3398.64 4624.29 3405.78 4575.82 3387.59C4523.33 3367.89 4489.74 3317.56 4459.7 3270.21C4441.22 3241.08 4422.17 3210.2 4420.54 3175.75C4417.92 3120.39 4460.31 3073.8 4503.07 3038.54C4588.08 2968.42 4686.6 2914.73 4791.61 2881.3C4814.82 2873.91 4841 2867.71 4862.72 2878.74C4882.33 2888.7 4892.99 2910.12 4901.11 2930.56C4930.13 3003.65 4943.62 3082.87 4940.42 3161.45C4939.44 3185.39 4937.04 3210.11 4945 3232.71C4952.96 3255.31 4975.08 3275.16 4998.73 3271.33C5029.67 3266.32 5041.3 3228.67 5046.53 3197.77C5062.08 3105.94 5077.63 3014.11 5093.18 2922.28C5099.05 2887.6 5105.72 2851.13 5128.25 2824.12C5151.33 2796.46 5187.15 2783.4 5221.56 2772.75C5317.44 2743.06 5420.92 2717.26 5521.52 2711.69C5576.44 2708.65 5577.87 2715.29 5585.63 2765.21C5593.08 2813.01 5598.87 2850.31 5629.3 2890.93Z" fill="#FF7F40"/>
<path d="M5323.27 3221.34C5289.08 3344.86 5001.1 3862.42 4734.93 4166.86C4660.3 4252.22 4587.37 4320.82 4522.24 4359.29" stroke="#F5F5ED" stroke-width="21.0846" stroke-miterlimit="10" stroke-linecap="round" stroke-linejoin="round"/>
<path d="M5070.44 4175.25C5070.44 4175.25 4928.29 4125.6 4734.92 4166.85" stroke="#F5F5ED" stroke-width="21.0846" stroke-miterlimit="10" stroke-linecap="round" stroke-linejoin="round"/>
<path d="M5353.02 3769.53C5353.02 3769.53 5072.97 3760.59 4970.81 3854.86" stroke="#F5F5ED" stroke-width="21.0846" stroke-miterlimit="10" stroke-linecap="round" stroke-linejoin="round"/>
<path d="M4850.78 3366.14C4850.78 3366.14 5031.52 3624.3 4934.48 3907.86" stroke="#F5F5ED" stroke-width="21.0846" stroke-miterlimit="10" stroke-linecap="round" stroke-linejoin="round"/>
<path d="M4693.89 3802.45C4693.89 3802.45 4833.41 3928.03 4760.13 4137.47" stroke="#F5F5ED" stroke-width="21.0846" stroke-miterlimit="10" stroke-linecap="round" stroke-linejoin="round"/>
<path d="M1663.78 2226.07C1628.38 2204.87 1587.57 2192.72 1555.13 2167.22C1517.42 2137.57 1493.96 2089.68 1496.46 2041.78C1501.86 1938.42 1647.82 1795.06 1611.39 1758.45C1574.96 1721.84 1517.99 1811.3 1471.3 1837.73C1451.98 1848.66 1431.61 1859.9 1409.41 1860.26C1360.76 1861.06 1327.88 1812.01 1307.44 1767.86C1271.79 1690.87 1244.37 1610.08 1225.81 1527.29C1220.93 1505.53 1217.15 1480.92 1229.61 1462.43C1246.35 1437.6 1282.07 1437.26 1311.96 1439.14C1399.87 1444.68 1567.77 1447.75 1569.54 1401.39C1571.31 1355.03 1518.4 1380.34 1489.94 1381.54C1444.9 1383.44 1397.98 1379.37 1358.67 1357.32C1319.35 1335.26 1289.54 1291.71 1294.75 1246.94C1297.19 1226.02 1306.76 1206.66 1316.87 1188.19C1352.69 1122.77 1397.35 1062.2 1449.24 1008.63C1470.89 986.28 1495.78 964.14 1526.53 959.39C1586.22 950.18 1634.25 1009.38 1654.49 1066.28C1660.02 1081.84 1664.78 1098.14 1675.04 1111.07C1685.3 1124 1702.93 1132.83 1718.49 1127.3C1734.7 1121.55 1742.73 1102.08 1740.67 1085C1738.61 1067.92 1728.83 1052.85 1718.67 1038.96C1694.73 1006.21 1665.53 970.2 1672.51 930.23C1677.63 900.88 1702.25 877.95 1729.78 866.56C1757.31 855.17 1787.71 853.33 1817.46 851.64C1845.11 850.06 1872.76 848.49 1900.42 846.91C1920.93 845.74 1942.21 844.69 1961.3 852.29C1980.39 859.89 1996.64 878.76 1994.28 899.16C1990.86 928.65 1952.43 946.85 1954.02 976.5C1955.48 1003.81 1992.58 1016.4 2017.52 1005.18C2042.45 993.95 2057.6 968.88 2072.75 946.12C2087.91 923.36 2107.22 899.89 2134.2 895.44C2173.33 888.99 2206.05 925.21 2224.04 960.55C2236.18 984.39 2245.76 1010.7 2243.3 1037.34C2240.28 1070.15 2219.31 1098.85 2194.5 1120.52C2171.22 1140.85 2143.38 1157.32 2127.42 1183.79C2111.46 1210.26 2114.41 1251.91 2142.84 1264.03C2173.2 1276.97 2203.66 1248.98 2232.09 1232.22C2275.5 1206.63 2340.17 1210.95 2366.95 1253.64C2380.85 1275.8 2382.24 1303.37 2382.24 1329.53C2382.23 1381.21 2378.35 1432.89 2370.65 1483.98C2365.98 1514.92 2352.84 1552.58 2321.71 1555.73C2292.9 1558.64 2272.55 1529.38 2247.69 1514.53C2212.33 1493.4 2165.8 1502.59 2130.41 1523.67C2109.74 1535.98 2090.61 1553.01 2082.33 1575.6C2074.05 1598.19 2079.44 1626.91 2099.4 1640.35C2128.82 1660.16 2167.68 1639 2203.13 1637.97C2241.53 1636.86 2275.88 1660.07 2307.2 1682.31C2326.47 1695.99 2346.56 1710.64 2356.53 1732.07C2372.54 1766.5 2357.74 1807.04 2339.77 1840.49C2304.04 1907 2255.48 1966.59 2197.55 2015.02C2184.74 2025.72 2169.75 2036.44 2153.11 2035.08C2138.09 2033.85 2125.78 2023.03 2115.33 2012.17C2077.97 1973.34 2048.88 1926.6 2030.54 1875.93C2024.95 1860.49 2020.07 1844.2 2009.16 1831.93C1998.25 1819.66 1979.08 1812.81 1965.07 1821.37C1946.75 1832.57 1949.13 1859.46 1953.83 1880.42C1967.78 1942.69 1981.73 2004.96 1995.67 2067.23C2000.94 2090.75 2006.17 2115.6 1998.88 2138.57C1991.42 2162.1 1972.08 2179.66 1953.02 2195.34C1899.91 2239.03 1840.97 2282.22 1778.62 2311.83C1744.58 2328 1741.95 2324.16 1724.09 2294.51C1706.96 2266.1 1693.62 2243.94 1663.78 2226.07Z" fill="#FFB83A"/>
<path d="M1772.21 1937.18C1761.87 1849.98 1810.31 1447.08 1900.2 1185C1925.4 1111.51 1953.86 1049.1 1985.2 1007.82" stroke="#F5F5ED" stroke-width="16.3043" stroke-miterlimit="10" stroke-linecap="round" stroke-linejoin="round"/>
<path d="M1685.23 1266.66C1685.23 1266.66 1788.26 1261.29 1900.19 1185" stroke="#F5F5ED" stroke-width="16.3043" stroke-miterlimit="10" stroke-linecap="round" stroke-linejoin="round"/>
<path d="M1611.21 1597.24C1611.21 1597.24 1791.14 1530.3 1831.48 1444.03" stroke="#F5F5ED" stroke-width="16.3043" stroke-miterlimit="10" stroke-linecap="round" stroke-linejoin="round"/>
<path d="M2034.31 1722.85C2034.31 1722.85 1852.76 1605.99 1840.78 1400.99" stroke="#F5F5ED" stroke-width="16.3043" stroke-miterlimit="10" stroke-linecap="round" stroke-linejoin="round"/>
<path d="M2020.69 1405.47C2020.69 1405.47 1899.65 1362 1891.82 1210.18" stroke="#F5F5ED" stroke-width="16.3043" stroke-miterlimit="10" stroke-linecap="round" stroke-linejoin="round"/>
<path d="M4900.38 1351.51C4912.13 1396.17 4935.3 1437.82 4941.31 1483.61C4948.3 1536.84 4929.62 1593.53 4890.14 1629.91C4804.96 1708.41 4575.99 1708.98 4576.5 1766.78C4577.02 1824.58 4692.6 1797.54 4750.65 1812.92C4774.67 1819.28 4799.76 1826.23 4817.81 1843.3C4857.38 1880.71 4845.32 1945.7 4827.15 1997.03C4795.46 2086.54 4754.2 2172.66 4704.3 2253.45C4691.18 2274.69 4674.96 2297.34 4650.51 2302.39C4617.68 2309.17 4588.82 2281.5 4566.37 2256.61C4500.34 2183.41 4368.35 2049.6 4330.67 2085.32C4292.99 2121.04 4355.14 2142.17 4378.86 2163.47C4416.4 2197.19 4450.77 2237.14 4464.98 2285.55C4479.19 2333.96 4468.99 2392.15 4429.79 2423.91C4411.47 2438.75 4388.67 2446.76 4366.12 2453.63C4286.27 2477.97 4203.14 2491.52 4119.7 2493.8C4084.89 2494.75 4047.64 2493.01 4019.31 2472.75C3964.33 2433.43 3972.2 2348.47 4000.51 2287.09C4008.25 2270.31 4017.2 2253.54 4019.1 2235.16C4021 2216.78 4013.79 2195.92 3997.02 2188.17C3979.54 2180.09 3957.89 2189.4 3946.18 2204.68C3934.46 2219.96 3930.51 2239.68 3927.77 2258.74C3921.31 2303.69 3916.51 2355.35 3879.66 2381.88C3852.6 2401.37 3814.95 2400.46 3784.01 2388.04C3753.06 2375.62 3727.29 2353.31 3702.15 2331.39C3678.78 2311.02 3655.42 2290.65 3632.05 2270.28C3614.72 2255.17 3596.86 2239.36 3587.53 2218.35C3578.2 2197.33 3579.95 2169.52 3597.8 2155.03C3623.61 2134.1 3668.6 2149.59 3690.53 2124.63C3710.72 2101.63 3690.88 2062.52 3662.14 2052C3633.4 2041.48 3601.67 2049.7 3571.73 2056.06C3541.79 2062.42 3507.97 2066.1 3482.9 2048.56C3446.54 2023.11 3448.68 1968.52 3461.92 1926.17C3470.85 1897.6 3483.77 1869.04 3506.57 1849.64C3534.65 1825.74 3573.89 1819.17 3610.71 1821.24C3645.24 1823.18 3680.42 1831.78 3713.9 1823.08C3747.37 1814.38 3777.6 1778.73 3764.33 1746.79C3750.15 1712.68 3703.88 1711.26 3668.01 1702.43C3613.24 1688.95 3564.86 1634.91 3576.82 1579.79C3583.03 1551.17 3603.48 1528.02 3623.95 1507.08C3664.38 1465.72 3707.91 1427.39 3754.06 1392.52C3782 1371.41 3821.98 1351.54 3849.36 1373.38C3874.7 1393.59 3868.1 1432.93 3876.38 1464.26C3888.15 1508.84 3932.59 1537.88 3977.4 1548.69C4003.58 1555.01 4032.21 1556.34 4056.51 1544.73C4080.81 1533.13 4098.96 1505.92 4093.5 1479.55C4085.45 1440.67 4037.79 1427.22 4008.6 1400.31C3976.99 1371.16 3967.65 1325.71 3959.98 1283.41C3955.26 1257.38 3950.63 1229.95 3959.42 1205C3973.54 1164.92 4017.1 1144.05 4057.65 1131.33C4138.28 1106.04 4223.77 1096.33 4308.02 1102.89C4326.64 1104.34 4347.03 1107.49 4359.28 1121.6C4370.34 1134.33 4371.73 1152.63 4371.6 1169.49C4371.13 1229.8 4357.84 1289.97 4332.89 1344.87C4325.29 1361.6 4316.45 1378.46 4315.58 1396.82C4314.71 1415.18 4324.7 1435.66 4342.61 1439.76C4366.04 1445.13 4385.17 1421.74 4397.8 1401.29C4435.35 1340.54 4472.9 1279.78 4510.45 1219.03C4524.63 1196.08 4539.89 1172.1 4563.69 1159.41C4588.07 1146.42 4617.29 1147.48 4644.81 1149.84C4721.49 1156.42 4802.46 1167.96 4875.54 1193.03C4915.43 1206.72 4914.53 1211.85 4905.64 1249.55C4897.13 1285.69 4890.48 1313.86 4900.38 1351.51Z" fill="#FFB83A"/>
<path d="M4587.6 1497.92C4527.66 1575.81 4173.7 1860.4 3896.73 1999.87C3819.07 2038.97 3747.46 2066.67 3690.09 2075.2" stroke="#F5F5ED" stroke-width="18.2481" stroke-miterlimit="10" stroke-linecap="round" stroke-linejoin="round"/>
<path d="M4132.68 2102.67C4132.68 2102.67 4046.02 2026.37 3896.74 1999.87" stroke="#F5F5ED" stroke-width="18.2481" stroke-miterlimit="10" stroke-linecap="round" stroke-linejoin="round"/>
<path d="M4450.53 1895.97C4450.53 1895.97 4254.15 1808.79 4154.36 1846.29" stroke="#F5F5ED" stroke-width="18.2481" stroke-miterlimit="10" stroke-linecap="round" stroke-linejoin="round"/>
<path d="M4210.13 1464.43C4210.13 1464.43 4264.03 1700 4113.25 1873.45" stroke="#F5F5ED" stroke-width="18.2481" stroke-miterlimit="10" stroke-linecap="round" stroke-linejoin="round"/>
<path d="M3972.75 1729.14C3972.75 1729.14 4035.63 1858.62 3923.13 1986.27" stroke="#F5F5ED" stroke-width="18.2481" stroke-miterlimit="10" stroke-linecap="round" stroke-linejoin="round"/>
<path d="M2596.36 561.87C2635.92 548.91 2672.17 525.83 2713.05 517.97C2760.58 508.83 2812.59 522.62 2847.45 556.2C2922.65 628.66 2935.4 834.68 2987.39 831.13C3039.38 827.58 3008.86 725 3019.6 671.94C3024.04 649.99 3028.95 627.03 3043.35 609.87C3074.9 572.26 3134.03 579.64 3181.2 593.25C3263.45 616.98 3343.15 649.51 3418.52 690.1C3438.33 700.77 3459.59 714.16 3465.44 735.89C3473.29 765.07 3449.94 792.52 3428.74 814.05C3366.39 877.38 3253.04 1003.32 3287.2 1035.32C3321.36 1067.32 3337.05 1010.26 3354.96 987.78C3383.29 952.2 3417.41 919.13 3460.22 903.75C3503.03 888.37 3555.93 894.44 3586.61 928.02C3600.94 943.71 3609.37 963.8 3616.76 983.73C3642.93 1054.29 3659.57 1128.37 3666.09 1203.34C3668.81 1234.62 3669.23 1268.23 3652.51 1294.8C3620.06 1346.38 3543.19 1343.84 3486.44 1321.65C3470.93 1315.58 3455.36 1308.42 3438.72 1307.69C3422.08 1306.96 3403.7 1314.56 3397.62 1330.07C3391.29 1346.23 3400.82 1365.22 3415.2 1374.94C3429.58 1384.67 3447.54 1387.17 3464.84 1388.62C3505.63 1392.03 3552.38 1393.59 3578.23 1425.33C3597.21 1448.64 3598.41 1482.57 3588.89 1511.08C3579.36 1539.59 3560.66 1563.98 3542.29 1587.77C3525.21 1609.89 3508.12 1632 3491.04 1654.12C3478.37 1670.53 3465.1 1687.44 3446.69 1696.96C3428.28 1706.48 3403.15 1706.4 3389.16 1691.1C3368.94 1669 3380.48 1627.67 3356.84 1609.28C3335.07 1592.34 3300.93 1612.29 3293 1638.71C3285.07 1665.13 3294.17 1693.25 3301.49 1719.85C3308.81 1746.45 3313.94 1776.69 3299.49 1800.19C3278.53 1834.27 3229.29 1835.27 3190.47 1825.61C3164.28 1819.1 3137.89 1809 3119.21 1789.52C3096.2 1765.52 3088.19 1730.57 3088.08 1697.33C3087.98 1666.15 3093.83 1634.03 3084.22 1604.37C3074.61 1574.71 3040.9 1549.41 3012.87 1563.07C2982.93 1577.65 2984.13 1619.37 2978.1 1652.12C2968.9 1702.13 2922.85 1748.56 2872.61 1740.74C2846.53 1736.68 2824.6 1719.52 2804.66 1702.22C2765.28 1668.05 2728.46 1630.92 2694.61 1591.26C2674.12 1567.24 2654.1 1532.33 2672.29 1506.52C2689.12 1482.63 2724.87 1486.47 2752.63 1477.35C2792.11 1464.37 2815.87 1422.83 2823.21 1381.92C2827.49 1358.02 2827.16 1332.19 2815.42 1310.94C2803.68 1289.69 2778.22 1274.81 2754.78 1281.14C2720.23 1290.46 2710.67 1334.07 2688.01 1361.78C2663.47 1391.78 2623.07 1402.62 2585.41 1411.78C2562.24 1417.42 2537.8 1423.05 2514.88 1416.47C2478.05 1405.91 2456.95 1367.82 2443.34 1332.01C2416.27 1260.8 2402.97 1184.39 2404.36 1108.22C2404.67 1091.38 2406.41 1072.87 2418.45 1061.09C2429.32 1050.46 2445.71 1048.23 2460.89 1047.45C2515.18 1044.65 2570.05 1053.39 2620.79 1072.91C2636.25 1078.86 2651.9 1085.91 2668.46 1085.71C2685.02 1085.51 2702.92 1075.43 2705.66 1059.09C2709.24 1037.72 2687.17 1021.76 2668.09 1011.48C2611.41 980.94 2554.73 950.4 2498.05 919.85C2476.64 908.31 2454.25 895.87 2441.55 875.12C2428.55 853.88 2427.95 827.53 2428.6 802.63C2430.42 733.27 2436.48 659.79 2455.13 592.69C2465.32 556.06 2469.98 556.59 2504.39 562.58C2537.3 568.31 2563.02 572.79 2596.36 561.87Z" fill="#FE674C"/>
<path d="M2744.84 835.52C2818.14 885.3 3093.17 1188.61 3233.48 1430.4C3272.82 1498.2 3301.57 1561.15 3312.32 1612.33" stroke="#F5F5ED" stroke-width="12.3869" stroke-miterlimit="10" stroke-linecap="round" stroke-linejoin="round"/>
<path d="M3313.38 1212.58C3313.38 1212.58 3249.35 1294.65 3233.49 1430.41" stroke="#F5F5ED" stroke-width="12.3869" stroke-miterlimit="10" stroke-linecap="round" stroke-linejoin="round"/>
<path d="M3110.38 937.59C3110.38 937.59 3042.43 1118.98 3081.5 1206.77" stroke="#F5F5ED" stroke-width="12.3869" stroke-miterlimit="10" stroke-linecap="round" stroke-linejoin="round"/>
<path d="M2734.89 1177C2734.89 1177 2944 1115.9 3108.15 1242.31" stroke="#F5F5ED" stroke-width="12.3869" stroke-miterlimit="10" stroke-linecap="round" stroke-linejoin="round"/>
<path d="M2985.79 1376.47C2985.79 1376.47 3098.95 1312.96 3219.84 1407.38" stroke="#F5F5ED" stroke-width="12.3869" stroke-miterlimit="10" stroke-linecap="round" stroke-linejoin="round"/>
<path d="M4366.2 2658.23C4339.7 2640.02 4317.87 2615.05 4289.29 2600.33C4256.06 2583.22 4214.53 2582.13 4181.41 2599.43C4109.94 2636.76 4055.69 2786.63 4017.95 2772.69C3980.2 2758.75 4025.12 2689.39 4028.7 2647.74C4030.18 2630.51 4031.54 2612.43 4024.6 2596.59C4009.4 2561.87 3963.99 2554.48 3926.09 2554.3C3859.99 2554 3793.87 2560.77 3729.2 2574.45C3712.2 2578.05 3693.54 2583.34 3684.48 2598.17C3672.32 2618.08 3683.65 2643.5 3694.68 2664.06C3727.1 2724.54 3783.7 2842.49 3751.44 2858.77C3719.18 2875.05 3719.95 2829.36 3711.58 2808.81C3698.32 2776.29 3680.24 2744.37 3651.87 2723.67C3623.5 2702.97 3582.98 2695.96 3552.95 2714.17C3538.92 2722.68 3528.31 2735.73 3518.5 2748.89C3483.77 2795.47 3455.33 2846.74 3434.2 2900.87C3425.39 2923.45 3417.77 2948.27 3424.37 2971.59C3437.19 3016.86 3494.7 3031.69 3541.57 3027.59C3554.38 3026.47 3567.47 3024.55 3579.96 3027.63C3592.45 3030.71 3604.42 3040.34 3605.55 3053.15C3606.73 3066.5 3595.54 3078.49 3582.77 3082.57C3570 3086.65 3556.15 3084.6 3543.02 3081.91C3512.06 3075.56 3477.08 3066.56 3451.03 3084.45C3431.9 3097.59 3423.63 3122.47 3424.49 3145.66C3425.35 3168.86 3433.9 3190.99 3442.34 3212.61C3450.19 3232.71 3458.04 3252.81 3465.88 3272.91C3471.7 3287.82 3477.85 3303.24 3489.42 3314.3C3500.99 3325.36 3519.62 3330.76 3533.32 3322.47C3553.1 3310.49 3553.54 3277.37 3575.06 3268.88C3594.88 3261.06 3615.83 3283.26 3615.96 3304.57C3616.09 3325.88 3603.24 3344.73 3592.03 3362.84C3580.82 3380.95 3570.45 3402.24 3576.05 3422.8C3584.17 3452.61 3620.43 3464.05 3651.3 3465.34C3672.12 3466.21 3693.87 3464.47 3711.94 3454.1C3734.2 3441.32 3747.74 3417.17 3755.05 3392.56C3761.9 3369.48 3764.55 3344.41 3778.13 3324.53C3791.71 3304.65 3822.18 3293.23 3839.97 3309.44C3858.98 3326.75 3849.02 3357.4 3846.37 3382.97C3842.31 3422.02 3866.33 3466.43 3905.26 3471.56C3925.47 3474.22 3945.45 3466.28 3963.98 3457.79C4000.59 3441.03 4035.94 3421.53 4069.64 3399.51C4090.05 3386.17 4112.47 3364.66 4104.6 3341.58C4097.32 3320.22 4070 3315.29 4051.42 3302.5C4024.99 3284.3 4016.42 3248.36 4019.88 3216.45C4021.9 3197.81 4027.77 3178.75 4041.08 3165.56C4054.4 3152.37 4076.49 3146.88 4092.48 3156.66C4116.05 3171.08 4113.65 3205.47 4124.42 3230.92C4136.08 3258.49 4163.66 3275.3 4189.57 3290.28C4205.51 3299.5 4222.39 3308.98 4240.81 3309.09C4270.39 3309.27 4294.31 3285.64 4312.18 3262.07C4347.72 3215.2 4374.19 3161.48 4389.72 3104.74C4393.15 3092.2 4395.89 3078.1 4389.53 3066.76C4383.79 3056.52 4372.13 3051.3 4361.05 3047.42C4321.43 3033.54 4278.89 3028.09 4237.05 3031.51C4224.3 3032.55 4211.17 3034.38 4198.95 3030.63C4186.72 3026.88 4175.65 3015.52 4177.18 3002.82C4179.18 2986.21 4199 2979.18 4215.37 2975.71C4264 2965.41 4312.64 2955.1 4361.27 2944.8C4379.64 2940.91 4398.94 2936.56 4412.85 2923.95C4427.1 2911.04 4433.27 2891.65 4438.2 2873.06C4451.93 2821.28 4463.42 2765.52 4464.19 2711.75C4464.61 2682.39 4461.04 2681.78 4434.24 2678.73C4408.55 2675.84 4388.53 2673.57 4366.2 2658.23Z" fill="#FE674C"/>
<path d="M4196.69 2828.68C4131.56 2849.62 3861.84 3014.54 3705.31 3163.17C3661.42 3204.84 3626.43 3245.24 3607.34 3280.82" stroke="#F5F5ED" stroke-width="9.5644" stroke-miterlimit="10" stroke-linecap="round" stroke-linejoin="round"/>
<path d="M3693.48 2984.42C3693.48 2984.42 3723.07 3059.15 3705.31 3163.18" stroke="#F5F5ED" stroke-width="9.5644" stroke-miterlimit="10" stroke-linecap="round" stroke-linejoin="round"/>
<path d="M3903.67 2824.83C3903.67 2824.83 3914.58 2973.99 3866.53 3030.54" stroke="#F5F5ED" stroke-width="9.5644" stroke-miterlimit="10" stroke-linecap="round" stroke-linejoin="round"/>
<path d="M4129.81 3083.85C4129.81 3083.85 3988.17 2993.11 3839.06 3051.08" stroke="#F5F5ED" stroke-width="9.5644" stroke-miterlimit="10" stroke-linecap="round" stroke-linejoin="round"/>
<path d="M3900.55 3177.08C3900.55 3177.08 3830.52 3105.42 3720.43 3149.09" stroke="#F5F5ED" stroke-width="9.5644" stroke-miterlimit="10" stroke-linecap="round" stroke-linejoin="round"/>
<path d="M1089.11 2763.7C1136.26 2748.25 1179.45 2720.76 1228.17 2711.39C1284.81 2700.5 1346.79 2716.93 1388.33 2756.95C1477.94 2843.3 1493.14 3088.82 1555.1 3084.58C1617.05 3080.35 1580.69 2958.11 1593.48 2894.87C1598.77 2868.71 1604.62 2841.35 1621.78 2820.91C1659.38 2776.09 1729.84 2784.88 1786.05 2801.1C1884.06 2829.38 1979.05 2868.14 2068.86 2916.51C2092.47 2929.23 2117.8 2945.18 2124.77 2971.07C2134.13 3005.84 2106.3 3038.56 2081.03 3064.22C2006.73 3139.69 1871.64 3289.77 1912.35 3327.9C1953.06 3366.03 1971.76 3298.03 1993.09 3271.25C2026.86 3228.85 2067.51 3189.44 2118.52 3171.11C2169.53 3152.78 2232.58 3160.01 2269.14 3200.03C2286.22 3218.73 2296.26 3242.67 2305.07 3266.42C2336.26 3350.5 2356.09 3438.79 2363.85 3528.13C2367.09 3565.4 2367.59 3605.46 2347.67 3637.13C2309 3698.6 2217.39 3695.57 2149.77 3669.12C2131.28 3661.89 2112.73 3653.36 2092.9 3652.49C2073.07 3651.62 2051.16 3660.68 2043.92 3679.16C2036.37 3698.42 2047.73 3721.04 2064.86 3732.63C2081.99 3744.22 2103.4 3747.21 2124.01 3748.93C2172.62 3752.99 2228.33 3754.85 2259.14 3792.68C2281.76 3820.46 2283.19 3860.89 2271.84 3894.87C2260.49 3928.85 2238.2 3957.91 2216.3 3986.26C2195.94 4012.62 2175.59 4038.97 2155.23 4065.33C2140.13 4084.88 2124.32 4105.04 2102.37 4116.39C2080.43 4127.74 2050.49 4127.63 2033.81 4109.41C2009.72 4083.07 2023.47 4033.83 1995.3 4011.9C1969.35 3991.71 1928.67 4015.48 1919.22 4046.97C1909.77 4078.46 1920.61 4111.97 1929.34 4143.67C1938.07 4175.37 1944.17 4211.4 1926.95 4239.41C1901.98 4280.02 1843.3 4281.21 1797.03 4269.71C1765.82 4261.95 1734.37 4249.92 1712.11 4226.7C1684.69 4198.1 1675.14 4156.45 1675.01 4116.83C1674.89 4079.67 1681.87 4041.4 1670.4 4006.06C1658.94 3970.72 1618.77 3940.57 1585.37 3956.84C1549.7 3974.22 1551.12 4023.93 1543.94 4062.96C1532.98 4122.56 1478.1 4177.89 1418.23 4168.56C1387.15 4163.72 1361.01 4143.27 1337.26 4122.65C1290.33 4081.93 1246.45 4037.68 1206.11 3990.42C1181.69 3961.8 1157.84 3920.19 1179.51 3889.44C1199.57 3860.97 1242.17 3865.55 1275.25 3854.68C1322.3 3839.22 1350.62 3789.71 1359.36 3740.96C1364.47 3712.48 1364.07 3681.7 1350.08 3656.38C1336.09 3631.06 1305.75 3613.33 1277.82 3620.86C1236.64 3631.97 1225.25 3683.94 1198.25 3716.95C1169 3752.7 1120.86 3765.61 1075.98 3776.54C1048.37 3783.26 1019.24 3789.97 991.92 3782.13C948.03 3769.54 922.88 3724.16 906.66 3681.48C874.41 3596.62 858.55 3505.56 860.21 3414.79C860.58 3394.72 862.66 3372.66 877 3358.62C889.95 3345.95 909.48 3343.29 927.58 3342.36C992.28 3339.03 1057.66 3349.44 1118.13 3372.7C1136.55 3379.79 1155.2 3388.19 1174.94 3387.95C1194.68 3387.71 1216.01 3375.7 1219.27 3356.23C1223.53 3330.77 1197.23 3311.74 1174.5 3299.49C1106.95 3263.09 1039.41 3226.7 971.86 3190.3C946.35 3176.55 919.66 3161.72 904.53 3137C889.04 3111.68 888.32 3080.28 889.1 3050.61C891.27 2967.95 898.48 2880.39 920.72 2800.42C932.86 2756.76 938.42 2757.4 979.42 2764.54C1018.73 2771.37 1049.37 2776.71 1089.11 2763.7Z" fill="#FE674C"/>
<path d="M1266.06 3089.8C1353.41 3149.12 1681.16 3510.58 1848.37 3798.72C1895.25 3879.51 1929.52 3954.54 1942.32 4015.52" stroke="#F5F5ED" stroke-width="14.7614" stroke-miterlimit="10" stroke-linecap="round" stroke-linejoin="round"/>
<path d="M1943.58 3539.14C1943.58 3539.14 1867.28 3636.94 1848.37 3798.72" stroke="#F5F5ED" stroke-width="14.7614" stroke-miterlimit="10" stroke-linecap="round" stroke-linejoin="round"/>
<path d="M1701.66 3211.44C1701.66 3211.44 1620.68 3427.6 1667.25 3532.22" stroke="#F5F5ED" stroke-width="14.7614" stroke-miterlimit="10" stroke-linecap="round" stroke-linejoin="round"/>
<path d="M1254.19 3496.74C1254.19 3496.74 1503.38 3423.93 1699 3574.57" stroke="#F5F5ED" stroke-width="14.7614" stroke-miterlimit="10" stroke-linecap="round" stroke-linejoin="round"/>
<path d="M1553.19 3734.44C1553.19 3734.44 1688.04 3658.76 1832.1 3771.27" stroke="#F5F5ED" stroke-width="14.7614" stroke-miterlimit="10" stroke-linecap="round" stroke-linejoin="round"/>
<path d="M1012.72 4099.8C1037.21 4108.27 1063.87 4110.47 1087.1 4121.96C1114.1 4135.32 1134.7 4161.73 1139.34 4191.5C1149.35 4255.73 1078.12 4362.67 1105.23 4380.48C1132.34 4398.29 1155.82 4335.95 1181.12 4313.68C1191.59 4304.47 1202.66 4294.94 1216.26 4291.85C1246.06 4285.08 1272.59 4311 1290.86 4335.5C1322.7 4378.22 1349.97 4424.35 1372.06 4472.84C1377.87 4485.59 1383.36 4500.23 1378.09 4513.2C1371 4530.62 1349.09 4535.44 1330.47 4538.14C1275.72 4546.07 1172.12 4565.84 1177.01 4594.56C1181.9 4623.28 1211.16 4600.9 1228.5 4596.49C1255.94 4589.51 1285.3 4585.96 1312.31 4594.45C1339.32 4602.94 1363.27 4625.86 1365.84 4654.06C1367.04 4667.23 1363.65 4680.37 1359.82 4693.03C1346.24 4737.86 1326.6 4780.85 1301.61 4820.47C1291.19 4837 1278.74 4853.82 1260.45 4860.7C1224.95 4874.06 1187.79 4843.86 1168.01 4811.5C1162.6 4802.65 1157.58 4793.24 1149.6 4786.62C1141.62 4780 1129.65 4776.84 1120.8 4782.24C1111.58 4787.87 1109.16 4800.87 1112.62 4811.1C1116.09 4821.33 1124.05 4829.34 1132.08 4836.56C1151.02 4853.6 1173.61 4871.98 1174.48 4897.44C1175.12 4916.14 1162.94 4933.41 1147.49 4943.96C1132.04 4954.51 1113.59 4959.56 1095.52 4964.44C1078.73 4968.97 1061.93 4973.51 1045.14 4978.04C1032.68 4981.4 1019.74 4984.79 1007.02 4982.59C994.31 4980.38 981.88 4970.88 980.71 4958.03C979.01 4939.46 1000.28 4923.32 995.49 4905.3C991.07 4888.7 966.64 4885.74 952.76 4895.86C938.88 4905.98 932.81 4923.34 926.43 4939.28C920.05 4955.22 911.21 4972.14 895.2 4978.36C871.98 4987.37 847.2 4969.33 831.58 4949.93C821.05 4936.84 811.76 4921.9 809.84 4905.21C807.47 4884.65 816.65 4864.31 829.11 4847.79C840.8 4832.29 855.79 4818.58 862.18 4800.25C868.57 4781.93 861.39 4756.7 842.35 4752.92C822.02 4748.88 806.91 4770.01 791.59 4783.98C768.2 4805.31 727.9 4810.99 705.94 4788.2C694.54 4776.37 690.13 4759.61 686.75 4743.52C680.09 4711.75 675.81 4679.49 673.96 4647.09C672.84 4627.47 676.06 4602.63 694.79 4596.68C712.13 4591.17 728.41 4606.53 745.6 4612.46C770.06 4620.89 797.47 4609.24 816.51 4591.72C827.63 4581.49 837.19 4568.55 839.37 4553.6C841.55 4538.65 834.53 4521.69 820.53 4516C799.89 4507.61 778.74 4525.64 757.07 4530.84C733.61 4536.48 709.5 4526.64 687.38 4517.01C673.77 4511.08 659.53 4504.68 650.64 4492.79C636.36 4473.69 640.23 4446.87 646.96 4423.99C660.35 4378.5 682.51 4335.61 711.87 4298.37C718.36 4290.14 726.2 4281.62 736.6 4280.31C745.99 4279.13 754.95 4284.19 762.78 4289.52C790.75 4308.57 814.66 4333.55 832.47 4362.33C837.9 4371.1 843 4380.49 851.29 4386.62C859.58 4392.75 872.25 4394.5 879.75 4387.42C889.57 4378.17 884.63 4361.95 879.05 4349.68C862.45 4313.2 845.84 4276.73 829.24 4240.25C822.97 4226.47 816.55 4211.87 818.07 4196.81C819.62 4181.39 829.24 4168.1 838.94 4156C865.95 4122.3 896.61 4088.15 931.12 4061.9C949.96 4047.57 952.07 4049.59 966.87 4065.51C981.02 4080.76 992.08 4092.66 1012.72 4099.8Z" fill="#FFD662"/>
<path d="M983.33 4291.35C1000.93 4343.62 1023.11 4597.52 1001.66 4770.2C995.65 4818.62 986.2 4860.65 972.26 4890.07" stroke="#FE674C" stroke-width="9.0729" stroke-miterlimit="10" stroke-linecap="round" stroke-linejoin="round"/>
<path d="M1123.26 4692.29C1123.26 4692.29 1060.63 4708.88 1001.66 4770.21" stroke="#FE674C" stroke-width="9.0729" stroke-miterlimit="10" stroke-linecap="round" stroke-linejoin="round"/>
<path d="M1126.13 4479.55C1126.13 4479.55 1024.16 4543.9 1010.49 4602.13" stroke="#FE674C" stroke-width="9.0729" stroke-miterlimit="10" stroke-linecap="round" stroke-linejoin="round"/>
<path d="M849.86 4456.9C849.86 4456.9 976.53 4505.32 1010.32 4629.78" stroke="#FE674C" stroke-width="9.0729" stroke-miterlimit="10" stroke-linecap="round" stroke-linejoin="round"/>
<path d="M899.16 4650.23C899.16 4650.23 979.17 4661.34 1003.56 4753.65" stroke="#FE674C" stroke-width="9.0729" stroke-miterlimit="10" stroke-linecap="round" stroke-linejoin="round"/>
<path d="M383.74 1751.98C404.93 1770.17 430.76 1782.94 449.49 1803.66C471.26 1827.75 481.43 1862.38 474.28 1894.04C458.86 1962.36 345.11 2041.3 365.22 2069.89C385.33 2098.48 433.56 2045.32 467.73 2033.03C481.87 2027.95 496.74 2022.78 511.59 2025.08C544.13 2030.11 560.45 2066.59 569.04 2098.38C584.02 2153.81 593.07 2210.84 595.98 2268.18C596.75 2283.25 596.46 2300.1 586.02 2311.01C572.01 2325.66 548.15 2321.8 528.42 2317.13C470.42 2303.38 358.77 2282.13 352.29 2312.85C345.81 2343.57 384 2332.74 403.11 2335.19C433.37 2339.08 464.2 2347.15 487.9 2366.36C511.6 2385.57 526.51 2418.03 517.92 2447.3C513.9 2460.98 505.3 2472.79 496.44 2483.96C465.06 2523.5 428.35 2558.8 387.61 2588.6C370.61 2601.03 351.48 2612.96 330.42 2612.61C289.55 2611.93 264.29 2566.95 257.29 2526.68C255.38 2515.67 254.07 2504.25 248.71 2494.45C243.34 2484.65 232.59 2476.75 221.58 2478.65C210.11 2480.63 202.53 2492.7 201.95 2504.33C201.37 2515.96 206.17 2527.13 211.36 2537.56C223.59 2562.14 238.94 2589.5 229.72 2615.37C222.95 2634.36 203.9 2646.84 184.23 2651.29C164.56 2655.74 144.07 2653.49 124.04 2651.22C105.42 2649.11 86.79 2647 68.17 2644.89C54.35 2643.32 40.0399 2641.59 28.1799 2634.34C16.3199 2627.09 7.62995 2612.65 11.5399 2599.3C17.1899 2580.02 44.9099 2572.27 47.2399 2552.32C49.3899 2533.94 26.0799 2521.29 8.15994 2525.93C-9.76006 2530.57 -22.7201 2545.56 -35.4301 2559.01C-48.1401 2572.46 -63.7101 2585.91 -82.2101 2585.79C-109.05 2585.62 -126.73 2557.72 -134.69 2532.09C-140.06 2514.8 -143.44 2496.15 -138.76 2478.67C-132.99 2457.13 -115.73 2440.38 -96.6901 2428.76C-78.8401 2417.86 -58.3801 2410.06 -44.7101 2394.23C-31.0401 2378.4 -28.2401 2350.28 -45.8201 2338.94C-64.5901 2326.84 -88.1101 2342.02 -108.99 2349.95C-140.88 2362.06 -183.52 2351.78 -196.49 2320.24C-203.23 2303.87 -201.01 2285.32 -198.01 2267.87C-192.1 2233.4 -183.6 2199.37 -172.61 2166.17C-165.96 2146.07 -152.89 2122.45 -131.76 2123.91C-112.21 2125.26 -101.98 2147.11 -87.1001 2159.86C-65.9301 2178 -33.8401 2177.19 -7.83006 2167.17C7.36994 2161.32 22.0699 2152.15 30.1799 2138.03C38.2899 2123.91 37.97 2104.13 26.2 2092.89C8.83995 2076.31 -19.5 2085.99 -43.2701 2082.62C-69.01 2078.97 -89.2701 2059.56 -107.62 2041.14C-118.91 2029.81 -130.64 2017.75 -134.83 2002.31C-141.57 1977.51 -127.06 1952.17 -111.25 1931.91C-79.8101 1891.63 -40.6001 1857.43 3.57994 1831.76C13.3499 1826.08 24.5699 1820.65 35.5099 1823.46C45.3899 1826 52.3599 1834.62 58.0899 1843.06C78.5699 1873.23 92.6299 1907.74 99.0699 1943.63C101.03 1954.57 102.43 1965.99 108.3 1975.43C114.17 1984.86 126.18 1991.63 136.5 1987.52C150 1982.14 151.49 1963.93 150.75 1949.42C148.57 1906.29 146.38 1863.16 144.2 1820.03C143.38 1803.74 142.73 1786.57 150.22 1772.07C157.89 1757.23 172.79 1747.72 187.3 1739.44C227.72 1716.37 271.98 1694.3 316.95 1681.68C341.5 1674.79 342.82 1677.65 351.35 1699.47C359.52 1720.34 365.88 1736.65 383.74 1751.98Z" fill="#FFD662"/>
<path d="M278.38 1932.28C275.31 1991.63 196.92 2254.84 106.99 2419.38C81.78 2465.52 55.66 2503.89 30.03 2527.85" stroke="#FE674C" stroke-width="9.7766" stroke-miterlimit="10" stroke-linecap="round" stroke-linejoin="round"/>
<path d="M259.72 2389.49C259.72 2389.49 190.38 2381.29 106.99 2419.38" stroke="#FE674C" stroke-width="9.7766" stroke-miterlimit="10" stroke-linecap="round" stroke-linejoin="round"/>
<path d="M346.9 2177.45C346.9 2177.45 219.23 2201.52 182.45 2254.46" stroke="#FE674C" stroke-width="9.7766" stroke-miterlimit="10" stroke-linecap="round" stroke-linejoin="round"/>
<path d="M79.04 2045.27C79.04 2045.27 186.78 2143.98 171.33 2282.09" stroke="#FE674C" stroke-width="9.7766" stroke-miterlimit="10" stroke-linecap="round" stroke-linejoin="round"/>
<path d="M51.8301 2258.54C51.8301 2258.54 127.6 2301.38 115.46 2403.54" stroke="#FE674C" stroke-width="9.7766" stroke-miterlimit="10" stroke-linecap="round" stroke-linejoin="round"/>
<path d="M5325.62 -212.88C5380.21 -208.1 5436.02 -217.28 5489.57 -205.65C5551.83 -192.13 5607.65 -148.54 5632.46 -89.8598C5686 36.7402 5594.86 292.7 5659.63 315.29C5724.4 337.88 5740.52 197.95 5780.96 139.28C5797.69 115.01 5815.51 89.7602 5841.81 76.4402C5899.45 47.2402 5967.2 86.7602 6017.25 127.63C6104.52 198.9 6184.17 279.5 6254.39 367.61C6272.85 390.77 6291.65 417.97 6287.49 447.3C6281.9 486.68 6239.43 507.82 6202.64 522.92C6094.42 567.32 5892.07 661.11 5916.87 717.52C5941.66 773.92 5990.17 712.98 6023.47 695.03C6076.17 666.62 6134.57 644.24 6194.34 647.77C6254.11 651.3 6315 686.01 6334.77 742.52C6344 768.92 6343.81 797.6 6342.44 825.54C6337.62 924.47 6319.44 1022.75 6288.54 1116.86C6275.65 1156.12 6258.77 1197.02 6224.79 1220.54C6158.84 1266.18 6067.11 1223.35 6009.9 1167.13C5994.26 1151.76 5979.12 1135.05 5959.36 1125.55C5939.6 1116.05 5913.41 1115.75 5898.03 1131.38C5882 1147.66 5883.72 1175.57 5896.09 1194.78C5908.46 1213.99 5928.9 1226.31 5949.09 1237.01C5996.7 1262.23 6052.48 1288.31 6067.34 1340.1C6078.26 1378.14 6062.16 1419.82 6035.88 1449.4C6009.6 1478.98 5974.35 1498.83 5939.8 1518.12C5907.68 1536.05 5875.57 1553.98 5843.45 1571.92C5819.63 1585.22 5794.82 1598.83 5767.61 1600.83C5740.4 1602.83 5710.03 1589.73 5701.01 1563.98C5687.97 1526.77 5723.32 1482.72 5704.22 1448.23C5686.63 1416.46 5634.99 1422.95 5611.73 1450.83C5588.47 1478.71 5584.93 1517.45 5580.03 1553.43C5575.14 1589.41 5565.7 1628.66 5536.05 1649.63C5493.06 1680.04 5432.94 1655.78 5390.94 1624.01C5362.61 1602.58 5335.89 1576.71 5323.36 1543.47C5307.93 1502.53 5316.31 1456.07 5333.37 1415.78C5349.38 1377.99 5373.08 1342.14 5376.78 1301.27C5380.48 1260.4 5352.77 1212.34 5311.79 1214.37C5268.01 1216.54 5247.88 1267.64 5223.65 1304.16C5186.65 1359.93 5106.89 1392.31 5050.13 1356.85C5020.66 1338.44 5003 1306.33 4987.82 1275.07C4957.83 1213.34 4932.47 1149.36 4912.02 1083.84C4899.64 1044.17 4893.48 991.56 4928.84 969.73C4961.57 949.53 5002.86 972.66 5041.17 975.98C5095.67 980.7 5145.92 942.71 5175.96 896.99C5193.51 870.28 5206.47 838.84 5203.25 807.05C5200.03 775.26 5176.92 744.08 5145.28 739.61C5098.64 733.02 5064.51 780.86 5022.75 802.67C4977.53 826.29 4923.02 818.5 4872.7 810.12C4841.74 804.96 4809.24 799.13 4784.9 779.32C4745.79 747.49 4739.94 690.47 4742 640.09C4746.08 539.9 4769.49 440.53 4810.58 349.06C4819.66 328.84 4831.35 307.33 4852.02 299.31C4870.67 292.06 4891.66 297.84 4910.44 304.75C4977.6 329.45 5039.48 368.4 5090.8 418.27C5106.44 433.47 5121.73 450.1 5141.88 458.42C5162.03 466.75 5188.91 463.8 5200.67 445.44C5216.05 421.43 5197.6 390.69 5179.83 368.38C5127.03 302.09 5074.22 235.81 5021.42 169.52C5001.48 144.48 4980.81 117.83 4976.18 86.1602C4971.44 53.7202 4984.34 21.5202 4998.01 -8.26978C5036.09 -91.2798 5081.43 -177.08 5138.72 -248.65C5170 -287.72 5175.36 -284.66 5213.91 -259.61C5250.8 -235.63 5279.6 -216.9 5325.62 -212.88Z" fill="#FE674C"/>
<path d="M5383.74 1751.98C5404.93 1770.17 5430.76 1782.94 5449.49 1803.66C5471.26 1827.75 5481.43 1862.38 5474.28 1894.04C5458.86 1962.36 5345.11 2041.3 5365.22 2069.89C5385.33 2098.48 5433.56 2045.32 5467.73 2033.03C5481.87 2027.95 5496.74 2022.78 5511.59 2025.08C5544.13 2030.11 5560.45 2066.59 5569.04 2098.38C5584.02 2153.81 5593.07 2210.84 5595.98 2268.18C5596.75 2283.25 5596.46 2300.1 5586.02 2311.01C5572.01 2325.66 5548.15 2321.8 5528.42 2317.13C5470.42 2303.38 5358.77 2282.13 5352.29 2312.85C5345.81 2343.57 5384 2332.74 5403.11 2335.19C5433.37 2339.08 5464.2 2347.15 5487.9 2366.36C5511.6 2385.57 5526.51 2418.03 5517.92 2447.3C5513.9 2460.98 5505.3 2472.79 5496.44 2483.96C5465.06 2523.5 5428.35 2558.8 5387.61 2588.6C5370.61 2601.03 5351.48 2612.96 5330.42 2612.61C5289.55 2611.93 5264.29 2566.95 5257.29 2526.68C5255.38 2515.67 5254.07 2504.25 5248.71 2494.45C5243.34 2484.65 5232.59 2476.75 5221.58 2478.65C5210.11 2480.63 5202.53 2492.7 5201.95 2504.33C5201.37 2515.96 5206.17 2527.13 5211.36 2537.56C5223.59 2562.14 5238.94 2589.5 5229.72 2615.37C5222.95 2634.36 5203.9 2646.84 5184.23 2651.29C5164.56 2655.74 5144.07 2653.49 5124.04 2651.22C5105.41 2649.11 5086.79 2647 5068.16 2644.89C5054.34 2643.32 5040.03 2641.59 5028.17 2634.34C5016.31 2627.09 5007.62 2612.65 5011.53 2599.3C5017.18 2580.02 5044.9 2572.27 5047.23 2552.32C5049.38 2533.94 5026.07 2521.29 5008.15 2525.93C4990.23 2530.57 4977.27 2545.56 4964.56 2559.01C4951.85 2572.46 4936.28 2585.91 4917.78 2585.79C4890.95 2585.62 4873.26 2557.72 4865.3 2532.09C4859.93 2514.8 4856.55 2496.15 4861.23 2478.67C4867 2457.13 4884.26 2440.38 4903.29 2428.76C4921.14 2417.86 4941.6 2410.06 4955.27 2394.23C4968.94 2378.4 4971.74 2350.28 4954.16 2338.94C4935.39 2326.84 4911.87 2342.02 4890.99 2349.95C4859.1 2362.06 4816.46 2351.78 4803.49 2320.24C4796.75 2303.87 4798.97 2285.32 4801.97 2267.87C4807.88 2233.4 4816.38 2199.37 4827.37 2166.17C4834.02 2146.07 4847.1 2122.45 4868.22 2123.91C4887.77 2125.26 4898 2147.11 4912.88 2159.86C4934.05 2178 4966.14 2177.19 4992.15 2167.17C5007.35 2161.32 5022.05 2152.15 5030.16 2138.03C5038.27 2123.91 5037.95 2104.13 5026.18 2092.89C5008.82 2076.31 4980.48 2085.99 4956.71 2082.62C4930.97 2078.97 4910.71 2059.56 4892.36 2041.14C4881.07 2029.81 4869.34 2017.75 4865.15 2002.31C4858.41 1977.51 4872.92 1952.17 4888.73 1931.91C4920.17 1891.63 4959.38 1857.43 5003.56 1831.76C5013.33 1826.08 5024.55 1820.65 5035.5 1823.46C5045.38 1826 5052.35 1834.62 5058.08 1843.06C5078.56 1873.23 5092.62 1907.74 5099.06 1943.63C5101.02 1954.57 5102.42 1965.99 5108.29 1975.43C5114.16 1984.86 5126.17 1991.63 5136.49 1987.52C5149.99 1982.14 5151.48 1963.93 5150.74 1949.42C5148.56 1906.29 5146.37 1863.16 5144.19 1820.03C5143.37 1803.74 5142.72 1786.57 5150.21 1772.07C5157.88 1757.23 5172.78 1747.72 5187.29 1739.44C5227.71 1716.37 5271.97 1694.3 5316.94 1681.68C5341.49 1674.79 5342.81 1677.65 5351.34 1699.47C5359.52 1720.34 5365.88 1736.65 5383.74 1751.98Z" fill="#FFD662"/>
<path d="M3946.96 3568.22C3962.54 3581.6 3981.54 3590.98 3995.3 3606.22C4011.3 3623.93 4018.78 3649.39 4013.53 3672.68C4002.19 3722.92 3918.55 3780.96 3933.33 3801.98C3948.12 3823 3983.58 3783.91 4008.71 3774.88C4019.11 3771.14 4030.04 3767.35 4040.96 3769.03C4064.89 3772.73 4076.89 3799.55 4083.21 3822.92C4094.22 3863.68 4100.88 3905.61 4103.02 3947.78C4103.58 3958.86 4103.37 3971.25 4095.7 3979.27C4085.4 3990.04 4067.85 3987.21 4053.35 3983.77C4010.7 3973.66 3928.61 3958.04 3923.84 3980.62C3919.07 4003.21 3947.15 3995.24 3961.21 3997.05C3983.46 3999.91 4006.13 4005.84 4023.56 4019.97C4040.99 4034.09 4051.95 4057.96 4045.63 4079.49C4042.68 4089.55 4036.35 4098.24 4029.84 4106.45C4006.77 4135.52 3979.77 4161.48 3949.82 4183.39C3937.32 4192.53 3923.25 4201.3 3907.77 4201.04C3877.72 4200.54 3859.14 4167.46 3854 4137.85C3852.59 4129.76 3851.63 4121.36 3847.69 4114.15C3843.74 4106.94 3835.84 4101.13 3827.74 4102.53C3819.3 4103.99 3813.73 4112.86 3813.31 4121.41C3812.88 4129.96 3816.42 4138.18 3820.23 4145.84C3829.22 4163.92 3840.51 4184.03 3833.73 4203.05C3828.75 4217.02 3814.75 4226.19 3800.28 4229.46C3785.81 4232.73 3770.75 4231.08 3756.02 4229.41C3742.32 4227.86 3728.63 4226.31 3714.93 4224.75C3704.77 4223.6 3694.25 4222.33 3685.52 4216.99C3676.8 4211.66 3670.41 4201.04 3673.29 4191.23C3677.45 4177.05 3697.83 4171.36 3699.54 4156.68C3701.12 4143.16 3683.98 4133.87 3670.81 4137.28C3657.64 4140.69 3648.1 4151.71 3638.75 4161.6C3629.4 4171.49 3617.96 4181.38 3604.35 4181.29C3584.62 4181.16 3571.61 4160.65 3565.76 4141.8C3561.81 4129.09 3559.32 4115.38 3562.77 4102.52C3567.01 4086.68 3579.71 4074.37 3593.7 4065.82C3606.83 4057.81 3621.87 4052.07 3631.92 4040.43C3641.97 4028.79 3644.03 4008.11 3631.1 3999.78C3617.3 3990.88 3600.01 4002.05 3584.65 4007.88C3561.2 4016.78 3529.85 4009.23 3520.31 3986.03C3515.36 3973.99 3516.99 3960.35 3519.19 3947.52C3523.54 3922.17 3529.79 3897.15 3537.86 3872.74C3542.75 3857.96 3552.36 3840.59 3567.9 3841.66C3582.28 3842.65 3589.8 3858.72 3600.74 3868.09C3616.31 3881.43 3639.9 3880.83 3659.03 3873.47C3670.2 3869.17 3681.02 3862.43 3686.98 3852.04C3692.94 3841.66 3692.71 3827.12 3684.05 3818.85C3671.29 3806.66 3650.45 3813.77 3632.97 3811.3C3614.04 3808.62 3599.15 3794.35 3585.65 3780.8C3577.35 3772.47 3568.73 3763.6 3565.64 3752.25C3560.68 3734.02 3571.35 3715.38 3582.98 3700.48C3606.1 3670.86 3634.93 3645.72 3667.41 3626.84C3674.59 3622.67 3682.85 3618.67 3690.89 3620.74C3698.15 3622.61 3703.28 3628.95 3707.49 3635.15C3722.55 3657.34 3732.89 3682.71 3737.62 3709.1C3739.06 3717.14 3740.09 3725.55 3744.41 3732.48C3748.73 3739.42 3757.56 3744.39 3765.15 3741.37C3775.08 3737.42 3776.17 3724.03 3775.63 3713.35C3774.02 3681.64 3772.42 3649.92 3770.81 3618.21C3770.2 3606.23 3769.73 3593.6 3775.24 3582.95C3780.88 3572.04 3791.84 3565.05 3802.51 3558.96C3832.23 3542 3864.77 3525.77 3897.85 3516.49C3915.91 3511.42 3916.87 3513.53 3923.14 3529.57C3929.15 3544.95 3933.83 3556.94 3946.96 3568.22Z" fill="#FFD662"/>
<path d="M3869.49 3700.79C3867.23 3744.43 3809.59 3937.97 3743.47 4058.96C3724.93 4092.88 3705.72 4121.1 3686.88 4138.72" stroke="#FE674C" stroke-width="7.1888" stroke-miterlimit="10" stroke-linecap="round" stroke-linejoin="round"/>
<path d="M3855.77 4036.98C3855.77 4036.98 3804.79 4030.95 3743.47 4058.96" stroke="#FE674C" stroke-width="7.1888" stroke-miterlimit="10" stroke-linecap="round" stroke-linejoin="round"/>
<path d="M3919.87 3881.06C3919.87 3881.06 3825.99 3898.76 3798.95 3937.68" stroke="#FE674C" stroke-width="7.1888" stroke-miterlimit="10" stroke-linecap="round" stroke-linejoin="round"/>
<path d="M3722.91 3783.88C3722.91 3783.88 3802.13 3856.47 3790.77 3958.02" stroke="#FE674C" stroke-width="7.1888" stroke-miterlimit="10" stroke-linecap="round" stroke-linejoin="round"/>
<path d="M3702.9 3940.69C3702.9 3940.69 3758.61 3972.19 3749.69 4047.31" stroke="#FE674C" stroke-width="7.1888" stroke-miterlimit="10" stroke-linecap="round" stroke-linejoin="round"/>
<path d="M4417.86 -209.26C4448.17 -183.24 4485.13 -164.97 4511.92 -135.33C4543.06 -100.87 4557.61 -51.3298 4547.38 -6.02975C4525.31 91.7202 4362.58 204.64 4391.35 245.54C4420.12 286.44 4489.12 210.38 4538.01 192.81C4558.23 185.54 4579.51 178.15 4600.75 181.43C4647.3 188.62 4670.65 240.81 4682.94 286.29C4704.37 365.59 4717.31 447.17 4721.48 529.21C4722.58 550.77 4722.16 574.88 4707.24 590.48C4687.2 611.44 4653.06 605.92 4624.84 599.23C4541.86 579.56 4382.14 549.16 4372.87 593.11C4363.6 637.06 4418.23 621.56 4445.58 625.07C4488.87 630.63 4532.98 642.18 4566.89 669.66C4600.8 697.14 4622.13 743.58 4609.83 785.45C4604.08 805.02 4591.78 821.92 4579.11 837.9C4534.22 894.46 4481.7 944.96 4423.42 987.59C4399.11 1005.37 4371.73 1022.44 4341.61 1021.93C4283.15 1020.95 4247 956.61 4236.99 899C4234.25 883.25 4232.39 866.92 4224.71 852.9C4217.03 838.88 4201.65 827.58 4185.9 830.3C4169.49 833.14 4158.65 850.4 4157.82 867.04C4156.99 883.68 4163.86 899.66 4171.28 914.58C4188.77 949.75 4210.74 988.89 4197.54 1025.89C4187.85 1053.06 4160.61 1070.92 4132.47 1077.28C4104.33 1083.64 4075.02 1080.42 4046.36 1077.17C4019.71 1074.15 3993.07 1071.13 3966.42 1068.11C3946.65 1065.87 3926.18 1063.39 3909.2 1053.02C3892.22 1042.65 3879.8 1021.98 3885.4 1002.89C3893.49 975.31 3933.14 964.23 3936.48 935.68C3939.56 909.38 3906.21 891.29 3880.58 897.93C3854.95 904.57 3836.4 926.01 3818.21 945.25C3800.02 964.49 3777.76 983.73 3751.28 983.56C3712.89 983.31 3687.58 943.4 3676.2 906.73C3668.52 882 3663.68 855.32 3670.38 830.3C3678.63 799.49 3703.33 775.53 3730.56 758.91C3756.1 743.32 3785.37 732.15 3804.92 709.51C3824.47 686.87 3828.48 646.63 3803.33 630.42C3776.47 613.11 3742.83 634.83 3712.96 646.17C3667.34 663.49 3606.34 648.79 3587.78 603.67C3578.14 580.25 3581.32 553.71 3585.6 528.75C3594.06 479.44 3606.22 430.76 3621.93 383.26C3631.45 354.5 3650.15 320.71 3680.37 322.8C3708.34 324.73 3722.97 355.98 3744.26 374.23C3774.54 400.18 3820.45 399.02 3857.67 384.69C3879.41 376.32 3900.45 363.2 3912.05 343C3923.65 322.8 3923.2 294.51 3906.36 278.42C3881.53 254.7 3840.98 268.54 3806.98 263.72C3770.15 258.5 3741.17 230.73 3714.92 204.39C3698.77 188.18 3681.99 170.92 3675.99 148.84C3666.34 113.37 3687.1 77.1002 3709.72 48.1202C3754.7 -9.50976 3810.79 -58.4297 3873.99 -95.1597C3887.96 -103.28 3904.02 -111.06 3919.68 -107.03C3933.81 -103.4 3943.79 -91.0597 3951.98 -78.9897C3981.28 -35.8197 4001.39 13.5403 4010.6 64.8903C4013.41 80.5403 4015.4 96.8902 4023.8 110.38C4032.2 123.87 4049.38 133.55 4064.15 127.67C4083.46 119.98 4085.59 93.9302 4084.54 73.1602C4081.42 11.4602 4078.29 -50.2497 4075.17 -111.95C4073.99 -135.26 4073.07 -159.82 4083.78 -180.56C4094.75 -201.79 4116.07 -215.39 4136.83 -227.23C4194.66 -260.23 4257.97 -291.8 4322.31 -309.86C4357.44 -319.72 4359.32 -315.63 4371.52 -284.41C4383.2 -254.52 4392.31 -231.19 4417.86 -209.26Z" fill="#FFD662"/>
<path d="M4267.13 48.6802C4262.73 133.59 4150.59 510.13 4021.95 745.52C3985.88 811.52 3948.51 866.43 3911.86 900.69" stroke="#FE674C" stroke-width="13.9864" stroke-miterlimit="10" stroke-linecap="round" stroke-linejoin="round"/>
<path d="M4240.44 702.76C4240.44 702.76 4141.25 691.03 4021.95 745.52" stroke="#FE674C" stroke-width="13.9864" stroke-miterlimit="10" stroke-linecap="round" stroke-linejoin="round"/>
<path d="M4365.15 399.41C4365.15 399.41 4182.5 433.85 4129.89 509.58" stroke="#FE674C" stroke-width="13.9864" stroke-miterlimit="10" stroke-linecap="round" stroke-linejoin="round"/>
<path d="M3981.95 210.33C3981.95 210.33 4136.08 351.55 4113.97 549.13" stroke="#FE674C" stroke-width="13.9864" stroke-miterlimit="10" stroke-linecap="round" stroke-linejoin="round"/>
<path d="M3943.03 515.42C3943.03 515.42 4051.42 576.7 4034.06 722.86" stroke="#FE674C" stroke-width="13.9864" stroke-miterlimit="10" stroke-linecap="round" stroke-linejoin="round"/>
<path d="M1901.11 2582.65C1909.87 2535.58 1906.6 2486.27 1921.23 2440.69C1938.25 2387.69 1980.86 2342.83 2033.98 2326.2C2148.59 2290.33 2363.5 2391.18 2388.61 2336.77C2413.72 2282.36 2293.39 2256.53 2245.78 2216.4C2226.08 2199.8 2205.63 2182.18 2196.27 2158.18C2175.75 2105.59 2215.82 2050.01 2255.59 2009.93C2324.93 1940.05 2401.75 1877.59 2484.3 1823.95C2506 1809.85 2531.24 1795.79 2556.39 1801.89C2590.17 1810.07 2604.97 1848.79 2614.99 1882.06C2644.47 1979.92 2708.96 2163.8 2760.1 2147C2811.24 2130.2 2762.33 2082.87 2749.53 2052.4C2729.27 2004.17 2714.74 1951.5 2722.85 1899.82C2730.96 1848.14 2766.29 1798.11 2817.1 1785.69C2840.84 1779.89 2865.77 1782.48 2889.95 1786.02C2975.58 1798.56 3059.51 1822.67 3138.75 1857.47C3171.81 1871.99 3205.95 1890.12 3223.53 1921.66C3257.66 1982.86 3212.67 2059.02 3158.95 2104.03C3144.26 2116.33 3128.45 2128.09 3118.53 2144.47C3108.61 2160.86 3106.13 2183.6 3118.42 2198.29C3131.23 2213.6 3155.64 2214.46 3173.39 2205.33C3191.14 2196.2 3203.58 2179.46 3214.59 2162.8C3240.54 2123.52 3267.92 2077.22 3314.22 2068.66C3348.22 2062.38 3383.11 2079.89 3406.62 2105.24C3430.13 2130.59 3444.41 2162.92 3458.27 2194.59C3471.15 2224.03 3484.04 2253.48 3496.92 2282.92C3506.48 2304.76 3516.22 2327.48 3515.66 2351.32C3515.11 2375.15 3501.15 2400.45 3477.99 2406.13C3444.53 2414.33 3409.21 2379.87 3377.6 2393.57C3348.49 2406.19 3349.77 2451.64 3372.06 2474.23C3394.34 2496.82 3427.73 2503.16 3458.61 2510.45C3489.49 2517.74 3522.83 2529.26 3538.56 2556.82C3561.38 2596.78 3535.2 2647 3504.03 2680.85C3483 2703.68 3458.25 2724.73 3428.28 2732.83C3391.37 2742.8 3351.68 2731.59 3318.08 2713.35C3286.57 2696.24 3257.39 2672.61 3222.16 2665.94C3186.93 2659.27 3142.8 2679.31 3141.11 2715.13C3139.3 2753.38 3182.04 2775.21 3211.76 2799.36C3257.14 2836.25 3278.56 2908.33 3242.94 2954.71C3224.44 2978.78 3195.03 2991.44 3166.56 3002C3110.34 3022.87 3052.56 3039.53 2993.86 3051.78C2958.32 3059.2 2912.04 3060.12 2896.04 3027.53C2881.23 2997.36 2904.84 2963.41 2910.96 2930.37C2919.66 2883.37 2890.87 2836.47 2853.64 2806.49C2831.9 2788.98 2805.65 2775.05 2777.73 2775.17C2749.81 2775.29 2720.75 2792.76 2714.19 2819.89C2704.52 2859.9 2743.25 2893.61 2758.69 2931.77C2775.41 2973.09 2764.04 3019.83 2752.5 3062.89C2745.4 3089.38 2737.59 3117.15 2718.3 3136.64C2687.32 3167.96 2637.24 3168.24 2593.6 3162.2C2506.81 3150.2 2422.37 3121.45 2346.3 3078C2329.48 3068.39 2311.76 3056.41 2306.53 3037.77C2301.8 3020.94 2308.6 3003.17 2316.19 2987.42C2343.34 2931.1 2382.43 2880.57 2430.14 2840.15C2444.67 2827.83 2460.43 2815.94 2469.37 2799.12C2478.31 2782.3 2478.02 2758.67 2463.05 2746.9C2443.47 2731.5 2415.18 2744.95 2394.28 2758.52C2332.18 2798.85 2270.08 2839.17 2207.98 2879.5C2184.52 2894.73 2159.6 2910.46 2131.67 2911.81C2103.06 2913.2 2076.15 2899.26 2051.39 2884.86C1982.42 2844.74 1911.62 2798.07 1854.22 2742.21C1822.88 2711.71 1826 2707.3 1851.03 2675.89C1875.01 2645.79 1893.72 2622.32 1901.11 2582.65Z" fill="#FFD662"/>
<path d="M2259.15 2583.89C2349.83 2537.41 2807.66 2427.36 3129.06 2419.25C3219.18 2416.98 3298.57 2422.72 3356.13 2440.13" stroke="#FE674C" stroke-width="16.7627" stroke-miterlimit="10" stroke-linecap="round" stroke-linejoin="round"/>
<path d="M2953.39 2218.41C2953.39 2218.41 3000.85 2328.31 3129.06 2419.25" stroke="#FE674C" stroke-width="16.7627" stroke-miterlimit="10" stroke-linecap="round" stroke-linejoin="round"/>
<path d="M2563.9 2271.44C2563.9 2271.44 2709.4 2440.12 2819.54 2449.16" stroke="#FE674C" stroke-width="16.7627" stroke-miterlimit="10" stroke-linecap="round" stroke-linejoin="round"/>
<path d="M2598.18 2782.43C2598.18 2782.43 2651.96 2537.73 2870.11 2441.89" stroke="#FE674C" stroke-width="16.7627" stroke-miterlimit="10" stroke-linecap="round" stroke-linejoin="round"/>
<path d="M2937.92 2639.39C2937.92 2639.39 2936.31 2490.16 3098.29 2420.32" stroke="#FE674C" stroke-width="16.7627" stroke-miterlimit="10" stroke-linecap="round" stroke-linejoin="round"/>
<path d="M4417.86 4790.74C4448.17 4816.76 4485.13 4835.03 4511.92 4864.67C4543.06 4899.13 4557.61 4948.67 4547.38 4993.97C4525.31 5091.72 4362.58 5204.64 4391.35 5245.54C4420.12 5286.44 4489.12 5210.38 4538.01 5192.81C4558.23 5185.54 4579.51 5178.15 4600.75 5181.43C4647.3 5188.62 4670.65 5240.81 4682.94 5286.29C4704.37 5365.59 4717.31 5447.17 4721.48 5529.21C4722.58 5550.77 4722.16 5574.88 4707.24 5590.48C4687.2 5611.44 4653.06 5605.92 4624.84 5599.23C4541.86 5579.56 4382.14 5549.16 4372.87 5593.11C4363.6 5637.06 4418.23 5621.56 4445.58 5625.07C4488.87 5630.63 4532.98 5642.18 4566.89 5669.66C4600.8 5697.14 4622.13 5743.58 4609.83 5785.45C4604.08 5805.02 4591.78 5821.92 4579.11 5837.9C4534.22 5894.46 4481.7 5944.96 4423.42 5987.59C4399.11 6005.38 4371.73 6022.44 4341.61 6021.93C4283.15 6020.95 4247 5956.61 4236.99 5899C4234.25 5883.25 4232.39 5866.92 4224.71 5852.9C4217.03 5838.88 4201.65 5827.57 4185.9 5830.3C4169.49 5833.14 4158.65 5850.4 4157.82 5867.04C4156.99 5883.68 4163.86 5899.66 4171.28 5914.58C4188.77 5949.75 4210.74 5988.89 4197.54 6025.89C4187.85 6053.06 4160.61 6070.92 4132.47 6077.28C4104.33 6083.64 4075.02 6080.42 4046.36 6077.17C4019.71 6074.15 3993.07 6071.13 3966.42 6068.11C3946.65 6065.87 3926.18 6063.39 3909.2 6053.02C3892.23 6042.65 3879.8 6021.98 3885.4 6002.9C3893.49 5975.32 3933.14 5964.24 3936.48 5935.69C3939.56 5909.39 3906.21 5891.3 3880.58 5897.94C3854.95 5904.58 3836.4 5926.02 3818.21 5945.26C3800.02 5964.5 3777.76 5983.74 3751.28 5983.57C3712.89 5983.32 3687.58 5943.41 3676.2 5906.74C3668.52 5882.01 3663.68 5855.33 3670.38 5830.31C3678.63 5799.5 3703.33 5775.54 3730.56 5758.92C3756.1 5743.33 3785.37 5732.16 3804.92 5709.52C3824.47 5686.88 3828.48 5646.64 3803.33 5630.43C3776.47 5613.12 3742.83 5634.84 3712.96 5646.18C3667.34 5663.5 3606.34 5648.8 3587.78 5603.68C3578.14 5580.26 3581.32 5553.72 3585.6 5528.76C3594.06 5479.45 3606.22 5430.77 3621.93 5383.27C3631.45 5354.51 3650.15 5320.72 3680.37 5322.81C3708.34 5324.74 3722.97 5355.99 3744.26 5374.24C3774.54 5400.19 3820.45 5399.03 3857.67 5384.7C3879.41 5376.33 3900.45 5363.21 3912.05 5343.01C3923.65 5322.81 3923.2 5294.52 3906.36 5278.43C3881.53 5254.71 3840.98 5268.55 3806.98 5263.73C3770.15 5258.51 3741.17 5230.74 3714.92 5204.4C3698.77 5188.19 3681.99 5170.93 3675.99 5148.85C3666.34 5113.38 3687.1 5077.11 3709.72 5048.13C3754.7 4990.5 3810.79 4941.58 3873.99 4904.85C3887.96 4896.73 3904.02 4888.95 3919.68 4892.98C3933.81 4896.61 3943.79 4908.95 3951.98 4921.02C3981.28 4964.19 4001.39 5013.55 4010.6 5064.9C4013.41 5080.55 4015.4 5096.9 4023.8 5110.39C4032.2 5123.88 4049.38 5133.56 4064.15 5127.68C4083.46 5119.99 4085.59 5093.94 4084.54 5073.17C4081.42 5011.47 4078.29 4949.76 4075.17 4888.06C4073.99 4864.75 4073.07 4840.18 4083.78 4819.45C4094.75 4798.22 4116.07 4784.62 4136.83 4772.78C4194.66 4739.78 4257.97 4708.21 4322.31 4690.15C4357.44 4680.29 4359.32 4684.38 4371.52 4715.6C4383.2 4745.48 4392.31 4768.81 4417.86 4790.74Z" fill="#FFD662"/>
<path d="M922.16 1680.47C952.27 1681.49 982.64 1674.81 1012.38 1679.63C1046.96 1685.23 1078.88 1707.52 1094.23 1739.01C1127.34 1806.94 1084.82 1950.15 1121.04 1960.65C1157.26 1971.15 1162 1893.85 1182.49 1860.45C1190.96 1846.63 1200 1832.25 1214.05 1824.16C1244.84 1806.44 1283.2 1826.14 1311.87 1847.11C1361.88 1883.68 1407.97 1925.59 1449.11 1971.9C1459.93 1984.07 1471.05 1998.46 1469.62 2014.68C1467.71 2036.46 1445.01 2049.32 1425.25 2058.69C1367.14 2086.25 1258.8 2143.68 1274.07 2173.92C1289.34 2204.16 1314.18 2169.27 1331.93 2158.44C1360.03 2141.3 1391.44 2127.3 1424.35 2127.48C1457.26 2127.66 1491.72 2144.93 1504.23 2175.38C1510.07 2189.61 1510.81 2205.36 1510.88 2220.74C1511.14 2275.2 1504.04 2329.69 1489.84 2382.26C1483.92 2404.19 1475.85 2427.15 1457.89 2441.05C1423.02 2468.05 1371.4 2447.22 1338.34 2418.04C1329.3 2410.06 1320.5 2401.33 1309.37 2396.7C1298.24 2392.07 1283.86 2392.67 1275.87 2401.7C1267.55 2411.11 1269.31 2426.38 1276.67 2436.57C1284.03 2446.75 1295.61 2452.92 1307.01 2458.2C1333.89 2470.65 1365.28 2483.33 1374.96 2511.33C1382.07 2531.89 1374.46 2555.25 1360.9 2572.26C1347.34 2589.27 1328.57 2601.2 1310.17 2612.81C1293.06 2623.6 1275.96 2634.39 1258.85 2645.17C1246.16 2653.17 1232.94 2661.37 1218.06 2663.27C1203.18 2665.17 1186.12 2658.87 1180.41 2644.99C1172.16 2624.94 1190.27 2599.72 1178.77 2581.35C1168.18 2564.42 1140.02 2569.5 1128.06 2585.49C1116.1 2601.48 1115.3 2622.85 1113.67 2642.75C1112.04 2662.65 1108.01 2684.48 1092.35 2696.86C1069.64 2714.82 1035.92 2703.26 1011.93 2687.05C995.75 2676.12 980.32 2662.7 972.46 2644.81C962.78 2622.78 966.02 2597.03 974.21 2574.41C981.89 2553.19 993.85 2532.82 994.68 2510.27C995.51 2487.72 978.89 2462.15 956.45 2464.47C932.48 2466.95 922.92 2495.59 910.69 2516.36C892.01 2548.07 849.18 2568.18 816.97 2550.38C800.25 2541.14 789.61 2524.03 780.36 2507.31C762.08 2474.3 746.28 2439.91 733.13 2404.55C725.17 2383.13 720.24 2354.43 739.01 2341.41C756.38 2329.36 779.73 2340.85 800.87 2341.54C830.93 2342.53 857.4 2320.2 872.55 2294.22C881.4 2279.04 887.59 2261.4 884.89 2244.04C882.19 2226.68 868.58 2210.24 851.08 2208.72C825.28 2206.47 807.94 2233.74 785.66 2246.94C761.52 2261.24 731.37 2258.56 703.5 2255.43C686.35 2253.51 668.34 2251.26 654.39 2241.1C631.98 2224.77 627.1 2193.64 626.75 2165.92C626.05 2110.79 635.99 2055.55 655.86 2004.13C660.25 1992.76 666.04 1980.61 677.15 1975.6C687.18 1971.07 698.87 1973.63 709.39 1976.87C746.99 1988.46 782.11 2008.03 811.75 2033.9C820.78 2041.78 829.67 2050.47 840.97 2054.45C852.28 2058.43 866.95 2056.02 872.87 2045.6C880.61 2031.96 869.58 2015.63 859.16 2003.91C828.22 1969.07 797.29 1934.22 766.35 1899.38C754.67 1886.22 742.54 1872.19 739.06 1854.94C735.5 1837.27 741.64 1819.21 748.27 1802.45C766.74 1755.76 789.11 1707.32 818.47 1666.35C834.49 1643.98 837.53 1645.5 859.43 1658.12C880.42 1670.18 896.78 1679.61 922.16 1680.47Z" fill="#FF7F40"/>
<path d="M955.09 1903.36C992.54 1955.4 1104.12 2229.9 1139.41 2429.11C1149.31 2484.97 1153.21 2534.9 1147.79 2572.35" stroke="#F5F5ED" stroke-width="10.5482" stroke-miterlimit="10" stroke-linecap="round" stroke-linejoin="round"/>
<path d="M1247.84 2300.91C1247.84 2300.91 1183.93 2340.78 1139.41 2429.11" stroke="#F5F5ED" stroke-width="10.5482" stroke-miterlimit="10" stroke-linecap="round" stroke-linejoin="round"/>
<path d="M1178.18 2063.56C1178.18 2063.56 1086.92 2169.97 1091.67 2239.34" stroke="#F5F5ED" stroke-width="10.5482" stroke-miterlimit="10" stroke-linecap="round" stroke-linejoin="round"/>
<path d="M863.48 2132.99C863.48 2132.99 1020.79 2143.42 1100.96 2270.13" stroke="#F5F5ED" stroke-width="10.5482" stroke-miterlimit="10" stroke-linecap="round" stroke-linejoin="round"/>
<path d="M984.45 2330.9C984.45 2330.9 1077.15 2315.85 1135.85 2410.06" stroke="#F5F5ED" stroke-width="10.5482" stroke-miterlimit="10" stroke-linecap="round" stroke-linejoin="round"/>
<path d="M2832.62 417.39C2804.49 387.2 2768.64 364.22 2744.54 330.72C2716.53 291.78 2707.26 239.26 2722.95 193.93C2756.8 96.1201 2936.78 -1.14987 2911.93 -46.4299C2887.08 -91.7099 2807.54 -21.5399 2755.35 -9.09991C2733.76 -3.94991 2711.07 1.19014 2689.64 -4.60986C2642.68 -17.3299 2624.69 -73.5699 2617.28 -121.66C2604.37 -205.51 2600.43 -290.74 2605.55 -375.43C2606.89 -397.69 2610.08 -422.38 2627.19 -436.69C2650.16 -455.91 2684.58 -446.33 2712.77 -436.24C2795.69 -406.54 2956.16 -357.04 2970.72 -401.09C2985.27 -445.14 2927.42 -435.49 2899.75 -442.23C2855.95 -452.89 2812 -469.81 2780.34 -501.9C2748.68 -533.99 2732.1 -584.1 2749.53 -625.68C2757.67 -645.11 2772.23 -661.05 2787.08 -676C2839.64 -728.92 2899.33 -774.74 2964.04 -811.82C2991.04 -827.29 3021.09 -841.67 3051.95 -837.7C3111.85 -830 3141.58 -759.81 3145.26 -699.53C3146.26 -683.05 3146.31 -666.07 3152.58 -650.8C3158.85 -635.53 3173.35 -622.16 3189.83 -623.15C3207 -624.18 3220.11 -640.66 3222.87 -657.64C3225.63 -674.62 3220.4 -691.82 3214.5 -707.98C3200.57 -746.09 3182.51 -788.78 3200.29 -825.25C3213.35 -852.03 3243.36 -867.24 3272.97 -870.55C3302.58 -873.86 3332.3 -867.2 3361.35 -860.58C3388.35 -854.43 3415.36 -848.27 3442.36 -842.12C3462.39 -837.56 3483.13 -832.67 3499.36 -820.07C3515.59 -807.48 3525.98 -784.84 3518.05 -765.89C3506.59 -738.5 3464.62 -731.67 3457.92 -702.75C3451.75 -676.11 3483.91 -653.72 3510.98 -657.59C3538.05 -661.46 3559.55 -681.35 3580.42 -699.02C3601.29 -716.69 3626.35 -733.89 3653.51 -730.68C3692.89 -726.03 3714.29 -682.16 3721.78 -643.22C3726.83 -616.95 3728.74 -589.01 3719 -564.1C3707 -533.42 3678.9 -511.65 3649.05 -497.71C3621.05 -484.63 3589.73 -476.52 3567.06 -455.52C3544.39 -434.52 3535.68 -393.67 3559.63 -374.15C3585.21 -353.3 3622.23 -371.75 3654.2 -379.97C3703.01 -392.52 3763.94 -370.45 3777.83 -322C3785.04 -296.85 3778.74 -269.98 3771.48 -244.84C3757.15 -195.19 3739.09 -146.61 3717.52 -99.6499C3704.46 -71.2199 3681.39 -38.6799 3650.6 -44.2799C3622.11 -49.4699 3610.67 -83.2199 3590.9 -104.39C3562.79 -134.5 3515.53 -138.56 3475.68 -128.12C3452.4 -122.02 3429.31 -110.96 3415.09 -91.5499C3400.87 -72.1399 3398.09 -43.0499 3413.54 -24.5999C3436.31 2.59009 3479.52 -6.96988 3513.87 1.87012C3551.07 11.4501 3577.64 43.2701 3601.57 73.3201C3616.29 91.8101 3631.53 111.45 3635.17 134.8C3641.01 172.32 3615.55 207.16 3589.01 234.32C3536.24 288.32 3473.06 332.11 3403.98 362.58C3388.71 369.31 3371.33 375.46 3355.72 369.53C3341.63 364.18 3332.8 350.37 3325.77 337.04C3300.64 289.37 3285.65 236.4 3282.07 182.63C3280.98 166.25 3280.8 149.24 3273.73 134.42C3266.65 119.61 3250.13 107.71 3234.3 112.05C3213.59 117.73 3208.43 144.23 3207.13 165.67C3203.27 229.37 3199.4 293.06 3195.54 356.76C3194.08 380.82 3192.21 406.14 3178.84 426.2C3165.15 446.74 3141.7 458.25 3119.04 468.03C3055.9 495.28 2987.3 520.44 2919.18 531.6C2881.99 537.7 2880.53 533.28 2871.59 499.84C2863.01 467.82 2856.33 442.83 2832.62 417.39Z" fill="#FFB83A"/>
<path d="M3016.89 169.89C3031.13 83.2403 3189.38 -290.43 3348.4 -517.32C3392.99 -580.94 3437.64 -633.02 3479.19 -663.99" stroke="#F5F5ED" stroke-width="16.3043" stroke-miterlimit="10" stroke-linecap="round" stroke-linejoin="round"/>
<path d="M3328.14 36.6302C3328.14 36.6302 3186.1 -125.99 3231.43 -326.27" stroke="#F5F5ED" stroke-width="16.3043" stroke-miterlimit="10" stroke-linecap="round" stroke-linejoin="round"/>
<path d="M2298.29 4322.96C2331.89 4355.2 2373.74 4378.85 2403 4415.08C2437.02 4457.2 2450.76 4515.79 2435.94 4567.87C2403.96 4680.22 2207.27 4801.17 2238.12 4850.62C2268.97 4900.07 2354.19 4816 2412.22 4798.69C2436.23 4791.53 2461.47 4784.3 2485.98 4789.49C2539.7 4800.86 2563.52 4863.11 2574.89 4916.83C2594.72 5010.51 2604.53 5106.3 2604.09 5202.06C2603.98 5227.23 2601.94 5255.26 2583.56 5272.46C2558.88 5295.56 2519.5 5286.94 2487.09 5277.34C2391.78 5249.1 2207.83 5203.42 2194.2 5253.98C2180.57 5304.54 2245.16 5290.02 2276.77 5295.87C2326.8 5305.13 2377.39 5321.42 2415.09 5355.59C2452.79 5389.76 2474.62 5445.18 2457.61 5493.13C2449.66 5515.53 2434.25 5534.42 2418.47 5552.19C2362.58 5615.13 2298.19 5670.52 2227.61 5716.39C2198.16 5735.52 2165.2 5753.62 2130.17 5751.09C2062.19 5746.19 2024.26 5668.96 2016.32 5601.26C2014.15 5582.75 2013.03 5563.62 2005 5546.81C1996.97 5530 1979.79 5515.85 1961.29 5518C1942 5520.25 1928.27 5539.64 1926.23 5558.95C1924.19 5578.26 1931.16 5597.31 1938.83 5615.15C1956.92 5657.21 1979.97 5704.19 1962.22 5746.4C1949.19 5777.4 1916.33 5796.43 1883.17 5802.02C1850.01 5807.61 1816.1 5801.98 1782.95 5796.35C1752.13 5791.12 1721.31 5785.88 1690.49 5780.65C1667.63 5776.77 1643.95 5772.56 1624.87 5759.4C1605.78 5746.23 1592.66 5721.38 1600.4 5699.52C1611.59 5667.94 1658.45 5657.6 1664.18 5624.58C1669.46 5594.17 1631.81 5570.96 1601.55 5577.03C1571.29 5583.1 1548.32 5606.87 1525.91 5628.09C1503.5 5649.31 1476.34 5670.27 1445.54 5668.37C1400.87 5665.6 1373.99 5617.52 1363.1 5574.11C1355.75 5544.83 1351.84 5513.46 1361.25 5484.78C1372.84 5449.45 1403.13 5423.15 1435.9 5405.56C1466.63 5389.06 1501.42 5377.95 1525.64 5352.86C1549.86 5327.77 1557.11 5281.19 1528.89 5260.7C1498.75 5238.82 1458.19 5261.93 1422.69 5273.21C1368.48 5290.43 1298.42 5269.39 1279.72 5215.67C1270.01 5187.78 1275.42 5157.11 1282.02 5128.33C1295.05 5071.48 1312.33 5015.6 1333.69 4961.33C1346.62 4928.47 1370.57 4890.35 1405.61 4894.72C1438.04 4898.77 1453.06 4936.09 1476.66 4958.7C1510.24 4990.86 1563.74 4992.46 1607.99 4978.19C1633.83 4969.85 1659.16 4955.94 1673.97 4933.17C1688.78 4910.4 1690.07 4877.45 1671.5 4857.63C1644.12 4828.42 1596.04 4841.92 1556.78 4834.12C1514.25 4825.67 1482.31 4791.48 1453.45 4759.12C1435.7 4739.21 1417.28 4718.04 1411.72 4691.95C1402.78 4650.04 1429.28 4609.17 1457.47 4576.9C1513.54 4512.73 1581.97 4459.4 1657.91 4420.72C1674.7 4412.17 1693.89 4404.15 1711.85 4409.84C1728.06 4414.98 1738.88 4429.98 1747.64 4444.56C1778.96 4496.69 1799.19 4555.45 1806.6 4615.81C1808.86 4634.2 1810.13 4653.36 1819.04 4669.61C1827.95 4685.86 1847.32 4698.23 1864.88 4692.33C1887.86 4684.62 1892.01 4654.44 1892.12 4630.2C1892.46 4558.18 1892.81 4486.16 1893.15 4414.14C1893.28 4386.94 1893.79 4358.28 1907.59 4334.84C1921.73 4310.84 1947.42 4296.38 1972.35 4283.93C2041.78 4249.25 2117.51 4216.58 2193.57 4199.71C2235.09 4190.5 2237.02 4195.38 2249.2 4232.5C2260.87 4268.04 2269.96 4295.79 2298.29 4322.96Z" fill="#FF7F40"/>
<path d="M2106.22 4613.47C2095.63 4712.01 1940.83 5143.06 1775.92 5408.75C1729.68 5483.25 1682.65 5544.74 1637.77 5582.26" stroke="#F5F5ED" stroke-width="16.3043" stroke-miterlimit="10" stroke-linecap="round" stroke-linejoin="round"/>
<path d="M1763.87 4783.24C1763.87 4783.24 1934.17 4957.55 1895.7 5186.09" stroke="#F5F5ED" stroke-width="16.3043" stroke-miterlimit="10" stroke-linecap="round" stroke-linejoin="round"/>
<path d="M2832.62 5417.39C2804.49 5387.2 2768.64 5364.22 2744.54 5330.72C2716.53 5291.78 2707.26 5239.26 2722.95 5193.93C2756.8 5096.12 2936.78 4998.85 2911.93 4953.57C2887.08 4908.29 2807.54 4978.46 2755.35 4990.9C2733.76 4996.05 2711.07 5001.19 2689.64 4995.39C2642.68 4982.67 2624.69 4926.43 2617.28 4878.34C2604.37 4794.49 2600.43 4709.26 2605.55 4624.57C2606.89 4602.31 2610.08 4577.62 2627.19 4563.31C2650.16 4544.09 2684.58 4553.67 2712.77 4563.77C2795.69 4593.47 2956.16 4642.97 2970.72 4598.92C2985.27 4554.87 2927.42 4564.52 2899.75 4557.78C2855.95 4547.12 2812 4530.2 2780.34 4498.11C2748.68 4466.02 2732.1 4415.91 2749.53 4374.33C2757.67 4354.9 2772.23 4338.96 2787.08 4324.01C2839.64 4271.09 2899.33 4225.27 2964.04 4188.19C2991.04 4172.72 3021.09 4158.34 3051.95 4162.31C3111.85 4170.01 3141.58 4240.2 3145.26 4300.48C3146.26 4316.96 3146.31 4333.94 3152.58 4349.21C3158.85 4364.48 3173.35 4377.85 3189.83 4376.86C3207 4375.83 3220.11 4359.35 3222.87 4342.37C3225.63 4325.39 3220.4 4308.19 3214.5 4292.03C3200.57 4253.92 3182.51 4211.23 3200.29 4174.76C3213.35 4147.98 3243.36 4132.77 3272.97 4129.46C3302.58 4126.15 3332.3 4132.81 3361.35 4139.43C3388.35 4145.58 3415.36 4151.74 3442.36 4157.89C3462.39 4162.45 3483.13 4167.34 3499.36 4179.94C3515.59 4192.53 3525.98 4215.17 3518.05 4234.12C3506.59 4261.51 3464.62 4268.34 3457.92 4297.26C3451.75 4323.9 3483.91 4346.29 3510.98 4342.42C3538.05 4338.55 3559.55 4318.66 3580.42 4300.99C3601.29 4283.32 3626.35 4266.12 3653.51 4269.33C3692.89 4273.98 3714.29 4317.85 3721.78 4356.79C3726.83 4383.06 3728.74 4411 3719 4435.91C3707 4466.59 3678.9 4488.36 3649.05 4502.3C3621.05 4515.38 3589.73 4523.49 3567.06 4544.49C3544.39 4565.49 3535.68 4606.34 3559.63 4625.86C3585.21 4646.71 3622.23 4628.26 3654.2 4620.04C3703.01 4607.49 3763.94 4629.56 3777.83 4678.01C3785.04 4703.16 3778.74 4730.03 3771.48 4755.17C3757.15 4804.82 3739.09 4853.4 3717.52 4900.36C3704.46 4928.79 3681.39 4961.33 3650.6 4955.73C3622.11 4950.54 3610.67 4916.79 3590.9 4895.62C3562.79 4865.51 3515.53 4861.45 3475.68 4871.89C3452.4 4877.99 3429.31 4889.05 3415.09 4908.46C3400.87 4927.87 3398.09 4956.96 3413.54 4975.41C3436.31 5002.6 3479.52 4993.04 3513.87 5001.88C3551.07 5011.46 3577.64 5043.28 3601.57 5073.33C3616.29 5091.82 3631.53 5111.46 3635.17 5134.81C3641.01 5172.33 3615.55 5207.17 3589.01 5234.33C3536.24 5288.33 3473.06 5332.12 3403.98 5362.59C3388.71 5369.32 3371.33 5375.47 3355.72 5369.54C3341.63 5364.19 3332.8 5350.38 3325.77 5337.05C3300.64 5289.38 3285.65 5236.41 3282.07 5182.64C3280.98 5166.26 3280.8 5149.25 3273.73 5134.43C3266.65 5119.62 3250.13 5107.72 3234.3 5112.06C3213.59 5117.74 3208.43 5144.24 3207.13 5165.68C3203.27 5229.38 3199.4 5293.07 3195.54 5356.77C3194.08 5380.83 3192.21 5406.15 3178.84 5426.21C3165.15 5446.75 3141.7 5458.26 3119.04 5468.04C3055.9 5495.29 2987.3 5520.45 2919.18 5531.61C2881.99 5537.71 2880.53 5533.29 2871.59 5499.85C2863.01 5467.82 2856.33 5442.83 2832.62 5417.39Z" fill="#FFB83A"/>
<path d="M3016.89 5169.89C3031.13 5083.24 3189.38 4709.57 3348.4 4482.68C3392.99 4419.06 3437.64 4366.98 3479.19 4336.01" stroke="#F5F5ED" stroke-width="16.3043" stroke-miterlimit="10" stroke-linecap="round" stroke-linejoin="round"/>
<path d="M3119.22 4501.54C3119.22 4501.54 3219.7 4524.95 3348.4 4482.68" stroke="#F5F5ED" stroke-width="16.3043" stroke-miterlimit="10" stroke-linecap="round" stroke-linejoin="round"/>
<path d="M2956.45 4798.64C2956.45 4798.64 3147.88 4784.21 3210.56 4712.51" stroke="#F5F5ED" stroke-width="16.3043" stroke-miterlimit="10" stroke-linecap="round" stroke-linejoin="round"/>
<path d="M3328.14 5036.63C3328.14 5036.63 3186.1 4874.01 3231.43 4673.73" stroke="#F5F5ED" stroke-width="16.3043" stroke-miterlimit="10" stroke-linecap="round" stroke-linejoin="round"/>
<path d="M3403.05 4727.91C3403.05 4727.91 3298.8 4652.59 3333.37 4504.55" stroke="#F5F5ED" stroke-width="16.3043" stroke-miterlimit="10" stroke-linecap="round" stroke-linejoin="round"/>
<rect width="5000" height="5000" fill="#F8F8F8" fill-opacity="0.75"/>
</g>
<defs>
<clipPath id="clip0_46_249">
<rect width="5000" height="5000" fill="white"/>
</clipPath>
</defs>
</svg>
