<svg width="5000" height="5000" viewBox="0 0 5000 5000" fill="none" xmlns="http://www.w3.org/2000/svg">
<g clip-path="url(#clip0_48_629)">
<path d="M5000 0H0V5000H5000V0Z" fill="white"/>
<path d="M5841.17 3491.08C5535.47 3563.15 4979.27 3577.61 4163.08 3158.71C3517.82 2827.54 2960.37 2347.92 2528.17 1765.49C2007.77 1064.21 1303.83 -107.59 1708.25 -679.55C2279.42 -1487.33 5920.95 1668.86 6191.19 3046.24C6234.53 3267.12 6060.25 3439.43 5841.17 3491.08Z" fill="#E9F2ED"/>
<path d="M5841.17 8491.08C5535.47 8563.15 4979.27 8577.61 4163.08 8158.71C3517.82 7827.54 2960.37 7347.92 2528.17 6765.49C2007.77 6064.21 1303.83 4892.41 1708.25 4320.45C2279.42 3512.67 5920.95 6668.86 6191.19 8046.24C6234.53 8267.12 6060.25 8439.43 5841.17 8491.08Z" fill="#E9F2ED"/>
<path d="M841.17 3491.08C535.48 3563.15 -20.7302 3577.61 -836.92 3158.71C-1482.18 2827.54 -2039.63 2347.92 -2471.83 1765.49C-2992.23 1064.21 -3696.17 -107.59 -3291.75 -679.55C-2720.58 -1487.33 920.95 1668.86 1191.19 3046.24C1234.53 3267.12 1060.25 3439.43 841.17 3491.08Z" fill="#E9F2ED"/>
<path d="M3324.01 1344.84C3269.29 1392.91 3207.96 1432.19 3146.97 1472.32C2972 1587.44 2766.84 1699.06 2643.4 1872.16C2541.18 2015.51 2487.01 2192.03 2490.07 2367.99C2491.76 2465.3 2511.07 2562.3 2548.3 2652.3C2567.33 2698.3 2590.92 2742.29 2618.66 2783.61C2632.68 2804.5 2655.08 2853.01 2679.01 2863.62C2684.03 2865.84 2689.71 2865.86 2695.19 2865.78C2871.03 2863.22 3041.85 2797.51 3189.21 2701.54C3224.74 2678.4 3259.21 2653.41 3290.34 2624.62C3373.34 2547.86 3430.09 2446.17 3468.57 2339.86C3507.05 2233.55 3528.36 2121.94 3549.52 2010.88C3459.01 2042.09 3388.92 2132.29 3293.18 2132.64C3269.46 2132.73 3243.44 2125.3 3230.86 2105.18C3218.41 2085.27 3223.1 2058.31 3236.08 2038.73C3249.06 2019.16 3268.88 2005.34 3288.22 1992.01C3331.74 1962 3375.26 1932 3418.78 1901.99C3459.35 1874.02 3501.67 1844.04 3522.88 1799.56C3543.97 1755.32 3537.15 1708.07 3527.35 1655.79C3515.16 1590.81 3466.73 1238.64 3454.11 1240.33C3436.89 1242.65 3346.8 1324.82 3324.01 1344.84Z" fill="#FF7F40"/>
<path d="M3124.98 1639.8C3109.39 1705.42 3093.79 1771.05 3078.21 1836.68C3060.67 1910.51 3044.2 1984.71 3023.68 2057.79C2997.24 2151.91 2961.27 2242.86 2924.71 2333.42C2889.1 2421.63 2853.57 2509.91 2815.27 2597C2777.05 2683.91 2736.06 2769.68 2689.67 2852.55C2683.94 2862.78 2678.13 2872.96 2672.24 2883.1C2665.76 2894.25 2683.04 2904.33 2689.51 2893.19C2737.41 2810.73 2779.65 2725.13 2818.72 2638.18C2857.72 2551.38 2893.66 2463.25 2929.33 2375.04C2966.1 2284.11 3003.56 2193.23 3032.33 2099.37C3056.39 2020.9 3074.08 1940.6 3093.04 1860.79C3107.41 1800.31 3121.77 1739.83 3136.14 1679.35C3138.85 1667.95 3141.56 1656.54 3144.27 1645.14C3147.24 1632.6 3127.96 1627.26 3124.98 1639.8Z" fill="#F5F5ED"/>
<path d="M2997.78 1708.51C2988.3 1754.88 2978.94 1801.62 2976.88 1849.03C2975.86 1872.57 2976.88 1896.1 2980.44 1919.4C2983.89 1941.93 2990.59 1963.5 2998.09 1984.97C3006.4 2008.76 3015.04 2032.57 3018.53 2057.65C3019.28 2063 3026.11 2065.93 3030.83 2064.63C3036.6 2063.05 3038.56 2057.7 3037.81 2052.33C3031.74 2008.71 3010.34 1969.22 3001.84 1926.17C2993.06 1881.72 2995.99 1835.53 3002.73 1791.01C3006.64 1765.13 3011.82 1739.47 3017.07 1713.83C3018.15 1708.54 3015.54 1703.03 3010.09 1701.53C3005.14 1700.16 2998.87 1703.19 2997.78 1708.51Z" fill="#F5F5ED"/>
<path d="M2834.41 2601.27C2854.59 2582.98 2874.44 2564.38 2895.48 2547.07C2928 2520.32 2962.66 2496.49 2997.75 2473.26C3071.73 2424.29 3147.14 2377.18 3216.57 2321.75C3255.43 2290.73 3292.17 2257.01 3324.94 2219.55C3328.49 2215.49 3328.94 2209.41 3324.94 2205.41C3321.31 2201.78 3314.37 2201.33 3310.8 2205.41C3252.41 2272.17 3181.74 2326.23 3108.72 2375.96C3036.15 2425.38 2959.92 2470.07 2891.21 2524.93C2866.59 2544.59 2843.6 2565.98 2820.28 2587.13C2810.71 2595.79 2824.89 2609.9 2834.41 2601.27Z" fill="#F5F5ED"/>
<path d="M3094.95 1771.68C3091.98 1780.04 3099.98 1786.53 3107.72 1786.08C3115.24 1785.64 3121.56 1778.57 3127.16 1774.14C3139.37 1764.48 3151.31 1754.49 3162.99 1744.19C3185.88 1723.98 3207.72 1702.57 3228.37 1680.08C3240.32 1667.07 3251.85 1653.68 3263 1639.98C3266.4 1635.79 3267.09 1629.93 3263 1625.84C3259.48 1622.32 3252.28 1621.63 3248.86 1625.84C3227.13 1652.55 3203.88 1678.01 3179.17 1701.99C3166.92 1713.88 3154.33 1725.4 3141.41 1736.55C3135.06 1742.03 3128.64 1747.41 3122.13 1752.7C3118.88 1755.35 3115.61 1757.97 3112.32 1760.56C3110.44 1762.04 3108.56 1763.52 3106.66 1764.99C3105.91 1765.57 3105.17 1766.15 3104.42 1766.72C3106.16 1765.97 3107.88 1766.03 3109.6 1766.92C3111.13 1768.91 3112.66 1770.9 3114.2 1772.9C3114.14 1772.72 3114.07 1772.55 3114.01 1772.37C3114.01 1774.14 3114.01 1775.91 3114.01 1777.69C3114.09 1777.46 3114.17 1777.24 3114.25 1777.01C3116.06 1771.92 3112.21 1766.07 3107.27 1764.71C3101.72 1763.17 3096.76 1766.57 3094.95 1771.68Z" fill="#F5F5ED"/>
<path d="M2362.74 2001.29C2362.74 2001.29 2288.82 2093.69 2222.6 2055.19C2156.38 2016.69 2140.98 1933.53 2214.9 1801.09C2288.82 1668.65 2397.23 1652.22 2435.12 1667.11C2473.01 1682 2524.44 1796.47 2362.74 2001.29Z" stroke="#FFCD50" stroke-width="25.2085" stroke-miterlimit="10"/>
<path d="M893.43 2224.63C893.43 2224.63 907.54 2351.58 827.6 2372.74C747.67 2393.9 672.43 2342.18 627.77 2184.66C583.1 2027.14 653.31 1931.86 693.6 1914.3C733.88 1896.74 860.51 1944.86 893.43 2224.63Z" fill="#FBD04E"/>
<path d="M4716.86 4669.43C4716.86 4669.43 4836.14 4715.14 4818.27 4795.87C4800.4 4876.6 4719.93 4919.72 4559.47 4887.15C4399.02 4854.58 4346.56 4748.48 4349.44 4704.62C4352.31 4660.76 4453.17 4570.32 4716.86 4669.43Z" fill="#FBD04E"/>
<path d="M1558.94 1498.5C1558.94 1498.5 1753.77 1474.1 1766.98 1272.41C1766.97 1272.41 1600.01 1249.21 1558.94 1498.5Z" stroke="#238189" stroke-width="15" stroke-miterlimit="10" stroke-linecap="round" stroke-linejoin="round"/>
<path d="M2014.82 1268.76C2016.51 1278.12 1761.15 1260.61 1736.78 1079.63C1736.79 1079.63 1964.41 990.38 2014.82 1268.76Z" stroke="#238189" stroke-width="15" stroke-miterlimit="10" stroke-linecap="round" stroke-linejoin="round"/>
<path d="M1829.78 1586.99C1829.78 1586.99 2046.66 1481.05 2018.58 1273.43C2018.59 1273.43 1829.52 1304.08 1829.78 1586.99Z" stroke="#238189" stroke-width="15" stroke-miterlimit="10" stroke-linecap="round" stroke-linejoin="round"/>
<path d="M2301.12 1237.45C2301.12 1237.45 2081.43 1237.34 2029.32 1028.71C2029.31 1028.72 2289.61 949.86 2301.12 1237.45Z" stroke="#238189" stroke-width="15" stroke-miterlimit="10" stroke-linecap="round" stroke-linejoin="round"/>
<path d="M2311.74 1234.4C2311.74 1234.4 2382.73 1479.85 2106.45 1578.78C2106.45 1578.78 2053.78 1350.18 2311.74 1234.4Z" stroke="#238189" stroke-width="15" stroke-miterlimit="10" stroke-linecap="round" stroke-linejoin="round"/>
<path d="M2516.27 1187.42C2516.27 1187.42 2339.14 1177.04 2331.34 916.09C2331.34 916.09 2607.24 939.61 2516.27 1187.42Z" stroke="#238189" stroke-width="15" stroke-miterlimit="10" stroke-linecap="round" stroke-linejoin="round"/>
<path d="M2423.41 1538.68C2423.41 1538.68 2661.92 1404.75 2541.86 1180.06C2541.86 1180.06 2322.57 1257 2423.41 1538.68Z" stroke="#238189" stroke-width="15" stroke-miterlimit="10" stroke-linecap="round" stroke-linejoin="round"/>
<path d="M2789.09 1097.05C2789.09 1097.05 2566.84 1119.44 2574.46 796.66C2574.46 796.66 2866.54 884.79 2789.09 1097.05Z" stroke="#238189" stroke-width="15" stroke-miterlimit="10" stroke-linecap="round" stroke-linejoin="round"/>
<path d="M2730.8 1499.71C2730.8 1499.71 2937.24 1350.25 2814.17 1101.71C2814.17 1101.7 2588.68 1212.1 2730.8 1499.71Z" stroke="#238189" stroke-width="15" stroke-miterlimit="10" stroke-linecap="round" stroke-linejoin="round"/>
<path d="M3032.86 981.39C3032.86 981.39 2803.81 1003.76 2806.14 716.15C2806.14 716.15 3069.97 711.47 3032.86 981.39Z" stroke="#238189" stroke-width="15" stroke-miterlimit="10" stroke-linecap="round" stroke-linejoin="round"/>
<path d="M3009.27 1360.21C3009.27 1360.21 3204.89 1220.81 3059.47 973.73C3059.47 973.73 2852.16 1158.06 3009.27 1360.21Z" stroke="#238189" stroke-width="15" stroke-miterlimit="10" stroke-linecap="round" stroke-linejoin="round"/>
<path d="M3290.54 818.26C3290.54 818.26 3167.16 902.37 3029.79 624.38C3029.79 624.38 3275.75 544.64 3290.54 818.26Z" stroke="#238189" stroke-width="15" stroke-miterlimit="10" stroke-linecap="round" stroke-linejoin="round"/>
<path d="M3280 1155.82C3291.6 1166.66 3391.92 1054.35 3284.34 828.05C3284.34 828.05 3108.41 995.43 3280 1155.82Z" stroke="#238189" stroke-width="15" stroke-miterlimit="10" stroke-linecap="round" stroke-linejoin="round"/>
<path d="M3488.63 647.41C3488.63 647.41 3324.62 668.88 3274.59 453.72C3274.59 453.72 3481.68 423.81 3488.63 647.41Z" stroke="#238189" stroke-width="15" stroke-miterlimit="10" stroke-linecap="round" stroke-linejoin="round"/>
<path d="M3486.76 647.95C3486.76 647.95 3649.8 808.82 3495.72 967.94C3495.72 967.93 3326.97 828.49 3486.76 647.95Z" stroke="#238189" stroke-width="15" stroke-miterlimit="10" stroke-linecap="round" stroke-linejoin="round"/>
<path d="M1766.97 1272.41C1766.97 1272.41 3095.19 1349.34 3751.58 329.34" stroke="#238189" stroke-width="15" stroke-miterlimit="10" stroke-linecap="round" stroke-linejoin="round"/>
<path d="M2043.62 3951.58C2043.62 3951.58 1890.83 3979.9 1889.76 4139.85C1889.76 4139.85 2022.74 4150.43 2043.62 3951.58Z" stroke="#238189" stroke-width="15" stroke-miterlimit="10" stroke-linecap="round" stroke-linejoin="round"/>
<path d="M1694.12 4154.24C1692.35 4146.93 1894.9 4148.9 1922.56 4290.75C1922.56 4290.75 1746.87 4371.82 1694.12 4154.24Z" stroke="#238189" stroke-width="15" stroke-miterlimit="10" stroke-linecap="round" stroke-linejoin="round"/>
<path d="M1825.53 3894.24C1825.53 3894.24 1659.11 3988 1690.93 4150.73C1690.93 4150.72 1838.88 4117.73 1825.53 3894.24Z" stroke="#238189" stroke-width="15" stroke-miterlimit="10" stroke-linecap="round" stroke-linejoin="round"/>
<path d="M1469.4 4192.26C1469.4 4192.26 1642.97 4182.15 1693.82 4344.55C1693.82 4344.55 1491.84 4418.93 1469.4 4192.26Z" stroke="#238189" stroke-width="15" stroke-miterlimit="10" stroke-linecap="round" stroke-linejoin="round"/>
<path d="M1461.15 4195.17C1461.15 4195.17 1393.67 4004.56 1607.35 3913.57C1607.34 3913.57 1659.56 4091.73 1461.15 4195.17Z" stroke="#238189" stroke-width="15" stroke-miterlimit="10" stroke-linecap="round" stroke-linejoin="round"/>
<path d="M1301.74 4241.78C1301.74 4241.78 1442.16 4241.76 1460.44 4447.55C1460.44 4447.55 1241.38 4441.78 1301.74 4241.78Z" stroke="#238189" stroke-width="15" stroke-miterlimit="10" stroke-linecap="round" stroke-linejoin="round"/>
<path d="M1358.8 3959.96C1358.8 3959.96 1176.59 4076.84 1281.87 4248.78C1281.87 4248.78 1451.54 4177.81 1358.8 3959.96Z" stroke="#238189" stroke-width="15" stroke-miterlimit="10" stroke-linecap="round" stroke-linejoin="round"/>
<path d="M1090.41 4325.84C1090.41 4325.84 1264.95 4297.83 1273.92 4553.19C1273.91 4553.19 1039.07 4497.13 1090.41 4325.84Z" stroke="#238189" stroke-width="15" stroke-miterlimit="10" stroke-linecap="round" stroke-linejoin="round"/>
<path d="M1117.76 4005.02C1117.76 4005.02 961.61 4132.68 1070.37 4323.32C1070.37 4323.33 1243.39 4225.64 1117.76 4005.02Z" stroke="#238189" stroke-width="15" stroke-miterlimit="10" stroke-linecap="round" stroke-linejoin="round"/>
<path d="M903.19 4428.53C903.19 4428.53 1083.11 4400.22 1094.62 4627.55C1094.62 4627.55 886.4 4643.49 903.19 4428.53Z" stroke="#238189" stroke-width="15" stroke-miterlimit="10" stroke-linecap="round" stroke-linejoin="round"/>
<path d="M904.24 4128.15C904.24 4128.15 756.17 4247.36 882.52 4435.81C882.52 4435.81 1037.75 4280.57 904.24 4128.15Z" stroke="#238189" stroke-width="15" stroke-miterlimit="10" stroke-linecap="round" stroke-linejoin="round"/>
<path d="M707.19 4569.37C707.19 4569.37 800.76 4497.19 922.19 4710.43C922.19 4710.43 731.58 4784.85 707.19 4569.37Z" stroke="#238189" stroke-width="15" stroke-miterlimit="10" stroke-linecap="round" stroke-linejoin="round"/>
<path d="M699.84 4302.2C690.17 4294.17 616.13 4387.56 711.63 4561.35C711.63 4561.35 842.85 4420.95 699.84 4302.2Z" stroke="#238189" stroke-width="15" stroke-miterlimit="10" stroke-linecap="round" stroke-linejoin="round"/>
<path d="M558.62 4713.54C558.62 4713.54 687.2 4688.97 736.71 4856.62C736.72 4856.62 574.49 4889.86 558.62 4713.54Z" stroke="#238189" stroke-width="15" stroke-miterlimit="10" stroke-linecap="round" stroke-linejoin="round"/>
<path d="M560.07 4713.03C560.07 4713.03 423.79 4593.51 538.14 4460.65C538.14 4460.65 677.93 4562.98 560.07 4713.03Z" stroke="#238189" stroke-width="15" stroke-miterlimit="10" stroke-linecap="round" stroke-linejoin="round"/>
<path d="M1889.76 4139.85C1889.76 4139.85 836.86 4140.73 365.66 4977.03" stroke="#238189" stroke-width="15" stroke-miterlimit="10" stroke-linecap="round" stroke-linejoin="round"/>
<path d="M-398.85 1577.71C-408.69 1523.48 -411.45 1469.38 -402.26 1419.01C-392.74 1366.83 -365.17 1315.96 -319.8 1288.48C-254.19 1248.74 -166.12 1261.97 -114.47 1197.56C-85.1599 1161.01 -77.3099 1111.67 -77.3499 1064.82C-77.4399 956.29 -88.6999 847.27 -67.4299 739.72C-61.1199 707.83 -52.1199 674.11 -27.7099 652.63C12.9201 616.88 72.4601 627.24 120.95 611.55C206.15 583.98 250.75 491.54 279.23 413.35C311.39 325.07 339.05 226.74 412.49 162.64C467.92 114.26 556.1 90.0801 622.14 131.99C817.11 255.74 587.76 531.17 633.16 697.55C649.59 757.76 691.91 805.73 714.22 863.29C738.16 925.05 735.9 992.21 715.71 1054.75C674 1183.93 495.01 1317.14 538.88 1464.88C563.57 1548.04 609.05 1614.52 606.04 1704.76C601.25 1848.73 504.53 1949.85 381.47 2011.44C283.97 2060.23 173.2 2095.19 67.7701 2122.22C17.5201 2135.11 -97.2399 2153.8 -97.2399 2153.8C-97.2399 2153.8 -263.75 1944.92 -317.54 1823.2C-349.53 1750.76 -383.18 1664.08 -398.85 1577.71Z" fill="#45BE93"/>
<path d="M554.76 108.89C539.93 240.19 508.47 368.8 477.18 496.93C426.85 703.03 397.4 912.97 337.33 1116.81C285.05 1294.22 223.16 1474.71 154.05 1648.64C85.9901 1819.91 1.09007 1981.22 -99.6799 2150.32" stroke="#FAF5EF" stroke-width="16.5611" stroke-miterlimit="10" stroke-linecap="round" stroke-linejoin="round"/>
<path d="M456.76 140.84C456.8 138.33 456.84 135.82 456.87 133.31C452.24 186.11 456.15 239.66 468.4 291.23C474.36 316.3 483.18 342.31 502.9 358.91C502.46 357.73 502.03 356.55 501.59 355.37" stroke="#FAF5EF" stroke-width="16.5611" stroke-miterlimit="10" stroke-linecap="round" stroke-linejoin="round"/>
<path d="M691.43 366.71C619.3 443.34 552.06 515.54 462.81 571.3" stroke="#FAF5EF" stroke-width="16.5611" stroke-miterlimit="10" stroke-linecap="round" stroke-linejoin="round"/>
<path d="M632.55 590.99C600.57 622.48 563.84 644.19 525.5 667.53C496.66 685.09 467.59 702.77 435.91 714.45" stroke="#FAF5EF" stroke-width="16.5611" stroke-miterlimit="10" stroke-linecap="round" stroke-linejoin="round"/>
<path d="M432.77 706.5C382.82 602.9 341.85 485.84 323.51 372.02C320.38 352.6 318.67 332.96 318.38 313.29" stroke="#FAF5EF" stroke-width="16.5611" stroke-miterlimit="10" stroke-linecap="round" stroke-linejoin="round"/>
<path d="M202.43 555.66C201.71 586.73 265.1 878.11 363.27 1013.99" stroke="#FAF5EF" stroke-width="16.5611" stroke-miterlimit="10" stroke-linecap="round" stroke-linejoin="round"/>
<path d="M678.79 795.17C651.12 831.84 620.73 866.47 587.96 898.66C515.79 969.57 432.68 1028.19 349.98 1086.48" stroke="#FAF5EF" stroke-width="16.5611" stroke-miterlimit="10" stroke-linecap="round" stroke-linejoin="round"/>
<path d="M-2.46985 639.28C-3.56985 771.83 28.4501 889.59 80.3001 1007.28C131.13 1122.64 186.33 1237.4 263.88 1336.79" stroke="#FAF5EF" stroke-width="16.5611" stroke-miterlimit="10" stroke-linecap="round" stroke-linejoin="round"/>
<path d="M-70.0999 754.25C-64.7999 805.53 -38.6899 912.86 -13.5299 982.19C34.9301 1115.73 99.5202 1242.91 163.44 1369.78C180.34 1403.33 197.75 1436.95 221.17 1466.32" stroke="#FAF5EF" stroke-width="16.5611" stroke-miterlimit="10" stroke-linecap="round" stroke-linejoin="round"/>
<path d="M700.9 1090.7C678.44 1124.59 602.19 1170.39 584.03 1182.09C570.56 1190.77 557.09 1199.44 543.63 1208.12C527.58 1218.46 511.52 1228.8 495.45 1239.11C416.63 1289.68 337.17 1339.67 252.97 1380.68" stroke="#FAF5EF" stroke-width="16.5611" stroke-miterlimit="10" stroke-linecap="round" stroke-linejoin="round"/>
<path d="M-97.97 1167.63C-84.97 1371.04 -21.78 1575.32 114.89 1729.49" stroke="#FAF5EF" stroke-width="16.5611" stroke-miterlimit="10" stroke-linecap="round" stroke-linejoin="round"/>
<path d="M-257.33 1263.17C-307.23 1485.68 -63.1099 1916.36 -0.419891 1970.82" stroke="#FAF5EF" stroke-width="16.5611" stroke-miterlimit="10" stroke-linecap="round" stroke-linejoin="round"/>
<path d="M533.28 1396.64C533.28 1396.64 312.41 1563.71 171.14 1605.76" stroke="#FAF5EF" stroke-width="16.5611" stroke-miterlimit="10" stroke-linecap="round" stroke-linejoin="round"/>
<path d="M548.31 1493.44C548.31 1493.44 208 1764.8 99.53 1785.43" stroke="#FAF5EF" stroke-width="16.5611" stroke-miterlimit="10" stroke-linecap="round" stroke-linejoin="round"/>
<path d="M603.22 1657.13C603.22 1657.13 463.3 1888.77 -36.98 2042.3" stroke="#FAF5EF" stroke-width="16.5611" stroke-miterlimit="10" stroke-linecap="round" stroke-linejoin="round"/>
<path d="M3200.15 4544.65C3176.51 4575.35 3149.6 4602.29 3119 4621.24C3087.31 4640.87 3047.78 4650.48 3012.06 4639.77C2960.41 4624.29 2925.79 4572.13 2867.85 4575.56C2834.97 4577.51 2805.55 4596.67 2781.13 4618.78C2724.58 4669.99 2673.04 4727.25 2606.92 4766.86C2587.32 4778.61 2565.49 4789.8 2542.78 4787.2C2504.99 4782.87 2482.32 4746.94 2451.28 4729.05C2396.74 4697.62 2327.51 4717.94 2273.31 4739.95C2212.11 4764.8 2147.8 4796.73 2079.75 4788.65C2028.39 4782.55 1974.21 4747.97 1964.94 4693.77C1937.56 4533.76 2189.31 4523.52 2254.66 4421.41C2278.31 4384.46 2283.38 4339.78 2302.88 4301.01C2323.8 4259.41 2359.89 4228.93 2402.02 4209.98C2489.04 4170.83 2642.88 4201.37 2699.24 4108.85C2730.96 4056.77 2744.2 4001.72 2792.66 3960.75C2869.99 3895.38 2968.32 3898.14 3058.44 3933.28C3129.84 3961.12 3200.29 4002.41 3264.09 4044.63C3294.5 4064.76 3358.34 4115.79 3358.34 4115.79C3358.34 4115.79 3327.91 4301.09 3289.8 4386.52C3267.14 4437.35 3237.8 4495.76 3200.15 4544.65Z" fill="#238189"/>
<path d="M1984.68 4739.8C2060.13 4685.64 2142.03 4641.42 2223.6 4597.33C2354.8 4526.42 2478.15 4442.81 2612.77 4378.04C2729.93 4321.67 2853.22 4268.86 2976.5 4222.9C3097.89 4177.65 3222.03 4145.88 3357.71 4118.71" stroke="#45BE93" stroke-width="11.6417" stroke-miterlimit="10" stroke-linecap="round" stroke-linejoin="round"/>
<path d="M2047.54 4775.84C2046.21 4777 2044.89 4778.17 2043.56 4779.33C2073.28 4756.85 2099.36 4729.57 2120.47 4698.87C2130.74 4683.94 2140.14 4667.08 2139.5 4648.98C2139.09 4649.76 2138.68 4650.55 2138.27 4651.33" stroke="#45BE93" stroke-width="11.6417" stroke-miterlimit="10" stroke-linecap="round" stroke-linejoin="round"/>
<path d="M2054.7 4547C2128.66 4548.49 2198.01 4549.52 2269.16 4569.77" stroke="#45BE93" stroke-width="11.6417" stroke-miterlimit="10" stroke-linecap="round" stroke-linejoin="round"/>
<path d="M2199.41 4471.97C2230.91 4473.8 2259.54 4482.72 2289.79 4491.71C2312.54 4498.47 2335.46 4505.3 2356.49 4516.31" stroke="#45BE93" stroke-width="11.6417" stroke-miterlimit="10" stroke-linecap="round" stroke-linejoin="round"/>
<path d="M2353.82 4521.69C2323.34 4596.58 2281.62 4673.12 2230.91 4736.34C2222.26 4747.12 2212.83 4757.28 2202.71 4766.7" stroke="#45BE93" stroke-width="11.6417" stroke-miterlimit="10" stroke-linecap="round" stroke-linejoin="round"/>
<path d="M2383.75 4712.91C2400.29 4698.64 2522.35 4528.22 2546.93 4412.98" stroke="#45BE93" stroke-width="11.6417" stroke-miterlimit="10" stroke-linecap="round" stroke-linejoin="round"/>
<path d="M2284.08 4351.61C2316.25 4348.75 2348.63 4348.28 2380.87 4350.19C2451.87 4354.4 2521.62 4370.1 2590.99 4385.75" stroke="#45BE93" stroke-width="11.6417" stroke-miterlimit="10" stroke-linecap="round" stroke-linejoin="round"/>
<path d="M2523.94 4780.34C2593.57 4718.43 2639.89 4646.22 2676.82 4563.7C2713.02 4482.81 2746.83 4399.93 2762.1 4312.64" stroke="#45BE93" stroke-width="11.6417" stroke-miterlimit="10" stroke-linecap="round" stroke-linejoin="round"/>
<path d="M2615.78 4761.41C2640.03 4734.47 2683.68 4670.26 2707.97 4624.46C2754.76 4536.24 2790.63 4442.61 2826.65 4349.47C2836.17 4324.84 2845.5 4299.91 2849.78 4273.86" stroke="#45BE93" stroke-width="11.6417" stroke-miterlimit="10" stroke-linecap="round" stroke-linejoin="round"/>
<path d="M2427.76 4200.76C2456.02 4196.5 2515.85 4214.66 2530.51 4218.62C2541.38 4221.55 2552.26 4224.49 2563.13 4227.42C2576.09 4230.92 2589.05 4234.41 2602 4237.93C2665.53 4255.19 2729.06 4273.06 2790.13 4297.64" stroke="#45BE93" stroke-width="11.6417" stroke-miterlimit="10" stroke-linecap="round" stroke-linejoin="round"/>
<path d="M2844.48 4581.07C2944.42 4478.4 3021.15 4349.15 3037.12 4205.21" stroke="#45BE93" stroke-width="11.6417" stroke-miterlimit="10" stroke-linecap="round" stroke-linejoin="round"/>
<path d="M2969.42 4619.13C3108.97 4540.25 3218.47 4209.93 3217.32 4151.57" stroke="#45BE93" stroke-width="11.6417" stroke-miterlimit="10" stroke-linecap="round" stroke-linejoin="round"/>
<path d="M3019.72 4641.74C3019.72 4641.74 3250.1 4470.47 3312.22 4132.39" stroke="#45BE93" stroke-width="11.6417" stroke-miterlimit="10" stroke-linecap="round" stroke-linejoin="round"/>
<path d="M2666.32 4143.94C2666.32 4143.94 2857.56 4180.35 2946.09 4234.2" stroke="#45BE93" stroke-width="11.6417" stroke-miterlimit="10" stroke-linecap="round" stroke-linejoin="round"/>
<path d="M2709.7 4090.47C2709.7 4090.47 3011.63 4140.01 3073.52 4186.84" stroke="#45BE93" stroke-width="11.6417" stroke-miterlimit="10" stroke-linecap="round" stroke-linejoin="round"/>
<path d="M2769.18 3984.68C2769.18 3984.68 2955.93 3948.45 3271.83 4136.94" stroke="#45BE93" stroke-width="11.6417" stroke-miterlimit="10" stroke-linecap="round" stroke-linejoin="round"/>
<path d="M4601.15 1577.71C4591.31 1523.48 4588.55 1469.38 4597.74 1419.01C4607.26 1366.83 4634.83 1315.96 4680.2 1288.48C4745.81 1248.74 4833.88 1261.97 4885.53 1197.56C4914.84 1161.01 4922.69 1111.67 4922.65 1064.82C4922.56 956.29 4911.3 847.27 4932.57 739.72C4938.88 707.83 4947.88 674.11 4972.29 652.63C5012.92 616.88 5072.46 627.24 5120.95 611.55C5206.15 583.98 5250.75 491.54 5279.23 413.35C5311.39 325.07 5339.05 226.74 5412.49 162.64C5467.92 114.26 5556.09 90.0801 5622.14 131.99C5817.11 255.74 5587.76 531.17 5633.16 697.55C5649.59 757.76 5691.91 805.73 5714.22 863.29C5738.16 925.05 5735.9 992.21 5715.71 1054.75C5674 1183.93 5495.01 1317.14 5538.88 1464.88C5563.57 1548.04 5609.05 1614.52 5606.04 1704.76C5601.25 1848.73 5504.53 1949.85 5381.47 2011.44C5283.97 2060.23 5173.2 2095.19 5067.77 2122.22C5017.52 2135.11 4902.76 2153.8 4902.76 2153.8C4902.76 2153.8 4736.25 1944.92 4682.46 1823.2C4650.47 1750.76 4616.82 1664.08 4601.15 1577.71Z" fill="#45BE93"/>
<path d="M5554.76 108.89C5539.93 240.19 5508.47 368.8 5477.18 496.93C5426.85 703.03 5397.4 912.97 5337.33 1116.81C5285.05 1294.22 5223.16 1474.71 5154.05 1648.64C5086 1819.91 5001.09 1981.21 4900.33 2150.31" stroke="#FAF5EF" stroke-width="16.5611" stroke-miterlimit="10" stroke-linecap="round" stroke-linejoin="round"/>
<path d="M4997.53 639.28C4996.43 771.83 5028.45 889.59 5080.3 1007.28C5131.13 1122.64 5186.33 1237.4 5263.88 1336.79" stroke="#FAF5EF" stroke-width="16.5611" stroke-miterlimit="10" stroke-linecap="round" stroke-linejoin="round"/>
<path d="M4929.9 754.25C4935.2 805.53 4961.31 912.86 4986.47 982.19C5034.93 1115.73 5099.52 1242.91 5163.44 1369.78C5180.34 1403.33 5197.75 1436.95 5221.17 1466.32" stroke="#FAF5EF" stroke-width="16.5611" stroke-miterlimit="10" stroke-linecap="round" stroke-linejoin="round"/>
<path d="M4902.03 1167.63C4915.03 1371.04 4978.22 1575.32 5114.89 1729.49" stroke="#FAF5EF" stroke-width="16.5611" stroke-miterlimit="10" stroke-linecap="round" stroke-linejoin="round"/>
<path d="M4742.67 1263.17C4692.77 1485.68 4936.89 1916.36 4999.58 1970.82" stroke="#FAF5EF" stroke-width="16.5611" stroke-miterlimit="10" stroke-linecap="round" stroke-linejoin="round"/>
<path d="M4670.83 1294.69C4670.83 1294.69 4631.79 1701.2 4929.29 2089.28" stroke="#FAF5EF" stroke-width="16.5611" stroke-miterlimit="10" stroke-linecap="round" stroke-linejoin="round"/>
<path d="M5603.22 1657.13C5603.22 1657.13 5463.3 1888.77 4963.02 2042.3" stroke="#FAF5EF" stroke-width="16.5611" stroke-miterlimit="10" stroke-linecap="round" stroke-linejoin="round"/>
<path d="M241.42 4297.52C250.45 4220.02 184.72 4207.89 135.34 4274.56C-18.9701 4482.89 260.86 4820.64 395.83 4746.71C491.81 4694.13 208.16 4583.13 241.42 4297.52Z" fill="#FE674C"/>
<path d="M228.357 269.109C255.258 199.945 247.277 132.29 210.531 117.997C173.784 103.705 122.187 148.187 95.286 217.351C68.3847 286.515 76.3659 354.17 113.112 368.463C149.859 382.755 201.456 338.273 228.357 269.109Z" stroke="#FF981D" stroke-width="29.128" stroke-miterlimit="10" stroke-linecap="round" stroke-linejoin="round"/>
<path d="M2491.13 2843.96C2488.19 2836.15 2485.12 2828.38 2481.92 2820.65C2476.5 2807.56 2469.29 2793.32 2455.85 2788.83C2389.63 2766.72 2374.24 2894.99 2306.24 2796.24C2280.47 2758.82 2267.18 2707.31 2260.07 2662.94C2231.03 2524.3 2185.86 2389.05 2125.77 2260.78C2109.95 2227 2041.27 2076.98 1994.14 2079.74C1944.58 2082.64 1985.71 2184.33 1954.57 2213.08C1930.97 2234.87 1892.66 2217.92 1868.28 2197C1682.04 2037.18 1706.79 1719.26 1521.44 1558.41C1502.85 1542.28 1475.49 1527.83 1455.07 1541.57C1435.58 1554.68 1437.26 1583.15 1438.8 1606.59C1441.31 1644.66 1437.6 1683.13 1427.87 1720.02C1423.54 1736.45 1416.22 1754.54 1400.32 1760.53C1383 1767.06 1364.34 1756.12 1349.56 1744.99C1279.58 1692.28 1222.38 1624.68 1157.27 1566.06C1092.16 1507.44 1014.86 1456.22 927.67 1447.58C899.73 1444.81 870.45 1446.78 845.5 1459.64C789.58 1488.47 772.79 1564.63 791.49 1624.7C810.19 1684.77 855.26 1732.37 898.93 1777.66C990 1872.1 1081.08 1966.55 1172.15 2060.99C1186.97 2076.36 1202.98 2097.1 1194.9 2116.86C1180.37 2152.42 1118.08 2128.22 1092.2 2156.61C1067.7 2183.49 1098.25 2224.24 1126.66 2246.95C1228.56 2328.44 1330.47 2409.93 1432.37 2491.42C1460.94 2514.26 1491.43 2556.01 1465.86 2582.16C1453.13 2595.18 1431.16 2596.34 1419.78 2610.54C1403 2631.47 1420.69 2661.86 1439 2681.46C1549.55 2799.78 1698.06 2877.44 1808.39 2995.96C1834.44 3023.95 1857.03 3071.95 1827.17 3095.82C1801.62 3116.25 1755.84 3098.89 1736.19 3125.04C1716.08 3151.79 1747.35 3186.56 1775.19 3205.13C1978.73 3340.92 2203.11 3493.1 2442.43 3556.76C2457.22 3560.7 2472.78 3564.11 2487.72 3560.74C2512.66 3555.11 2522.88 3528.85 2526.26 3506.16C2558.57 3289.6 2569.77 3052.68 2491.13 2843.96Z" fill="#FE674C"/>
<path d="M2026.09 2285.93C2023 2274.82 2019.92 2263.71 2016.83 2252.6C2066.55 2418.28 2078.59 2595.15 2051.78 2766.04" stroke="#F5F5ED" stroke-width="17.4224" stroke-miterlimit="10" stroke-linecap="round" stroke-linejoin="round"/>
<path d="M2457.2 3467.34C2382.44 3303.73 2296.85 3145.06 2201.17 2992.73C2176.16 2952.91 2150.46 2913.52 2124.45 2874.35C1808.8 2398.95 1441.97 1949.86 985.13 1607.89" stroke="#F5F5ED" stroke-width="17.4224" stroke-miterlimit="10" stroke-linecap="round" stroke-linejoin="round"/>
<path d="M1265.17 2230.41C1391.23 2259.03 1521.96 2267 1650.57 2253.93" stroke="#F5F5ED" stroke-width="17.4224" stroke-miterlimit="10" stroke-linecap="round" stroke-linejoin="round"/>
<path d="M1550.79 2650.43C1689.62 2740.65 1863.86 2753.07 2029.43 2753.7" stroke="#F5F5ED" stroke-width="17.4224" stroke-miterlimit="10" stroke-linecap="round" stroke-linejoin="round"/>
<path d="M1910.02 3157.71C2053.59 3224.35 2208.82 3272.15 2367.35 3282.92" stroke="#F5F5ED" stroke-width="17.4224" stroke-miterlimit="10" stroke-linecap="round" stroke-linejoin="round"/>
<path d="M2374.2 2917.68C2389.31 2982.48 2404.47 3047.62 2409.01 3114.01C2413.54 3180.39 2407 3248.67 2380.21 3309.57" stroke="#F5F5ED" stroke-width="17.4224" stroke-miterlimit="10" stroke-linecap="round" stroke-linejoin="round"/>
<path d="M1547.25 1790.19C1547.25 1790.19 1579.94 1905.88 1596.28 1963.72C1619.72 2046.68 1643.37 2131.36 1639.8 2217.5" stroke="#F5F5ED" stroke-width="17.4224" stroke-miterlimit="10" stroke-linecap="round" stroke-linejoin="round"/>
<path d="M4303.15 320.67C4298.61 325.69 4294.14 330.78 4289.75 335.96C4282.32 344.72 4274.72 355.2 4276.46 366.56C4285.06 422.52 4383.28 386.07 4337.27 471.73C4319.83 504.19 4287.6 532.87 4258.23 554.45C4169 626.78 4088.19 709.5 4017.95 800.4C3999.45 824.33 3916.7 929.49 3936.16 962.46C3956.63 997.13 4014.73 929.77 4047.01 941.57C4071.48 950.51 4073.45 984.43 4067.4 1009.77C4021.16 1203.35 3782.68 1303.36 3735.37 1496.68C3730.63 1516.07 3730.35 1541.16 3747.83 1550.8C3764.51 1559.99 3784.43 1548.23 3800.76 1538.43C3827.29 1522.51 3856.41 1510.92 3886.62 1504.26C3900.08 1501.29 3915.84 1499.87 3926.05 1509.11C3937.18 1519.18 3936.21 1536.7 3933.66 1551.49C3921.58 1621.51 3894.03 1687.83 3875.89 1756.53C3857.75 1825.23 3849.45 1899.97 3875.55 1966.06C3883.91 1987.24 3896.18 2007.63 3914.71 2020.86C3956.24 2050.5 4017.39 2034.38 4053.79 1998.63C4090.19 1962.87 4107.81 1912.71 4124.29 1864.42C4158.65 1763.72 4193.01 1663.01 4227.37 1562.31C4232.96 1545.92 4241.99 1526.69 4259.24 1525.19C4290.28 1522.48 4295.91 1576.39 4325.99 1584.53C4354.46 1592.23 4372.53 1555.09 4378.38 1526.19C4399.38 1422.48 4420.38 1318.76 4441.38 1215.05C4447.27 1185.98 4466.07 1148.51 4494.42 1157.26C4508.53 1161.62 4517.51 1177.03 4531.98 1179.98C4553.3 1184.32 4568.66 1160.3 4576.01 1139.82C4620.37 1016.22 4621.33 880.31 4665.92 756.79C4676.45 727.62 4702.7 693.54 4730.99 706.23C4755.19 717.08 4759.65 756.54 4785.79 761.02C4812.54 765.6 4826.03 730.17 4829.1 703.2C4851.59 506.04 4878.17 287.79 4835.37 91.5602C4832.72 79.4302 4829.42 66.9402 4821.45 57.4202C4808.14 41.5102 4785.41 43.8802 4767.79 49.8502C4599.59 106.81 4424.55 186.56 4303.15 320.67Z" fill="#FBD04E"/>
<path d="M4073.04 862.97C4066.17 869.31 4059.3 875.66 4052.43 882C4153.5 784.71 4276.62 710.46 4409.82 666.45" stroke="#F5F5ED" stroke-width="14.1295" stroke-miterlimit="10" stroke-linecap="round" stroke-linejoin="round"/>
<path d="M4765.37 114.04C4675.07 228.62 4592.36 349.18 4517.95 474.66C4498.5 507.46 4479.62 540.6 4461 573.88C4235.11 977.8 4047.17 1408.88 3969.87 1865.17" stroke="#F5F5ED" stroke-width="14.1295" stroke-miterlimit="10" stroke-linecap="round" stroke-linejoin="round"/>
<path d="M4315.09 1432.41C4289 1330.87 4246.29 1233.62 4189.18 1145.71" stroke="#F5F5ED" stroke-width="14.1295" stroke-miterlimit="10" stroke-linecap="round" stroke-linejoin="round"/>
<path d="M4512.16 1070.68C4525.77 937.1 4470.13 806.81 4409.21 687.15" stroke="#F5F5ED" stroke-width="14.1295" stroke-miterlimit="10" stroke-linecap="round" stroke-linejoin="round"/>
<path d="M4744.89 623.5C4739.73 495.24 4716.66 365.55 4665.66 247.21" stroke="#F5F5ED" stroke-width="14.1295" stroke-miterlimit="10" stroke-linecap="round" stroke-linejoin="round"/>
<path d="M4399.67 377.67C4440.81 342.75 4482.18 307.66 4528.38 279.78C4574.58 251.9 4626.25 231.31 4680.12 228.05" stroke="#F5F5ED" stroke-width="14.1295" stroke-miterlimit="10" stroke-linecap="round" stroke-linejoin="round"/>
<path d="M3892.98 1392.14C3892.98 1392.14 3964.31 1325.68 3999.97 1292.44C4051.12 1244.78 4103.43 1196.32 4166.89 1166.97" stroke="#F5F5ED" stroke-width="14.1295" stroke-miterlimit="10" stroke-linecap="round" stroke-linejoin="round"/>
<path d="M1846.64 3535.33C1793.72 3500.72 1741.45 3467.37 1701.62 3410.37C1670.53 3365.89 1649.68 3314.91 1618.55 3270.45C1582.84 3219.45 1533.03 3175.43 1475.51 3150.81C1420.81 3127.39 1321.55 3100.26 1298.93 3181.63C1292.93 3203.19 1296.37 3226.14 1300.27 3248.18C1317.45 3345.08 1343.13 3440.47 1376.9 3532.91C1405.67 3611.66 1443.45 3715.4 1533.16 3741.03C1621.85 3766.37 1710.58 3746.28 1799.7 3736.54C1846.45 3731.43 1949.18 3729.95 1966.5 3673.33C1974.76 3646.31 1956.05 3618.44 1934.86 3599.75C1906.67 3574.86 1876.55 3554.89 1846.64 3535.33Z" fill="#FBD04E"/>
<path d="M2217.93 3617.43C2286.66 3653.46 2405.28 3714.37 2421.96 3857.23C2434.5 3964.55 2333.37 4145.88 2260.22 4110.71C2190.57 4077.23 2204.82 4011.47 2228.62 3946.48C2303.23 3742.75 2140.03 3734.06 2118.7 3682.99C2094.54 3625.12 2158.23 3586.13 2217.93 3617.43Z" fill="#FF981D"/>
<path d="M3943.86 88.72C4013.41 130.57 4133.51 201.45 4142.16 351.65C4148.65 464.48 4031.91 647.59 3957.69 606.38C3887.03 567.14 3905.95 499.35 3934.79 432.96C4025.22 224.83 3855.34 205.72 3836.22 151.08C3814.56 89.16 3883.46 52.37 3943.86 88.72Z" fill="#288594"/>
<path d="M736 -108.81C736 -108.81 1290.96 278.45 888.35 1017.05C888.35 1017.05 794.87 1270.17 1003.54 1243.01C1258.61 1209.82 1510.19 681.96 1260.64 324.54C1260.64 324.54 1921.65 1056.85 2392.86 726.11C2433.32 697.71 2462.37 625.43 2440.94 580.89C2413.86 524.6 2333.44 459.45 2115.74 432.7C1697.75 381.33 1540.5 302.7 1385.27 125.04C1230.04 -52.6198 1034.02 -75.6898 1034.02 -75.6898C1034.02 -75.6898 1512.61 42.1802 1809.04 -264.85C1858.78 -316.36 1879.53 -387.06 1872.63 -458.33C1867.7 -509.29 1802.46 -619.1 1648.68 -522.15C1583.52 -481.07 1411.83 -165.98 736 -108.81Z" fill="#FFCD50"/>
<path d="M2101.66 811.63C2101.66 811.63 2339.07 755.26 2336.89 649.42C2335.55 584.4 2227.61 493.51 2077.39 488.46C1889.09 482.12 1559.03 407.81 1362.39 191.77C1129.58 -64.0096 967.17 -87.3496 774.26 -105.26L736 -108.81C1370.41 244.84 1354.56 847.28 1183.02 1061.95C1011.48 1276.62 867.84 1142.29 867.84 1142.29" stroke="#FF7F40" stroke-width="17.9577" stroke-miterlimit="10" stroke-linecap="round" stroke-linejoin="round"/>
<path d="M5195.07 3836.2C5195.07 3836.2 4685.9 3251.05 5339.29 2541.99C5339.29 2541.99 5513.74 2286.6 5274.16 2258.67C4981.32 2224.52 4554.56 2741.35 4732.46 3208.26C4732.46 3208.26 4201.5 2209.93 3585.47 2446.4C3532.58 2466.7 3480.14 2538.98 3491.56 2594.47C3505.99 2664.6 3577.26 2759.43 3811.86 2849.82C4262.29 3023.37 4415.22 3154.59 4538.34 3395.36C4661.45 3636.13 4872.95 3716.38 4872.95 3716.38C4872.95 3716.38 4373.66 3452.02 3958.56 3710.81C3888.91 3754.23 3846.14 3827.05 3833.96 3908.22C3825.25 3966.25 3867.19 4106.52 4065.18 4041.55C4149.06 4014.02 4427.72 3711.51 5195.07 3836.2Z" fill="#288594"/>
<path d="M3933.05 2432.42C3933.05 2432.42 3653.39 2428.96 3626.33 2547.25C3609.7 2619.92 3704.4 2751.04 3870.01 2798.5C4077.61 2858 4423.89 3032.56 4582.34 3327.53C4769.95 3676.76 4944.01 3747.95 5153.51 3821.59L5195.07 3836.2C4588.21 3266.28 4773.64 2600.88 5024.17 2409.98C5274.7 2219.08 5396.98 2408.45 5396.98 2408.45" stroke="#45BE93" stroke-width="20.5833" stroke-miterlimit="10" stroke-linecap="round" stroke-linejoin="round"/>
<path d="M3887.18 3777.11C3887.18 3777.11 3874.59 3947.17 4053.01 3929.81C4267.25 3908.96 4321.37 3598.76 5195.08 3836.2" stroke="#45BE93" stroke-width="20.5833" stroke-miterlimit="10" stroke-linecap="round" stroke-linejoin="round"/>
<path d="M195.07 3836.2C195.07 3836.2 -314.1 3251.05 339.29 2541.99C339.29 2541.99 513.74 2286.6 274.16 2258.67C-18.68 2224.52 -445.44 2741.35 -267.54 3208.26C-267.54 3208.26 -798.5 2209.93 -1414.53 2446.4C-1467.42 2466.7 -1519.86 2538.98 -1508.44 2594.47C-1494.01 2664.6 -1422.74 2759.43 -1188.14 2849.82C-737.71 3023.37 -584.78 3154.59 -461.66 3395.36C-338.54 3636.13 -127.05 3716.38 -127.05 3716.38C-127.05 3716.38 -626.34 3452.02 -1041.44 3710.81C-1111.09 3754.23 -1153.86 3827.05 -1166.04 3908.22C-1174.75 3966.25 -1132.81 4106.52 -934.82 4041.55C-850.94 4014.02 -572.28 3711.51 195.07 3836.2Z" fill="#288594"/>
<path d="M-1066.95 2432.42C-1066.95 2432.42 -1346.61 2428.96 -1373.67 2547.25C-1390.3 2619.92 -1295.6 2751.04 -1129.99 2798.5C-922.39 2858 -576.11 3032.56 -417.66 3327.53C-230.05 3676.76 -55.99 3747.95 153.51 3821.59L195.07 3836.2C-411.79 3266.28 -226.36 2600.88 24.17 2409.98C274.7 2219.08 396.98 2408.45 396.98 2408.45" stroke="#45BE93" stroke-width="20.5833" stroke-miterlimit="10" stroke-linecap="round" stroke-linejoin="round"/>
<path d="M-1112.82 3777.11C-1112.82 3777.11 -1125.41 3947.17 -946.99 3929.81C-732.75 3908.96 -678.63 3598.76 195.08 3836.2" stroke="#45BE93" stroke-width="20.5833" stroke-miterlimit="10" stroke-linecap="round" stroke-linejoin="round"/>
<path d="M736 4891.19C736 4891.19 1290.96 5278.45 888.35 6017.05C888.35 6017.05 794.87 6270.17 1003.54 6243.01C1258.61 6209.82 1510.19 5681.96 1260.64 5324.54C1260.64 5324.54 1921.65 6056.85 2392.86 5726.11C2433.32 5697.71 2462.37 5625.43 2440.94 5580.89C2413.86 5524.6 2333.44 5459.45 2115.74 5432.7C1697.75 5381.33 1540.5 5302.7 1385.27 5125.04C1230.03 4947.38 1034.03 4924.31 1034.03 4924.31C1034.03 4924.31 1512.62 5042.18 1809.05 4735.15C1858.79 4683.64 1879.54 4612.94 1872.64 4541.67C1867.71 4490.71 1802.47 4380.9 1648.69 4477.85C1583.52 4518.93 1411.83 4834.02 736 4891.19Z" fill="#FFCD50"/>
<path d="M2101.66 5811.63C2101.66 5811.63 2339.07 5755.26 2336.89 5649.42C2335.55 5584.4 2227.61 5493.51 2077.39 5488.46C1889.09 5482.12 1559.03 5407.81 1362.39 5191.77C1129.58 4936 967.18 4912.66 774.27 4894.75L736 4891.2C1370.41 5244.85 1354.56 5847.29 1183.02 6061.96C1011.48 6276.63 867.84 6142.3 867.84 6142.3" stroke="#FF7F40" stroke-width="17.9577" stroke-miterlimit="10" stroke-linecap="round" stroke-linejoin="round"/>
<path d="M1855.38 4663.9C1855.38 4663.9 1829.98 4517.31 1682.67 4569.83C1505.78 4632.9 1525.75 4906.89 736 4891.19" stroke="#FF7F40" stroke-width="17.9577" stroke-miterlimit="10" stroke-linecap="round" stroke-linejoin="round"/>
<path d="M3793.74 2225.1C3802.59 2191.88 3832.67 2167.85 3867.02 2169.23C3886.68 2170.02 3906.78 2179.14 3919.14 2207.37C3947.39 2271.86 3761.66 2345.58 3793.74 2225.1Z" stroke="#FBD04E" stroke-width="19.1407" stroke-miterlimit="10"/>
<path d="M1444.69 870.56C1464.05 797.86 1529.88 745.28 1605.06 748.29C1648.09 750.01 1692.07 769.99 1719.13 831.76C1780.94 972.9 1374.49 1134.23 1444.69 870.56Z" stroke="#288594" stroke-width="25" stroke-miterlimit="10"/>
<path d="M4491.3 2554.98C4491.3 2554.98 4239.74 2534.56 4258.71 2248.8C4277.67 1963.04 4401.13 1871.31 4450.64 1861.06C4500.15 1850.81 4597.33 1905.7 4552.4 2052.37C4503.29 2212.68 4505.23 2270.09 4566.03 2399.3C4619.82 2513.6 4545.7 2566.03 4491.3 2554.98Z" stroke="#FE674C" stroke-width="25" stroke-miterlimit="10"/>
<path d="M3567.82 4609.67C3567.82 4609.67 3622.07 4737.21 3323.3 4903.36C3323.3 4903.36 3407.64 4703.94 3567.82 4609.67Z" stroke="#FE674C" stroke-width="17.7544" stroke-miterlimit="10"/>
<path d="M3847.12 4459.37C3847.12 4459.37 3916.4 4634.36 3674.75 4793.79C3674.76 4793.8 3714.44 4572.52 3847.12 4459.37Z" stroke="#FE674C" stroke-width="17.7544" stroke-miterlimit="10"/>
<path d="M4209.66 4341.95C4209.66 4341.95 4258.91 4528.72 4065.31 4682.35C4065.31 4682.35 4023.03 4482.95 4209.66 4341.95Z" stroke="#FE674C" stroke-width="17.7544" stroke-miterlimit="10"/>
<path d="M4363.04 4296.68C4363.04 4296.68 4133.36 4320.93 4023.29 4104.55C4023.29 4104.56 4207.82 4078.47 4363.04 4296.68Z" stroke="#FE674C" stroke-width="17.7544" stroke-miterlimit="10"/>
<path d="M4469.46 4527.71C4469.46 4527.71 4680.05 4423.41 4625.07 4239.22C4625.07 4239.22 4489.18 4360.54 4469.46 4527.71Z" stroke="#FE674C" stroke-width="17.7544" stroke-miterlimit="10"/>
<path d="M4761.1 4199.86C4761.1 4199.86 4576.06 4304.78 4398.45 3991.74C4398.45 3991.74 4668.05 4013.2 4761.1 4199.86Z" stroke="#FE674C" stroke-width="17.7544" stroke-miterlimit="10"/>
<path d="M3568.81 4609.16C3598.76 4588.95 3823.02 4440.58 4038.45 4382.29C4269.86 4319.67 4869.52 4189.02 4949.61 4141.88" stroke="#FE674C" stroke-width="17.7544" stroke-miterlimit="10"/>
<path d="M4039.45 4378.63C4039.45 4378.63 3788.73 4440.55 3682.55 4275C3682.55 4275 3880.66 4180.62 4039.45 4378.63Z" stroke="#FE674C" stroke-width="17.7544" stroke-miterlimit="10"/>
<path d="M3685.88 4534.36C3685.88 4534.36 3513.6 4672.06 3294.16 4508.09C3294.15 4508.09 3505.66 4359.06 3685.88 4534.36Z" stroke="#FE674C" stroke-width="17.7544" stroke-miterlimit="10"/>
<path d="M2574.65 378.5C2316.24 350.39 1890.11 34.7402 1890.11 34.7402C1890.11 34.7402 2057.9 -34.1998 2121.54 -57.7598C2478.21 -189.84 2838.15 -57.4398 3130.87 177.4C3177.67 214.94 3258.43 311.48 3258.43 311.48C3258.43 311.48 2849.76 381.69 2690.89 383.91C2650.87 384.46 2612.19 382.59 2574.65 378.5Z" fill="#FE674C"/>
<path d="M1884.79 34.3804C2076.62 61.5404 2616 68.9304 3254.59 309.22" stroke="#F5F5ED" stroke-width="13.3292" stroke-miterlimit="10" stroke-linecap="round" stroke-linejoin="round"/>
<path d="M1088.52 3535.31C964.76 3871.6 400.46 4336.37 400.46 4336.37C400.46 4336.37 364.19 4088.94 353.88 3995.96C296.12 3474.83 593.22 3037.5 1004.96 2724.24C1070.78 2674.16 1226.85 2598.31 1226.85 2598.31C1226.85 2598.31 1184.52 3168.37 1134.51 3381.62C1121.91 3435.33 1106.5 3486.45 1088.52 3535.31Z" fill="#45BE93"/>
<path d="M398.21 4343.35C498.49 4095.81 688.22 3376.78 1222.55 2602.68" stroke="#F5F5ED" stroke-width="18.3751" stroke-miterlimit="10" stroke-linecap="round" stroke-linejoin="round"/>
<path d="M3588.7 3725.1C3285.51 3871.35 2600.94 3816.66 2600.94 3816.66C2600.94 3816.66 2738.03 3625.9 2791.8 3556.38C3093.13 3166.76 3579.36 3065.49 4061.96 3122.85C4139.11 3132.02 4294.03 3182.72 4294.03 3182.72C4294.03 3182.72 3893.15 3540.01 3720.12 3651.34C3676.53 3679.4 3632.74 3703.86 3588.7 3725.1Z" fill="#FFCD50"/>
<path d="M2594.85 3819.92C2824.23 3718.26 3421.91 3356.64 4288.26 3182.89" stroke="#FF7F40" stroke-width="17.2615" stroke-miterlimit="10" stroke-linecap="round" stroke-linejoin="round"/>
<path d="M2574.65 5378.5C2316.24 5350.39 1890.11 5034.74 1890.11 5034.74C1890.11 5034.74 2057.9 4965.8 2121.54 4942.24C2478.21 4810.16 2838.15 4942.55 3130.87 5177.4C3177.67 5214.94 3258.43 5311.48 3258.43 5311.48C3258.43 5311.48 2849.76 5381.69 2690.89 5383.91C2650.87 5384.46 2612.19 5382.59 2574.65 5378.5Z" fill="#FE674C"/>
<path d="M3488.45 2860.73C3490.74 2853.54 3497.87 2811.33 3469.44 2807.36C3430.5 2801.91 3195.79 3050.39 2870.26 3058.55C2837.42 3059.37 2804.9 3066.02 2774.92 3079.45C2732.19 3098.59 2715.66 3145.23 2779.15 3177.18C2800.23 3187.79 2823.52 3193.21 2847.12 3193.91C3141.95 3202.57 3450.03 2981.15 3488.45 2860.73Z" stroke="#45BE93" stroke-width="18.9042" stroke-miterlimit="10"/>
<path d="M229.41 3425.84C232.68 3435.26 258.58 3485.6 291.83 3467.29C337.38 3442.2 388.98 2993.13 727.16 2726.53C761.28 2699.63 790.43 2666.83 811.54 2628.85C841.62 2574.72 822.15 2512.25 729.61 2528.73C698.88 2534.2 669.92 2546.92 644.4 2564.88C325.38 2789.34 174.66 3267.9 229.41 3425.84Z" stroke="#FF7F40" stroke-width="25" stroke-miterlimit="10"/>
<rect width="5000" height="5000" fill="#F8F8F8" fill-opacity="0.75"/>
</g>
<defs>
<clipPath id="clip0_48_629">
<rect width="5000" height="5000" fill="white"/>
</clipPath>
</defs>
</svg>
