<svg width="5000" height="5000" viewBox="0 0 5000 5000" fill="none" xmlns="http://www.w3.org/2000/svg">
<g clip-path="url(#clip0_46_437)">
<path d="M5000 0H0V5000H5000V0Z" fill="white"/>
<path d="M-539.98 3721.15C-812.93 3666.81 -1054.93 3376.99 -865.29 2703.19C-522.71 1486 1544.88 40.2098 2461.5 92.6898C2870.04 116.08 3286.6 349.82 3317.97 795.92C3352.92 1292.94 2974.24 1702.27 2583.94 1954.04C2272.39 2155.01 1923.1 2288.12 1584.45 2439.01C1170.69 2623.38 722.88 2862.49 447.68 3232.62C221.74 3536.51 -145.23 3799.73 -539.98 3721.15Z" fill="#FDF2D6"/>
<path d="M4380.96 4349.1C4337.77 4570.71 4111.49 4853.54 3587.93 4953.84C2642.15 5135.02 1524.3 4120.02 1568.2 3422.25C1587.76 3111.26 1771 2719.15 2118.16 2536.5C2504.94 2333.01 2822.12 2467.26 3016.68 2666.41C3171.99 2825.39 3274.37 3036.57 3390.63 3233.51C3532.67 3474.14 3717.19 3720.42 4004.22 3792.02C4239.88 3850.81 4443.42 4028.6 4380.96 4349.1Z" fill="#FDFAF3"/>
<path d="M3776.91 1639.68C3776.91 1639.68 3758.05 1346.25 3760.82 1199.31C3784.04 1277.51 3861.67 1336.13 3943.24 1337.08C3874.55 1268.03 3802.98 1193.98 3780.16 1099.29C3752.92 986.26 3800.9 870.17 3847.85 763.81C3874.87 702.59 3930.85 630.08 3957.87 568.87C3979.38 635.26 3971.93 712.94 3993.44 779.33C3998.11 685.23 4050.53 601.09 4101.35 521.75C4119.96 492.7 4138.91 463.25 4164.77 440.42C4187.96 419.95 4215.81 405.61 4243.34 391.49C4334.01 344.98 4424.69 298.48 4515.36 251.97C4506.23 309.44 4497.09 366.91 4487.96 424.38C4542.06 347.47 4597.63 230.71 4650.27 193.64C4702.91 156.57 4878.66 141.04 4971.84 65.99C4915.54 251.73 4861.26 444.46 4801.66 629.16C4833.19 603.16 4864.72 577.17 4896.26 551.17C4891.96 647.29 4887.46 744.58 4859.59 836.67C4831.72 928.76 4777.54 1016.6 4694.52 1065.22C4634.71 1100.25 4564.59 1112.66 4495.83 1121.34C4569.33 1124.29 4642.98 1123.65 4716.42 1119.44C4613.31 1271.92 4459.9 1384.95 4294.9 1466.55C4129.93 1548.15 3776.91 1639.68 3776.91 1639.68Z" fill="#288594"/>
<path d="M4753.29 298.05C4742.62 314.18 4731.41 329.96 4720.35 345.82C4698.39 377.29 4676.3 408.66 4654.17 440.01C4623.47 483.49 4592.68 526.9 4561.81 570.27C4524.77 622.31 4487.63 674.28 4450.4 726.19C4409.41 783.33 4368.3 840.39 4327.05 897.34C4284.34 956.32 4241.49 1015.19 4198.44 1073.92C4156.85 1130.66 4115.07 1187.28 4073.02 1243.68C4034.37 1295.52 3995.49 1347.19 3956.18 1398.53C3937.98 1422.3 3923.32 1441.31 3904.92 1464.86C3889.32 1484.82 3873.63 1504.71 3857.76 1524.46C3833.08 1555.19 3808.13 1585.78 3781.77 1615.09C3777.13 1620.25 3772.43 1625.37 3767.64 1630.41C3756.02 1642.64 3774.53 1661.21 3786.18 1648.95C3810.56 1623.29 3833.2 1595.95 3855.59 1568.56C3888.36 1528.48 3920.28 1487.7 3951.93 1446.73C3989.97 1397.49 4027.53 1347.89 4064.85 1298.11C4106.51 1242.55 4147.85 1186.76 4189 1130.82C4232.1 1072.25 4274.98 1013.51 4317.7 954.67C4359.72 896.8 4401.6 838.81 4443.35 780.74C4481.92 727.09 4520.39 673.36 4558.75 619.56C4591.38 573.79 4623.94 527.97 4656.41 482.08C4680.89 447.48 4705.32 412.85 4729.63 378.13C4743.63 358.15 4757.66 338.18 4771.38 318.02C4772.9 315.78 4774.42 313.54 4775.92 311.28C4785.26 297.17 4762.57 284.03 4753.29 298.05Z" fill="#40A8B3"/>
<path d="M4307.5 963.31C4329.55 963.2 4351.57 960.45 4373.33 957.07C4399.71 952.97 4425.86 947.42 4451.76 940.96C4508.11 926.91 4563.7 908.68 4616.7 884.85C4642.02 873.47 4666.93 860.65 4689.66 844.63C4695.44 840.56 4698.15 833.17 4694.36 826.69C4691.02 820.97 4682.24 817.89 4676.42 821.99C4656.76 835.84 4635.46 847.25 4613.73 857.48C4589 869.12 4565.05 878.53 4538.25 887.86C4485.87 906.1 4431.89 920.65 4377.2 930.01C4370.48 931.16 4363.74 932.22 4356.99 933.17C4356.22 933.28 4355.46 933.38 4354.69 933.49C4355.92 933.32 4356.1 933.31 4354.76 933.48C4353.08 933.69 4351.4 933.91 4349.72 934.12C4346.64 934.49 4343.56 934.84 4340.47 935.16C4329.51 936.28 4318.51 937.04 4307.49 937.1C4290.64 937.17 4290.6 963.39 4307.5 963.31Z" fill="#40A8B3"/>
<path d="M4059.6 1320.38C4159.16 1323.89 4259.58 1308.77 4353.65 1275.95C4380.56 1266.56 4406.96 1255.72 4432.76 1243.62C4439.17 1240.61 4440.81 1231.4 4437.46 1225.68C4433.62 1219.11 4425.96 1217.96 4419.52 1220.98C4332.5 1261.81 4237.54 1286.33 4141.64 1292.85C4114.33 1294.71 4086.94 1295.12 4059.59 1294.16C4052.51 1293.91 4046.48 1300.36 4046.48 1307.27C4046.49 1314.58 4052.5 1320.13 4059.6 1320.38Z" fill="#40A8B3"/>
<path d="M4323.6 597.15C4306.05 640.14 4292.83 684.85 4284.31 730.5C4275.92 775.44 4270.25 822.3 4274.18 868.02C4276.44 894.31 4282.15 919.59 4292.51 943.88C4295.29 950.39 4304.88 951.84 4310.45 948.58C4317.19 944.64 4317.94 937.18 4315.15 930.64C4298.61 891.85 4297.47 848.16 4300.53 806.73C4303.78 762.69 4311.85 718.99 4323.89 676.51C4330.86 651.93 4339.23 627.76 4348.89 604.11C4351.57 597.55 4345.98 589.7 4339.73 587.98C4332.22 585.93 4326.29 590.57 4323.6 597.15Z" fill="#40A8B3"/>
<path d="M3966.78 946.39C3954.55 1040.77 3966.13 1138.39 3999.66 1227.44C4009.32 1253.11 4020.71 1278.14 4033.82 1302.23C4041.89 1317.06 4064.53 1303.84 4056.46 1289C4012.54 1208.28 3989.12 1116.92 3988.26 1025.07C3988.01 998.77 3989.63 972.48 3993.01 946.39C3993.92 939.36 3986.33 933.28 3979.9 933.28C3972.05 933.29 3967.7 939.34 3966.78 946.39Z" fill="#40A8B3"/>
<path d="M3561.42 437.66C3631.58 341.13 3727.45 267.04 3826.79 199.17C3858.56 194.34 3892.09 192.41 3926.78 193.29C3926.92 193.51 3927.05 193.73 3927.21 193.94L4026.55 321.38C4023.34 331.8 4023.45 342.79 4027.08 352.87C4032.87 368.96 4046.97 379.89 4065.75 382.84C4086.8 386.15 4109.06 378.69 4119.86 364.7C4130.71 350.65 4130.89 327.12 4120.3 308.73C4109.61 290.17 4090.98 281.18 4069.18 284.07C4056.26 285.79 4044.55 292.65 4036.16 303.2L3951.32 194.35C3997.67 197.26 4045.8 205.06 4094.39 217.68C4094.19 218.55 4093.95 219.4 4093.79 220.3C4090 240.57 4098.46 258.46 4116.42 268.17C4138.1 279.88 4166.29 276.43 4183.45 259.96C4195.86 248.06 4200.25 233.08 4195.82 217.8C4190.46 199.32 4172.44 183.51 4152.01 179.36C4133.71 175.65 4116.47 181.82 4104.7 196.28C4103.65 197.57 4102.7 198.92 4101.78 200.3C4101.5 200.2 4101.24 200.07 4100.95 199.99C4017.57 178.13 3935.32 170.14 3860.55 176.36C3876.68 165.58 3892.84 154.92 3908.93 144.3C3943.64 121.4 3979.53 97.72 4013.99 73.66C4022.04 68.04 4030.08 62.33 4038.11 56.59C4163.93 72.95 4290.94 69.9799 4415.83 47.8199C4420.78 67.3199 4432.29 84.21 4447.84 94.17C4467.98 107.07 4489.29 108.36 4507.85 97.79C4531.06 84.58 4546.57 54.2899 4545.56 24.1299C4544.69 -1.82006 4531.57 -22.81 4509.57 -33.45C4506.75 -34.81 4503.76 -36.02 4500.68 -37.02C4475.99 -45.11 4447.59 -37.69 4430.01 -18.57C4427.3 -15.62 4424.9 -12.4 4422.82 -8.96002C4416.21 1.98998 4412.91 15.23 4413.26 29.21C4296.63 49.98 4178.12 53.76 4060.5 40.42C4080.39 25.96 4100.12 11.38 4119.46 -2.94003C4134.74 -14.26 4150.2 -25.72 4165.41 -37.64C4221.98 -45.39 4285.05 -60.55 4363.61 -85.28C4452.45 -113.25 4544.31 -142.18 4630.04 -183.4C4634.46 -185.52 4637.77 -187.14 4641.24 -188.85C4646.01 -175.33 4653.66 -163.42 4663.83 -154.22C4684.03 -135.93 4710.92 -130.7 4737.6 -139.88C4767.3 -150.09 4789.86 -176.04 4795.08 -205.99C4800.09 -234.73 4791.43 -265.64 4772.49 -286.66C4755.89 -305.08 4733.27 -314.29 4708.78 -312.6C4693.78 -311.57 4680.35 -306.54 4668.86 -297.65C4661.31 -291.81 4654.83 -284.35 4649.64 -275.76C4641.29 -261.92 4636.29 -245.13 4635.6 -227.4C4635.34 -220.6 4635.72 -213.96 4636.65 -207.52C4631.69 -205.06 4627.78 -203.14 4621.9 -200.32C4537.37 -159.69 4446.16 -130.97 4357.96 -103.19C4294.7 -83.27 4241.73 -69.66 4194.21 -61.19C4212.93 -77.27 4230.8 -94.45 4246.95 -113.4C4273.75 -144.87 4296.55 -182.01 4315.91 -225.91C4316.44 -226.29 4316.94 -226.72 4317.4 -227.22C4323.7 -234.13 4331.92 -241.24 4339.87 -248.12C4343.9 -251.61 4347.7 -254.9 4351.31 -258.2C4366.47 -272.06 4399.77 -288.92 4414.58 -296.08C4426.11 -281.59 4448.86 -272.58 4475.35 -285.11C4488.87 -291.44 4493.76 -301.4 4495.48 -308.64C4498.99 -323.41 4492.39 -338.65 4485.04 -347.99C4478.13 -356.77 4467.32 -362.56 4455.38 -363.86C4443.44 -365.16 4431.64 -361.84 4423 -354.75C4418.06 -350.7 4414.31 -346.33 4411.59 -341.81C4405.85 -332.3 4404.69 -322.16 4406.58 -313.06C4391.05 -305.57 4355.79 -287.71 4338.64 -272.04C4336.54 -270.12 4334.29 -268.14 4331.98 -266.12C4334.73 -273.7 4337.42 -281.43 4340.01 -289.37C4351.68 -325.13 4360.93 -362.01 4367.56 -399.07C4372.41 -401.07 4376.99 -403.79 4381.04 -407.29C4399.17 -422.91 4405.06 -446.61 4396.41 -469.14C4388.08 -490.83 4369.13 -505.11 4349.26 -504.67C4337.47 -504.41 4326.19 -498.97 4316.61 -488.95C4314.17 -486.4 4311.99 -483.5 4310.08 -480.34C4303.55 -469.51 4300.27 -455.59 4301.31 -441.84C4302.52 -425.85 4309.2 -412.4 4320.11 -403.98C4327.87 -397.99 4337.72 -395.1 4347.78 -395.13C4341.41 -361.36 4332.82 -327.81 4322.18 -295.2C4299.19 -224.78 4269.91 -169.29 4232.65 -125.56C4197.08 -83.8 4151.93 -50.36 4108.24 -18.01C4074.04 7.31996 4038.67 33.52 4003.23 58.25C3968.97 82.16 3933.18 105.78 3898.57 128.61C3871.8 146.27 3844.84 164.07 3818.11 182.3C3818 182.37 3817.9 182.44 3817.8 182.51C3812.38 186.21 3806.97 189.92 3801.58 193.65C3861.22 93.11 3906.47 -14.93 3936.35 -128.19C3962.42 -125.66 3990.49 -135.04 4010.12 -162.01C4041.29 -204.83 4026.52 -250.64 3998.04 -277.03C3972.33 -300.86 3929.1 -313.26 3894.95 -284.19C3888.05 -278.31 3883.02 -272.62 3879.14 -266.27C3878.98 -266.01 3878.82 -265.75 3878.67 -265.49C3845.67 -210.82 3864.07 -164.16 3897.08 -142.1C3903.42 -137.86 3910.48 -134.47 3917.96 -132.04C3897.42 -54.4 3869.56 20.76 3834.67 92.65C3818.85 32.81 3797.79 -14.99 3771.64 -65.94C3781.02 -73.51 3787.32 -84.91 3789.16 -98.77C3792.11 -120.88 3782.23 -141.63 3765.16 -149.24C3752.77 -154.76 3738.38 -154.65 3725.68 -148.92C3716.74 -144.89 3709.55 -138.55 3704.75 -130.59C3702.89 -127.51 3701.38 -124.18 3700.27 -120.65C3694.7 -102.92 3698 -85.2 3709.32 -72.03C3719.73 -59.93 3734.92 -54.1 3749.94 -56.44C3751.63 -56.7 3753.26 -57.08 3754.87 -57.5C3783.48 -1.76003 3805.87 50.03 3821.75 118.48C3803.67 153.62 3783.9 187.95 3762.46 221.36C3681.38 280.17 3605.21 345.4 3546.22 426.58C3546.06 426.8 3545.91 427.03 3545.77 427.26C3543.28 431.39 3544.32 436.8 3548.29 439.69C3552.51 442.78 3558.38 441.85 3561.42 437.66ZM4071.66 302.68C4090.66 300.16 4100.11 311.26 4104.05 318.1C4110.36 329.06 4111.13 343.32 4106.1 351.66C4105.77 352.21 4105.41 352.74 4105.02 353.24C4098.43 361.78 4082.8 366.54 4068.67 364.32C4061.73 363.23 4049.39 359.46 4044.74 346.53C4042.46 340.2 4042.5 333.23 4044.64 326.53C4046.03 324.96 4046.8 323.01 4046.94 321C4047.33 320.24 4047.71 319.47 4048.16 318.73C4053.6 309.79 4062.16 303.94 4071.66 302.68ZM4148.28 197.76C4161.95 200.53 4174.36 211.16 4177.81 223.04C4180.27 231.53 4177.8 239.4 4170.47 246.44C4157.64 258.75 4137.64 258.33 4125.34 251.68C4119.13 248.32 4109.16 240.23 4112.24 223.77C4113.37 217.75 4115.73 212.5 4119.27 208.14C4128.64 196.59 4140.22 196.12 4148.28 197.76ZM4443.83 -5.85004C4456.32 -19.44 4477.3 -24.92 4494.85 -19.17C4497.13 -18.42 4499.34 -17.54 4501.41 -16.53C4522.66 -6.26003 4526.45 13.76 4526.82 24.78C4527.27 38.22 4523.44 51.9199 4516.79 62.9399C4512 70.8699 4505.75 77.42 4498.58 81.5C4486.2 88.55 4472.16 87.4699 4457.97 78.3799C4444.58 69.8099 4434.82 53.29 4432.48 35.27C4430.41 19.25 4434.54 4.25996 4443.83 -5.85004ZM4654.36 -226.63C4655.26 -249.9 4664.98 -270.89 4680.35 -282.77C4688.84 -289.34 4698.85 -293.07 4710.08 -293.84C4728.69 -295.12 4745.91 -288.09 4758.56 -274.05C4773.73 -257.22 4780.65 -232.35 4776.61 -209.16C4775.26 -201.42 4772.41 -194.02 4768.35 -187.29C4760.18 -173.75 4747.1 -162.93 4731.51 -157.57C4711.49 -150.68 4691.41 -154.51 4676.43 -168.08C4661.71 -181.42 4653.46 -203.31 4654.36 -226.63ZM4434.94 -340.22C4439.71 -344.13 4446.43 -345.94 4453.39 -345.18C4460.35 -344.42 4466.52 -341.21 4470.33 -336.36C4476.16 -328.95 4478.88 -319.76 4477.26 -312.95C4476.91 -311.48 4476.36 -310.13 4475.61 -308.88C4473.92 -306.09 4471.21 -303.84 4467.41 -302.06C4467.4 -302.05 4467.38 -302.05 4467.37 -302.04C4448.94 -293.32 4434.25 -299.59 4427.87 -309.66C4422.89 -317.54 4422.12 -329.7 4434.94 -340.22ZM4331.61 -418.8C4324.97 -423.93 4320.86 -432.6 4320.06 -443.22C4319.12 -455.66 4323.11 -468.51 4330.22 -475.96C4336.36 -482.39 4342.92 -485.73 4349.71 -485.88C4361.5 -486.14 4373.52 -476.48 4378.93 -462.38C4381.16 -456.57 4384.56 -443.55 4376.9 -430.86C4374.98 -427.67 4372.35 -424.5 4368.84 -421.47C4358.24 -412.34 4341.54 -411.14 4331.61 -418.8ZM3907.52 -157.64C3883.8 -173.49 3866.32 -208.64 3894.74 -255.73C3894.88 -255.96 3895.02 -256.19 3895.16 -256.43C3897.98 -261.04 3901.78 -265.31 3907.13 -269.86C3932.56 -291.51 3965.49 -281.6 3985.31 -263.23C4006.42 -243.66 4018.01 -210.59 3998.8 -178.78C3997.64 -176.85 3996.36 -174.93 3994.97 -173.02C3971.25 -140.41 3933.02 -140.6 3907.52 -157.64ZM3723.57 -84.21C3716.57 -92.35 3714.61 -103.56 3718.19 -114.97C3720.53 -122.43 3725.94 -128.4 3733.41 -131.76C3741.24 -135.29 3750.04 -135.39 3757.55 -132.05C3768.68 -127.09 3772.11 -112.58 3770.6 -101.19C3769.88 -95.78 3766.05 -77.88 3747.09 -74.93C3738.63 -73.61 3729.62 -77.17 3723.57 -84.21Z" fill="#FE674C"/>
<path d="M3561.42 5437.66C3631.58 5341.13 3727.45 5267.04 3826.79 5199.17C3858.56 5194.34 3892.09 5192.41 3926.78 5193.29C3926.92 5193.51 3927.05 5193.73 3927.21 5193.94L4026.55 5321.38C4023.34 5331.8 4023.45 5342.79 4027.08 5352.87C4032.87 5368.96 4046.97 5379.89 4065.75 5382.84C4086.8 5386.15 4109.06 5378.69 4119.86 5364.7C4130.71 5350.65 4130.89 5327.12 4120.3 5308.73C4109.61 5290.17 4090.98 5281.18 4069.18 5284.07C4056.26 5285.79 4044.55 5292.65 4036.16 5303.2L3951.32 5194.35C3997.67 5197.26 4045.8 5205.06 4094.39 5217.68C4094.19 5218.55 4093.95 5219.4 4093.79 5220.3C4090 5240.57 4098.46 5258.46 4116.42 5268.17C4138.1 5279.88 4166.29 5276.43 4183.45 5259.96C4195.86 5248.06 4200.25 5233.08 4195.82 5217.8C4190.46 5199.32 4172.44 5183.51 4152.01 5179.36C4133.71 5175.65 4116.47 5181.82 4104.7 5196.28C4103.65 5197.57 4102.7 5198.92 4101.78 5200.3C4101.5 5200.2 4101.24 5200.07 4100.95 5199.99C4017.57 5178.13 3935.32 5170.14 3860.55 5176.36C3876.68 5165.58 3892.84 5154.92 3908.93 5144.3C3943.64 5121.4 3979.53 5097.72 4013.99 5073.66C4022.04 5068.04 4030.08 5062.33 4038.11 5056.59C4163.93 5072.95 4290.94 5069.98 4415.83 5047.82C4420.78 5067.32 4432.29 5084.21 4447.84 5094.17C4467.98 5107.07 4489.29 5108.36 4507.85 5097.79C4531.06 5084.58 4546.57 5054.29 4545.56 5024.13C4544.69 4998.18 4531.57 4977.19 4509.57 4966.55C4506.75 4965.19 4503.76 4963.98 4500.68 4962.98C4475.99 4954.89 4447.59 4962.31 4430.01 4981.43C4427.3 4984.38 4424.9 4987.6 4422.82 4991.04C4416.21 5001.99 4412.91 5015.23 4413.26 5029.21C4296.63 5049.98 4178.12 5053.76 4060.5 5040.42C4080.39 5025.96 4100.12 5011.38 4119.46 4997.06C4134.74 4985.74 4150.2 4974.28 4165.41 4962.36C4221.98 4954.61 4285.05 4939.45 4363.61 4914.72C4452.45 4886.75 4544.31 4857.82 4630.04 4816.6C4634.46 4814.48 4637.77 4812.86 4641.24 4811.15C4646.01 4824.67 4653.66 4836.58 4663.83 4845.78C4684.03 4864.07 4710.92 4869.3 4737.6 4860.12C4767.3 4849.91 4789.86 4823.96 4795.08 4794.01C4800.09 4765.27 4791.43 4734.36 4772.49 4713.34C4755.89 4694.92 4733.27 4685.71 4708.78 4687.4C4693.78 4688.43 4680.35 4693.46 4668.86 4702.35C4661.31 4708.19 4654.83 4715.65 4649.64 4724.24C4641.29 4738.08 4636.29 4754.87 4635.6 4772.6C4635.34 4779.4 4635.72 4786.04 4636.65 4792.48C4631.69 4794.94 4627.78 4796.86 4621.9 4799.68C4537.37 4840.31 4446.16 4869.03 4357.96 4896.81C4294.7 4916.73 4241.73 4930.34 4194.21 4938.81C4212.93 4922.73 4230.8 4905.55 4246.95 4886.6C4273.75 4855.13 4296.55 4817.99 4315.91 4774.09C4316.44 4773.71 4316.94 4773.28 4317.4 4772.78C4323.7 4765.87 4331.92 4758.76 4339.87 4751.88C4343.9 4748.39 4347.7 4745.1 4351.31 4741.8C4366.47 4727.94 4399.77 4711.08 4414.58 4703.92C4426.11 4718.41 4448.86 4727.42 4475.35 4714.89C4488.87 4708.56 4493.76 4698.6 4495.48 4691.36C4498.99 4676.59 4492.39 4661.35 4485.04 4652.01C4478.13 4643.23 4467.32 4637.44 4455.38 4636.14C4443.44 4634.84 4431.64 4638.16 4423 4645.25C4418.06 4649.3 4414.31 4653.67 4411.59 4658.19C4405.85 4667.7 4404.69 4677.84 4406.58 4686.94C4391.05 4694.43 4355.79 4712.29 4338.64 4727.96C4336.54 4729.88 4334.29 4731.86 4331.98 4733.88C4334.73 4726.3 4337.42 4718.57 4340.01 4710.63C4351.68 4674.87 4360.93 4637.99 4367.56 4600.93C4372.41 4598.93 4376.99 4596.21 4381.04 4592.71C4399.17 4577.09 4405.06 4553.39 4396.41 4530.86C4388.08 4509.17 4369.13 4494.89 4349.26 4495.33C4337.47 4495.59 4326.19 4501.03 4316.61 4511.05C4314.17 4513.6 4311.99 4516.5 4310.08 4519.66C4303.55 4530.49 4300.27 4544.41 4301.31 4558.16C4302.52 4574.15 4309.2 4587.6 4320.11 4596.02C4327.87 4602.01 4337.72 4604.9 4347.78 4604.87C4341.41 4638.64 4332.82 4672.19 4322.18 4704.8C4299.19 4775.22 4269.91 4830.71 4232.65 4874.44C4197.08 4916.2 4151.93 4949.64 4108.24 4981.99C4074.04 5007.32 4038.67 5033.52 4003.23 5058.25C3968.97 5082.16 3933.18 5105.78 3898.57 5128.61C3871.8 5146.27 3844.84 5164.07 3818.11 5182.3C3818 5182.37 3817.9 5182.44 3817.8 5182.51C3812.38 5186.21 3806.97 5189.92 3801.58 5193.65C3861.22 5093.11 3906.47 4985.07 3936.35 4871.81C3962.42 4874.34 3990.49 4864.96 4010.12 4837.99C4041.29 4795.17 4026.52 4749.36 3998.04 4722.97C3972.33 4699.14 3929.1 4686.74 3894.95 4715.81C3888.05 4721.69 3883.02 4727.38 3879.14 4733.73C3878.98 4733.99 3878.82 4734.25 3878.67 4734.51C3845.67 4789.18 3864.07 4835.84 3897.08 4857.9C3903.42 4862.14 3910.48 4865.53 3917.96 4867.96C3897.42 4945.61 3869.56 5020.76 3834.67 5092.65C3818.85 5032.81 3797.79 4985.01 3771.64 4934.06C3781.02 4926.49 3787.32 4915.09 3789.16 4901.23C3792.11 4879.12 3782.23 4858.37 3765.16 4850.76C3752.77 4845.24 3738.38 4845.35 3725.68 4851.08C3716.74 4855.11 3709.55 4861.45 3704.75 4869.41C3702.89 4872.49 3701.38 4875.82 3700.27 4879.35C3694.7 4897.08 3698 4914.8 3709.32 4927.97C3719.73 4940.07 3734.92 4945.9 3749.94 4943.56C3751.63 4943.3 3753.26 4942.92 3754.87 4942.5C3783.48 4998.24 3805.87 5050.03 3821.75 5118.48C3803.67 5153.62 3783.9 5187.95 3762.46 5221.36C3681.38 5280.17 3605.21 5345.4 3546.22 5426.58C3546.06 5426.8 3545.91 5427.03 3545.77 5427.26C3543.28 5431.39 3544.32 5436.8 3548.29 5439.69C3552.51 5442.78 3558.38 5441.85 3561.42 5437.66ZM4071.66 5302.68C4090.66 5300.16 4100.11 5311.26 4104.05 5318.1C4110.36 5329.06 4111.13 5343.32 4106.1 5351.66C4105.77 5352.21 4105.41 5352.74 4105.02 5353.24C4098.43 5361.78 4082.8 5366.54 4068.67 5364.32C4061.73 5363.23 4049.39 5359.46 4044.74 5346.53C4042.46 5340.2 4042.5 5333.23 4044.64 5326.53C4046.03 5324.96 4046.8 5323.01 4046.94 5321C4047.33 5320.24 4047.71 5319.47 4048.16 5318.73C4053.6 5309.79 4062.16 5303.94 4071.66 5302.68ZM4148.28 5197.76C4161.95 5200.53 4174.36 5211.17 4177.81 5223.04C4180.27 5231.53 4177.8 5239.4 4170.47 5246.44C4157.64 5258.75 4137.64 5258.33 4125.34 5251.68C4119.13 5248.32 4109.16 5240.23 4112.24 5223.77C4113.37 5217.75 4115.73 5212.5 4119.27 5208.14C4128.64 5196.59 4140.22 5196.12 4148.28 5197.76ZM4443.83 4994.15C4456.32 4980.56 4477.3 4975.08 4494.85 4980.83C4497.13 4981.58 4499.34 4982.46 4501.41 4983.47C4522.66 4993.74 4526.45 5013.76 4526.82 5024.78C4527.27 5038.22 4523.44 5051.92 4516.79 5062.94C4512 5070.87 4505.75 5077.42 4498.58 5081.5C4486.2 5088.55 4472.16 5087.47 4457.97 5078.38C4444.58 5069.81 4434.82 5053.29 4432.48 5035.27C4430.41 5019.25 4434.54 5004.26 4443.83 4994.15ZM4654.36 4773.37C4655.26 4750.1 4664.98 4729.11 4680.35 4717.23C4688.84 4710.66 4698.85 4706.94 4710.08 4706.16C4728.69 4704.88 4745.91 4711.91 4758.56 4725.95C4773.73 4742.78 4780.65 4767.65 4776.61 4790.84C4775.26 4798.58 4772.41 4805.98 4768.35 4812.71C4760.18 4826.25 4747.1 4837.07 4731.51 4842.43C4711.49 4849.32 4691.41 4845.49 4676.43 4831.92C4661.71 4818.58 4653.46 4796.69 4654.36 4773.37ZM4434.94 4659.78C4439.71 4655.87 4446.43 4654.06 4453.39 4654.82C4460.35 4655.58 4466.52 4658.79 4470.33 4663.64C4476.16 4671.05 4478.88 4680.24 4477.26 4687.05C4476.91 4688.52 4476.36 4689.87 4475.61 4691.12C4473.92 4693.91 4471.21 4696.16 4467.41 4697.94C4467.4 4697.95 4467.38 4697.95 4467.37 4697.96C4448.94 4706.68 4434.25 4700.41 4427.87 4690.33C4422.89 4682.46 4422.12 4670.3 4434.94 4659.78ZM4331.61 4581.2C4324.97 4576.07 4320.86 4567.4 4320.06 4556.78C4319.12 4544.34 4323.11 4531.49 4330.22 4524.04C4336.36 4517.61 4342.92 4514.27 4349.71 4514.12C4361.5 4513.86 4373.52 4523.52 4378.93 4537.62C4381.16 4543.43 4384.56 4556.45 4376.9 4569.14C4374.98 4572.33 4372.35 4575.5 4368.84 4578.53C4358.24 4587.66 4341.54 4588.86 4331.61 4581.2ZM3907.52 4842.36C3883.8 4826.51 3866.32 4791.36 3894.74 4744.27C3894.88 4744.04 3895.02 4743.81 3895.16 4743.57C3897.98 4738.96 3901.78 4734.69 3907.13 4730.14C3932.56 4708.49 3965.49 4718.4 3985.31 4736.77C4006.42 4756.34 4018.01 4789.41 3998.8 4821.22C3997.64 4823.15 3996.36 4825.07 3994.97 4826.98C3971.25 4859.59 3933.02 4859.4 3907.52 4842.36ZM3723.57 4915.79C3716.57 4907.65 3714.61 4896.44 3718.19 4885.03C3720.53 4877.57 3725.94 4871.6 3733.41 4868.24C3741.24 4864.71 3750.04 4864.61 3757.55 4867.95C3768.68 4872.91 3772.11 4887.42 3770.6 4898.81C3769.88 4904.22 3766.05 4922.12 3747.09 4925.07C3738.63 4926.39 3729.62 4922.83 3723.57 4915.79Z" fill="#FE674C"/>
<path d="M3935.93 2174.24C3894.14 2118.11 3908.56 2023.09 3932.11 1963.95C3960.62 1892.36 3984.66 1819.29 4045.36 1768.03C4092.7 1728.06 4152.77 1703.02 4214.64 1698.48C4267.68 1694.59 4334.46 1696.7 4368.19 1744.73C4408.69 1802.4 4344.39 1847.68 4299.21 1884.91C4165.68 1994.98 4159.43 2018.1 4100.7 2134.45C4070.8 2193.69 4031.91 2237.51 3969.73 2203.55C3955.75 2195.91 3944.62 2185.91 3935.93 2174.24Z" fill="#FFAE1F"/>
<path d="M2118.36 3182.38C2056.77 3093.4 2007.54 2999.3 1968.15 2905.55C2114.36 2836.63 2218.35 2698.44 2280.26 2593.46C2348.56 2477.65 2381.86 2376.12 2382.19 2375.1C2383.41 2371.33 2382.2 2367.2 2379.14 2364.68C2376.07 2362.17 2371.78 2361.79 2368.33 2363.73C2157.49 2482.01 2053.7 2621.26 2003.76 2717.24C1971.97 2778.33 1957.36 2829.55 1950.65 2862.24C1908.36 2753.62 1878.84 2646.64 1858.28 2549.83C2030.91 2487.83 2141.66 2359.99 2204.45 2262.79C2273.51 2155.86 2300.29 2064.62 2301.4 2060.79C2302.43 2057.21 2301.31 2053.36 2298.52 2050.9C2295.73 2048.44 2291.76 2047.81 2288.34 2049.28C2285.27 2050.6 2212.12 2082.58 2119.44 2159.24C2038.62 2226.09 1928.38 2340.28 1850.34 2510.75C1842.95 2472.63 1836.93 2436.36 1832.06 2402.56C1826.7 2365.37 1822.48 2329.77 1819.16 2296.2C1838.9 2282.8 1896.87 2240.76 1962.24 2168.18C2035.13 2087.24 2130.75 1951.69 2172.3 1765.55C2173.19 1761.57 2171.47 1757.45 2168.01 1755.29C2164.56 1753.13 2160.1 1753.38 2156.91 1755.93C1990.65 1888.62 1901.84 2026.82 1856.61 2119.38C1835.93 2161.7 1822.27 2198.29 1813.32 2226.74C1805.14 2109.4 1808.08 2027.46 1809.03 2007.46C1880.63 1954.2 1906.82 1603.92 1871.36 1528.87C1870.1 1526.2 1867.67 1524.24 1864.79 1523.6C1861.9 1522.94 1858.88 1523.65 1856.58 1525.52C1823.22 1552.67 1785.46 1636.83 1766.8 1725.65C1753.29 1789.93 1738.53 1911.08 1789.91 2004.31C1789.02 2021.67 1784.95 2119.25 1796.47 2258.96C1743.22 2155.8 1652.79 2083.55 1583.18 2039.84C1500.66 1988.01 1430.85 1964.67 1427.93 1963.71C1424.46 1962.56 1420.63 1963.49 1418.06 1966.09C1415.49 1968.69 1414.62 1972.53 1415.81 1975.99C1416.71 1978.61 1438.6 2040.94 1496.93 2112.83C1544.38 2171.3 1624.84 2245.77 1748.1 2288.14C1764.58 2293.8 1781.83 2298.89 1799.86 2303.29C1800.08 2303.34 1800.3 2303.32 1800.52 2303.36C1803.76 2335.51 1807.83 2369.46 1812.93 2404.83C1818.16 2441.11 1824.71 2480.24 1832.82 2521.41C1687.23 2389.06 1561.69 2335.34 1480.87 2313.65C1389.09 2289.02 1334.03 2298.75 1331.73 2299.18C1328.26 2299.82 1325.43 2302.31 1324.34 2305.66C1323.25 2309.01 1324.07 2312.69 1326.5 2315.25C1328.94 2317.83 1387.36 2379.22 1480.4 2439.74C1525.6 2469.14 1583.63 2501.04 1649.34 2523.63C1707.81 2543.72 1772.38 2556.39 1839.35 2553.37C1860.92 2655.04 1892.24 2767.85 1937.75 2882.14C1553.79 2696.57 1368.66 2753.53 1360.84 2756.09C1357.35 2757.23 1354.81 2760.26 1354.3 2763.9C1353.79 2767.54 1355.39 2771.15 1358.43 2773.21C1359.3 2773.8 1446.43 2832.45 1562.79 2878.34C1575.74 2883.45 1589.37 2888.52 1603.58 2893.4C1705.67 2928.48 1836.92 2953.77 1950.29 2912.79C1990.17 3007.75 2040.05 3103.11 2102.5 3193.33C2103.71 3195.08 2105.4 3196.31 2107.28 3196.95C2110.08 3197.91 2113.28 3197.58 2115.89 3195.76C2120.29 3192.74 2121.38 3186.75 2118.36 3182.38ZM2020.84 2726.13C2067.75 2635.96 2163.56 2506.56 2355.07 2393.57C2322.18 2480.07 2196.67 2772.51 1966.18 2885.21C1970.26 2857.94 1982.87 2799.09 2020.84 2726.13ZM2131.15 2174.55C2193.52 2122.88 2247.75 2091.52 2275.75 2076.89C2263.84 2110.08 2236.39 2177.88 2188.29 2252.34C2128.62 2344.73 2024.65 2465.51 1863.99 2527.24C1940.57 2355.64 2050.75 2241.15 2131.15 2174.55ZM2146.86 1789C2103.41 1956.62 2015.93 2079.71 1948.41 2154.79C1895.65 2213.45 1846.95 2252.3 1821.13 2271.19C1837.45 2202.66 1905.02 1991.09 2146.86 1789ZM1858.7 1550.58C1870.19 1593.2 1871.1 1684.88 1860.28 1780.68C1848.55 1884.47 1826.55 1962.72 1802.78 1987.57C1729.74 1842.65 1805.69 1613.47 1858.7 1550.58ZM1512.39 2101.33C1475.29 2055.74 1453.18 2013.46 1442.33 1989.68C1506.19 2015.21 1702.55 2105.61 1785.22 2279.57C1648.94 2241.29 1561.99 2162.27 1512.39 2101.33ZM1355.16 2316.48C1413.01 2314.6 1591.5 2328.44 1818.77 2534.62C1600.83 2534.28 1408.54 2367.23 1355.16 2316.48ZM1389.01 2769.81C1448.19 2760.8 1626.29 2753.04 1929.48 2899.52C1725.61 2962.17 1462.45 2814.81 1389.01 2769.81Z" fill="#288594"/>
<path d="M73.9494 4589.96C122.239 4524.25 177.209 4466.09 234.349 4415.03C319.319 4502.3 443.299 4542.49 533.279 4560.85C632.549 4581.11 713.059 4579.93 713.869 4579.91C716.859 4579.86 719.499 4577.98 720.539 4575.18C721.579 4572.38 720.789 4569.23 718.569 4567.24C582.569 4446.03 457.899 4406.24 377.259 4394.2C325.929 4386.54 285.859 4388.69 260.919 4391.93C327.939 4335.16 396.929 4287.87 460.859 4249.48C547.389 4357.27 665.639 4404.83 750.299 4425.72C843.419 4448.7 914.999 4445.4 917.999 4445.25C920.799 4445.11 923.269 4443.36 924.339 4440.77C925.409 4438.18 924.889 4435.2 922.999 4433.12C921.299 4431.26 880.569 4386.98 803.219 4339.75C735.759 4298.56 627.359 4248.03 486.749 4234.24C512.099 4219.62 536.469 4206.44 559.349 4194.68C584.529 4181.73 608.859 4170 631.969 4159.4C646.359 4170.18 690.529 4201.17 758.279 4229.94C833.829 4262.02 953.869 4296.9 1096.69 4280.84C1099.75 4280.5 1102.26 4278.26 1102.95 4275.26C1103.64 4272.27 1102.37 4269.16 1099.77 4267.51C964.439 4181.6 844.189 4152.22 767.139 4142.7C731.919 4138.35 702.489 4137.59 680.019 4138.19C761.619 4103.58 820.719 4085.58 835.209 4081.34C890.719 4119.29 1146.72 4052.03 1191.5 4008.35C1193.1 4006.79 1193.89 4004.59 1193.65 4002.37C1193.41 4000.15 1192.16 3998.17 1190.27 3996.99C1162.74 3979.88 1093.51 3973.63 1025.65 3982.11C976.529 3988.25 886.589 4007.45 832.769 4066.94C820.179 4070.57 749.649 4091.6 652.939 4134.08C713.379 4070.83 742.669 3988.68 756.749 3928.36C773.439 3856.85 772.939 3801.39 772.909 3799.07C772.869 3796.31 771.279 3793.82 768.789 3792.62C766.299 3791.43 763.359 3791.75 761.179 3793.45C759.539 3794.74 720.489 3825.62 683.579 3884.82C653.559 3932.97 620.229 4008.57 620.289 4106.79C620.299 4119.92 620.899 4133.46 622.189 4147.39C622.209 4147.56 622.279 4147.71 622.299 4147.88C600.189 4158.08 576.999 4169.31 553.049 4181.61C528.479 4194.23 502.209 4208.5 474.859 4224.38C533.449 4088.18 540.929 3985.55 536.549 3922.65C531.589 3851.22 511.139 3814.37 510.279 3812.84C508.969 3810.53 506.509 3809.12 503.849 3809.16C501.189 3809.2 498.769 3810.7 497.539 3813.05C496.299 3815.42 466.889 3872.11 446.589 3953.25C436.729 3992.67 428.229 4041.84 428.259 4094.2C428.289 4140.79 435.099 4189.91 453.679 4236.88C386.529 4277.19 313.839 4327.18 243.569 4387.64C281.599 4068.55 195.609 3950.61 191.869 3945.67C190.199 3943.46 187.419 3942.4 184.699 3942.93C181.979 3943.46 179.799 3945.49 179.079 3948.16C178.869 3948.92 158.459 4025.4 154.299 4119.56C153.839 4130.04 153.569 4141 153.579 4152.32C153.629 4233.66 167.799 4333.39 224.819 4404.11C166.939 4455.82 111.229 4514.75 62.2694 4581.38C61.3194 4582.67 60.8594 4584.18 60.8594 4585.67C60.8594 4587.9 61.8894 4590.1 63.8194 4591.52C67.0394 4593.88 71.5794 4593.18 73.9494 4589.96ZM375.119 4408.55C450.869 4419.86 566.579 4456.38 694.059 4565.11C624.359 4562.89 385.209 4545.2 248.369 4408.62C268.789 4404.85 313.819 4399.4 375.119 4408.55ZM795.179 4351.84C847.299 4383.6 882.939 4414.55 900.239 4430.91C873.669 4430.56 818.629 4427.64 753.769 4411.63C673.309 4391.78 561.739 4347.32 478.349 4247.99C619.409 4260.48 727.999 4310.9 795.179 4351.84ZM1073.74 4268.46C943.649 4278.62 834.489 4246.48 764.429 4216.79C709.689 4193.59 670.059 4168.42 650.269 4154.65C703.099 4149.48 870.429 4145.72 1073.74 4268.46ZM1172.93 4004.66C1145.38 4023.3 1080.29 4046.44 1009.37 4062.23C932.539 4079.34 871.389 4082.85 847.859 4072.01C933.199 3984.42 1115.12 3982.32 1172.93 4004.66ZM695.569 3893.01C718.949 3855.39 743.649 3829.27 757.939 3815.71C755.419 3867.47 739.169 4029.56 635.509 4131.14C629.339 4024.64 664.309 3943.3 695.569 3893.01ZM503.699 3833.76C519.229 3874.52 553.159 4005.09 461.999 4217.6C408.779 4062.23 480.639 3884.24 503.699 3833.76ZM189.009 3969.08C209.939 4009.04 259.159 4134.03 229.169 4385.99C134.509 4256.1 174.959 4032.45 189.009 3969.08Z" fill="#FFD662" stroke="#FFD662" stroke-width="1.1127" stroke-miterlimit="10"/>
<path d="M2404.69 666.72C2404.69 666.72 2361.57 786.01 2354.57 822.91C2332.66 938.33 2322.66 1056.37 2330.02 1173.76C2336.78 1281.54 2351.58 1424.3 2409.27 1517.84C2416.11 1444.58 2557.66 1328.38 2601.59 1316.96C2601.59 1316.96 2490.45 1518.62 2473.68 1565.97C2452.89 1624.67 2454.16 1665.57 2487.69 1717.82C2558.53 1828.22 2636.9 1933.78 2722.09 2033.52C2713.46 1988.83 2743.39 1825.93 2866.42 1726.73C2866.42 1726.73 2720.09 2138.8 2924.1 2289.63C3024.11 2363.57 3140.96 2410.06 3258.28 2451.36C3372.2 2491.47 3486.11 2531.58 3600.03 2571.69C3645.28 2523.04 3661.71 2454.48 3664.81 2388.11C3666.13 2359.73 3663.11 2330.94 3653.67 2304.15C3634.32 2249.24 3589.21 2206.44 3538.37 2178.06C3487.53 2149.68 3468.5 2144.56 3412.36 2129.13C3517.02 2091.36 3581.73 2108.71 3671.24 2157.68C3704.97 1934.47 3627.12 1711.14 3550.49 1498.79C3518.73 1410.79 3478.35 1335.02 3382.12 1307.27C3299.76 1283.53 3208.5 1294.23 3124.01 1297.12C3192.89 1236.58 3319.05 1215.73 3363.45 1214.71C3348.24 1196.42 3324.75 1178.37 3306.19 1160.79C3172.57 1034.24 3022.66 920.67 2860.41 833.92C2674.64 734.62 2404.69 666.72 2404.69 666.72Z" fill="#40A8B3"/>
<path d="M3600.01 2571.7C3600.01 2571.7 3190.32 2305.18 2361.61 572.45" stroke="#288594" stroke-width="22.5214" stroke-miterlimit="10"/>
<path d="M1598.99 1834.75C1560.94 1718.06 1501.59 1609.56 1432.85 1508.28C1366.04 1409.85 1283.36 1323.39 1217.32 1224.44C1085.27 1026.59 957.79 567.71 961.88 566.95C965.98 566.19 1004.13 602.34 1014.42 611.22C1029.67 624.38 1044.65 637.87 1059.32 651.67C1066.29 658.22 1073.18 664.87 1080.08 671.48C1086.92 678.03 1095.45 684.6 1101.16 692.15C1146.3 737.14 1189.08 784.48 1229.33 833.89C1309.84 932.72 1380.2 1039.82 1438.94 1152.95C1547.36 1361.77 1630.26 1596.5 1598.99 1834.75Z" fill="#FF7F40"/>
<path d="M923.09 523.63C924.87 533.25 1229.21 719.79 1382.27 817.87C1434.3 851.21 1486.33 884.55 1538.36 917.89C1680.46 1008.94 1978.87 1184.29 1978.87 1184.29C1949.62 1139.21 1919.5 1094.62 1888.3 1050.86C1837.62 979.75 1777.06 917.3 1709.81 861.53C1593.4 765 1472 674.27 1328.94 623.43C1213.41 582.37 921.31 514.01 923.09 523.63Z" fill="#FF7F40"/>
<path d="M604.641 204.67C586.221 211.35 604.151 329.22 605.251 343.56C612.861 443.24 625.03 542.69 640.22 641.49C673.47 857.73 737.021 1068.8 826.881 1268.21C868.311 1360.13 908.901 1452.46 951.931 1543.69C956.681 1553.75 1010.58 1684.2 1021.93 1682.1C1035.68 1679.34 981.691 1303.46 978.801 1269.88C961.241 1065.33 905.771 865.87 831.581 675.03C815.401 633.39 619.581 199.25 604.641 204.67Z" fill="#FF7F40"/>
<path d="M359.02 -13.5302C367.63 -15.7902 373.06 2.98976 382.33 28.4398C407.65 97.8998 430.58 168.23 451.13 239.25C492.24 381.28 523.801 526.08 545.461 672.35C555.491 740.03 565.381 807.96 570.831 876.15C585.801 1062.32 575.16 1252.5 518.38 1430.43C405.68 1264.02 327.22 1073.57 292.32 875.53C247.34 620.27 243.25 353.11 312.51 101.71C320.64 72.1898 327.63 38.9298 340.94 11.2698C348.68 -4.81024 354.33 -12.3002 359.02 -13.5302Z" fill="#FF7F40"/>
<path d="M231.7 74.4997C230.67 223.25 192.35 370.45 174.85 517.76C165.52 596.29 157.96 675.03 152.18 753.9C146.75 828.01 162.2 1067.88 140.83 1062.57C119.46 1057.26 78.4701 847.87 69.8301 814.36C20.4601 622.57 20.3901 439.88 61.4401 244.56C78.3201 164.27 102.8 85.5597 134.3 9.80974C146.36 -19.2003 198.27 -142.39 208.83 -135.57C237.25 -117.2 232 30.2697 231.7 74.4997Z" fill="#FF7F40"/>
<path d="M797.98 388.85C792.55 359.53 1084.75 324.21 1148.07 322.65C1306.94 318.72 1466.03 349.51 1613.89 407.1C1688.24 436.06 1759.94 471.88 1827.7 514.01C1886.9 550.82 2012.02 657.13 2012.02 657.13C2012.02 657.13 1576.09 551.47 1440.63 531.74C1224.97 500.31 803.41 418.17 797.98 388.85Z" fill="#FF7F40"/>
<path d="M1402.05 -28.6802C1488.26 -3.78025 1571.81 29.4097 1654.97 63.1297C1737.99 96.7897 1821.01 130.46 1904.02 164.12C1692.07 128.08 1477.31 108.63 1262.34 106.01C1136.63 104.48 1010.92 108.69 885.22 106.28C805.45 104.75 496.251 124.32 483.631 81.2397C471.021 38.1697 874.341 -181.12 1402.05 -28.6802Z" fill="#FF7F40"/>
<path d="M996.31 618.53C996.31 618.53 444.81 -77.6102 -192.34 -375.2" stroke="#FF7F40" stroke-width="20" stroke-miterlimit="10"/>
<path d="M359.02 4986.47C367.63 4984.21 373.06 5002.99 382.33 5028.44C407.65 5097.9 430.58 5168.23 451.13 5239.25C492.24 5381.28 523.801 5526.08 545.461 5672.35C555.491 5740.03 565.381 5807.96 570.831 5876.15C585.801 6062.32 575.16 6252.5 518.38 6430.43C405.68 6264.02 327.22 6073.57 292.32 5875.53C247.34 5620.27 243.25 5353.11 312.51 5101.71C320.64 5072.19 327.63 5038.93 340.94 5011.27C348.68 4995.19 354.33 4987.7 359.02 4986.47Z" fill="#FF7F40"/>
<path d="M231.7 5074.5C230.67 5223.25 192.35 5370.45 174.85 5517.76C165.52 5596.29 157.96 5675.03 152.18 5753.9C146.75 5828.01 162.2 6067.88 140.83 6062.57C119.46 6057.26 78.4701 5847.87 69.8301 5814.36C20.4601 5622.57 20.3901 5439.88 61.4401 5244.56C78.3301 5164.28 102.81 5085.57 134.31 5009.82C146.37 4980.81 198.28 4857.62 208.84 4864.44C237.25 4882.8 232 5030.27 231.7 5074.5Z" fill="#FF7F40"/>
<path d="M1402.05 4971.32C1488.26 4996.22 1571.81 5029.41 1654.97 5063.13C1737.99 5096.79 1821.01 5130.46 1904.02 5164.12C1692.07 5128.08 1477.31 5108.63 1262.34 5106.01C1136.63 5104.48 1010.92 5108.69 885.22 5106.28C805.45 5104.75 496.251 5124.32 483.631 5081.24C471.021 5038.17 874.341 4818.88 1402.05 4971.32Z" fill="#FF7F40"/>
<path d="M252.63 4891.62C249.3 4890.83 297.12 4834.05 377.85 4782.87C464.67 4727.84 561.1 4690.11 659.81 4661.31C1023.71 4555.17 1388.83 4634.57 1746.38 4722.98C1752.08 4724.39 1763.38 4729.71 1769.08 4728.6C1578.21 4765.81 1386.14 4798.48 1192.35 4815.93C1056.53 4828.16 330.06 4909.91 252.63 4891.62Z" fill="#FF7F40"/>
<path d="M996.31 5618.53C996.31 5618.53 444.81 4922.39 -192.34 4624.8" stroke="#FF7F40" stroke-width="20" stroke-miterlimit="10"/>
<path d="M2064.31 4451.45C2043.07 4458.14 1813.35 4544.68 1988.12 4775.32C2071.72 4885.64 2154.02 4899.54 2208.31 4875.78C2264.99 4850.97 2301.02 4794.09 2302.51 4732.23C2305.14 4624.2 2243.51 4395 2064.31 4451.45Z" fill="#FFAE1F"/>
<path d="M2522.99 439.95C2555.51 434.32 2586.65 428.08 2615.75 421.69C2841.58 372.06 3053.45 267.84 3242.02 135.52C3335.1 70.2099 3417.95 11.8699 3512.79 -68.2301C3534.26 -86.3701 3601.98 -151.59 3601.98 -151.59C3601.98 -151.59 3477.02 -156.44 3459.95 -157.82C3406.63 -162.12 3356.26 -168.55 3306.98 -176.41C3077.08 -213.09 2821.14 -223.52 2593.19 -170.23C2330.39 -108.89 2121.54 75.7499 1962.96 286.2C1931.47 328 1862.93 418.6 1862.93 418.6C1862.93 418.6 2334.78 472.52 2522.99 439.95Z" fill="#FFD662"/>
<path d="M3581.26 -147.9C3140.21 115.91 2565.47 54.3198 2113.98 299.83C2033.93 343.36 1949.52 383.3 1866.68 413.66" stroke="#FDF2D6" stroke-width="14.7675" stroke-miterlimit="10"/>
<path d="M1852.94 3971.56C1852.57 3941.03 1851.43 3911.69 1849.85 3884.18C1837.62 3670.67 1773.48 3461.92 1680.27 3270.31C1634.26 3175.73 1593.13 3091.53 1533.87 2993.18C1520.45 2970.91 1470.81 2899.51 1470.81 2899.51C1470.81 2899.51 1448.07 3012.92 1444.31 3028.31C1432.57 3076.38 1419.32 3121.43 1404.92 3165.28C1337.74 3369.86 1290.71 3602.06 1305.98 3818.05C1323.49 4067.03 1461.51 4284.82 1630.47 4460.48C1664.02 4495.36 1736.73 4571.23 1736.73 4571.23C1736.73 4571.23 1855.1 4148.21 1852.94 3971.56Z" fill="#40A8B3"/>
<path d="M1471.15 2918.97C1647.45 3360.41 1506.99 3876.25 1665.04 4324.55C1693.06 4404.03 1717.17 4486.97 1732.76 4567.07" stroke="#288594" stroke-width="13.6587" stroke-miterlimit="10"/>
<path d="M2522.99 5439.95C2555.51 5434.32 2586.65 5428.08 2615.75 5421.69C2841.58 5372.06 3053.45 5267.84 3242.02 5135.52C3335.1 5070.21 3417.95 5011.87 3512.79 4931.77C3534.26 4913.64 3601.98 4848.41 3601.98 4848.41C3601.98 4848.41 3477.02 4843.56 3459.95 4842.18C3406.63 4837.88 3356.26 4831.45 3306.98 4823.59C3077.08 4786.91 2821.14 4776.48 2593.19 4829.77C2330.39 4891.11 2121.54 5075.75 1962.96 5286.2C1931.47 5327.99 1862.93 5418.6 1862.93 5418.6C1862.93 5418.6 2334.78 5472.52 2522.99 5439.95Z" fill="#FFD662"/>
<path d="M3581.26 4852.1C3140.21 5115.91 2565.47 5054.32 2113.98 5299.83C2033.93 5343.36 1949.52 5383.3 1866.68 5413.66" stroke="#FDF2D6" stroke-width="14.7675" stroke-miterlimit="10"/>
<path d="M-504.06 3154C-532.06 3154.34 -560.02 3153.26 -587.87 3148.69C-615.3 3144.18 -642.74 3136.01 -665.23 3119.67C-776.15 3039.05 -699.14 2882.3 -591.33 2849.64C-417.32 2796.94 -290.03 2882.26 -128.4 2928.84C-0.93045 2965.57 135.05 2932.8 262.47 2969.44C341.81 2992.26 389.79 3060.43 454.52 3106.86C567.9 3188.19 711.34 3213.27 823.92 3295.64C927.05 3371.1 1005.72 3485.31 1047.56 3605.25C1058.81 3637.49 1067.59 3672.67 1058.08 3705.46C1046.79 3744.35 1010.14 3772.85 970.41 3780.67C877.21 3799.02 806.9 3724.71 750.25 3662.65C665.63 3569.96 573.89 3502.64 462.94 3444.86C366.64 3394.71 257.93 3402.72 157.06 3368.97C62.6996 3337.42 -7.92044 3262.7 -95.0104 3217.37C-169.48 3178.61 -254.94 3157.27 -338.54 3151.15C-393.61 3147.12 -448.93 3153.33 -504.06 3154Z" stroke="#40A8B3" stroke-width="25" stroke-miterlimit="10"/>
<path d="M1257.9 3215.98C1257.9 3215.98 897.259 3115.96 721.329 3052.05C824.389 3058.08 924.639 2994.39 956.919 2902.36C847.519 2951.62 730.999 3002.08 608.239 2988.77C461.699 2972.87 345.669 2864.42 229.989 2773.3C119.489 2686.25 98.6693 2616.47 35.2493 2560.53C123.429 2563.62 216.089 2611.66 304.259 2614.76C192.689 2570.54 111.359 2476.34 35.1993 2385.94C7.31933 2352.84 -20.9307 2319.19 -38.5507 2280.44C-54.3607 2245.69 -60.9907 2208.21 -67.4907 2171.18C-88.8907 2049.21 -110.291 1927.24 -131.691 1805.27C-65.9507 1839.39 -0.22068 1873.51 65.5193 1907.63C-6.47068 1814.51 -125.891 1703.26 -150.441 1628.28C-174.991 1553.3 -126.601 1347.75 -181.431 1211.13C20.7993 1351.75 232.219 1492.97 431.939 1636.91C412.659 1590.43 393.389 1543.95 374.109 1497.47C488.239 1542.11 603.719 1587.45 703.999 1657.11C804.289 1726.77 889.399 1824.5 916.259 1938.68C935.609 2020.93 923.799 2105.51 907.999 2187.01C939.609 2104.95 966.969 2021.24 989.929 1936.29C1134.23 2116.19 1211.81 2336.76 1247.11 2557.46C1282.43 2778.15 1257.9 3215.98 1257.9 3215.98Z" fill="#FFB83A"/>
<path d="M1257.9 3215.98C1257.9 3215.98 897.259 3115.96 721.329 3052.05C824.389 3058.08 924.639 2994.39 956.919 2902.36C847.519 2951.62 730.999 3002.08 608.239 2988.77C461.699 2972.87 340.179 2870.49 229.989 2773.3C166.569 2717.36 107.959 2625.08 44.5393 2569.14C132.719 2572.23 216.079 2611.66 304.259 2614.76C192.689 2570.54 111.359 2476.34 35.1993 2385.94C7.31933 2352.84 -20.9307 2319.19 -38.5507 2280.44C-54.3607 2245.69 -60.9907 2208.21 -67.4907 2171.18C-88.8907 2049.21 -110.291 1927.24 -131.691 1805.27C-65.9507 1839.39 -0.22068 1873.51 65.5193 1907.63C-6.47068 1814.51 -125.891 1703.26 -150.441 1628.28C-174.991 1553.3 -126.601 1347.75 -181.431 1211.13C20.7993 1351.75 232.219 1492.97 431.939 1636.91C412.659 1590.43 393.389 1543.95 374.109 1497.47C488.239 1542.11 603.719 1587.45 703.999 1657.11C804.289 1726.77 889.399 1824.5 916.259 1938.68C935.609 2020.93 923.799 2105.51 907.999 2187.01C939.609 2104.95 966.969 2021.24 989.929 1936.29C1134.23 2116.19 1211.81 2336.76 1247.11 2557.46C1282.43 2778.15 1257.9 3215.98 1257.9 3215.98Z" fill="#FFAE1F"/>
<path d="M-161.891 1229.64C10.8994 1452.99 194.749 1668.13 358.919 1896.91C521.019 2122.81 683.689 2348.36 845.229 2574.61C985.479 2771.05 1150.3 2964.76 1234.63 3189.69" stroke="#FBD04E" stroke-width="20.6156" stroke-miterlimit="10" stroke-linecap="round" stroke-linejoin="round"/>
<path d="M4460.02 3721.15C4187.07 3666.81 3945.07 3376.99 4134.71 2703.19C4477.29 1486 6544.88 40.2098 7461.5 92.6898C7870.04 116.08 8286.6 349.82 8317.97 795.92C8352.92 1292.94 7974.24 1702.27 7583.94 1954.04C7272.39 2155.01 6923.1 2288.12 6584.45 2439.01C6170.69 2623.38 5722.88 2862.49 5447.68 3232.62C5221.74 3536.51 4854.77 3799.73 4460.02 3721.15Z" fill="#FDF2D6"/>
<path d="M4495.94 3154C4467.94 3154.34 4439.98 3153.26 4412.13 3148.69C4384.7 3144.18 4357.26 3136.01 4334.77 3119.67C4223.85 3039.05 4300.86 2882.3 4408.67 2849.64C4582.68 2796.94 4709.97 2882.26 4871.6 2928.84C4999.07 2965.57 5135.05 2932.8 5262.47 2969.44C5341.81 2992.26 5389.79 3060.43 5454.52 3106.86C5567.9 3188.19 5711.34 3213.27 5823.92 3295.64C5927.05 3371.1 6005.72 3485.31 6047.56 3605.25C6058.81 3637.49 6067.59 3672.67 6058.08 3705.46C6046.79 3744.35 6010.14 3772.85 5970.41 3780.67C5877.21 3799.02 5806.9 3724.71 5750.25 3662.65C5665.63 3569.96 5573.89 3502.64 5462.94 3444.86C5366.64 3394.71 5257.93 3402.72 5157.06 3368.97C5062.72 3337.41 4992.1 3262.68 4905.01 3217.36C4830.54 3178.6 4745.08 3157.26 4661.48 3151.14C4606.39 3147.12 4551.07 3153.33 4495.94 3154Z" stroke="#40A8B3" stroke-width="25" stroke-miterlimit="10"/>
<path d="M6257.9 3215.98C6257.9 3215.98 5897.26 3115.96 5721.33 3052.05C5824.39 3058.08 5924.64 2994.39 5956.92 2902.36C5847.52 2951.62 5731 3002.08 5608.24 2988.77C5461.7 2972.87 5345.67 2864.42 5229.99 2773.3C5119.49 2686.25 5098.67 2616.47 5035.25 2560.53C5123.43 2563.62 5216.09 2611.66 5304.26 2614.76C5192.69 2570.54 5111.36 2476.34 5035.2 2385.94C5007.32 2352.84 4979.07 2319.19 4961.45 2280.44C4945.64 2245.69 4939.01 2208.21 4932.51 2171.18C4911.11 2049.21 4889.71 1927.24 4868.31 1805.27C4934.05 1839.39 4999.78 1873.51 5065.52 1907.63C4993.53 1814.51 4874.11 1703.26 4849.56 1628.28C4825 1553.31 4873.4 1347.75 4818.58 1211.13C5020.81 1351.75 5232.23 1492.97 5431.95 1636.91C5412.67 1590.43 5393.4 1543.95 5374.12 1497.47C5488.25 1542.11 5603.73 1587.45 5704.01 1657.11C5804.3 1726.77 5889.41 1824.5 5916.27 1938.68C5935.62 2020.93 5923.81 2105.51 5908.01 2187.01C5939.62 2104.95 5966.98 2021.24 5989.94 1936.29C6134.24 2116.19 6211.82 2336.76 6247.12 2557.46C6282.43 2778.15 6257.9 3215.98 6257.9 3215.98Z" fill="#FFB83A"/>
<path d="M6257.9 3215.98C6257.9 3215.98 5897.26 3115.96 5721.33 3052.05C5824.39 3058.08 5924.64 2994.39 5956.92 2902.36C5847.52 2951.62 5731 3002.08 5608.24 2988.77C5461.7 2972.87 5340.18 2870.49 5229.99 2773.3C5166.57 2717.36 5107.96 2625.08 5044.54 2569.14C5132.72 2572.23 5216.08 2611.66 5304.26 2614.76C5192.69 2570.54 5111.36 2476.34 5035.2 2385.94C5007.32 2352.84 4979.07 2319.19 4961.45 2280.44C4945.64 2245.69 4939.01 2208.21 4932.51 2171.18C4911.11 2049.21 4889.71 1927.24 4868.31 1805.27C4934.05 1839.39 4999.78 1873.51 5065.52 1907.63C4993.53 1814.51 4874.11 1703.26 4849.56 1628.28C4825 1553.31 4873.4 1347.75 4818.58 1211.13C5020.81 1351.75 5232.23 1492.97 5431.95 1636.91C5412.67 1590.43 5393.4 1543.95 5374.12 1497.47C5488.25 1542.11 5603.73 1587.45 5704.01 1657.11C5804.3 1726.77 5889.41 1824.5 5916.27 1938.68C5935.62 2020.93 5923.81 2105.51 5908.01 2187.01C5939.62 2104.95 5966.98 2021.24 5989.94 1936.29C6134.24 2116.19 6211.82 2336.76 6247.12 2557.46C6282.43 2778.15 6257.9 3215.98 6257.9 3215.98Z" fill="#FFAE1F"/>
<path d="M4838.11 1229.64C5010.9 1452.99 5194.75 1668.13 5358.92 1896.91C5521.02 2122.81 5683.69 2348.36 5845.23 2574.61C5985.48 2771.05 6150.3 2964.76 6234.63 3189.69" stroke="#FBD04E" stroke-width="20.6156" stroke-miterlimit="10" stroke-linecap="round" stroke-linejoin="round"/>
<path d="M3067.27 670.32C3067.27 670.32 2984.77 518.18 3074.3 450.82C3163.83 383.47 3284.65 409.99 3421.11 584.89C3557.57 759.79 3518.08 915.22 3476.48 957.83C3434.88 1000.44 3251.37 1004.67 3067.27 670.32Z" fill="#FF7F40"/>
<path d="M2621.33 2696.03C2688.32 2689.55 2732.75 2582.09 2720.57 2456.01C2708.38 2329.93 2644.2 2232.96 2577.2 2239.44C2510.21 2245.91 2465.78 2353.37 2477.97 2479.46C2490.15 2605.54 2554.34 2702.5 2621.33 2696.03Z" stroke="#FF981D" stroke-width="25" stroke-miterlimit="10" stroke-linecap="round" stroke-linejoin="round"/>
<path d="M2473 4326.74C2473 4326.74 2171.55 4401.45 2007.32 4026.29C1843.09 3651.13 1924.83 3483.59 1974.87 3450.53C2024.91 3417.47 2171.95 3449.06 2215.92 3655.74C2263.98 3881.65 2303.56 3954.71 2457.29 4096.5C2593.3 4221.92 2542.5 4319.1 2473 4326.74Z" stroke="#FF7F40" stroke-width="25" stroke-miterlimit="10"/>
<path d="M2074.69 1509.86C2061.27 1508.14 2048.44 1503.08 2037.65 1494.92C2007.41 1472.05 1958.82 1416.29 2011.82 1316.18C2050.2 1243.69 2108.79 1222.32 2142.85 1228.47C2172.81 1233.88 2196.96 1254.52 2212.16 1280.9C2279.78 1398.32 2138.15 1518 2074.69 1509.86Z" fill="#FFAE1F"/>
<path d="M4586.07 4227.25C4590.82 4214.58 4598.68 4203.25 4609.1 4194.62C4638.29 4170.43 4703.7 4135.91 4789 4210.45C4850.76 4264.42 4858.13 4326.35 4844.34 4358.09C4832.21 4386.01 4806.58 4404.79 4777.42 4413.53C4647.63 4452.45 4563.61 4287.16 4586.07 4227.25Z" fill="#FFD662" stroke="#FFD662" stroke-width="1.1127" stroke-miterlimit="10"/>
<path d="M2300.53 2750.98C2384.32 2840.66 2483.96 2913.93 2589.05 2976.68C2691.19 3037.66 2802.66 3081.09 2904.32 3142.87C3107.6 3266.41 3417.03 3628.44 3413.64 3630.86C3410.25 3633.28 3360.39 3616.63 3347.32 3612.93C3327.93 3607.45 3308.67 3601.55 3289.53 3595.24C3280.44 3592.25 3271.4 3589.13 3262.34 3586.05C3253.37 3583 3242.86 3580.66 3234.5 3576.22C3174.58 3554.52 3115.8 3529.68 3058.44 3501.91C2943.71 3446.35 2834.69 3379.01 2733.65 3301.29C2547.17 3157.86 2372.86 2980.14 2300.53 2750.98Z" fill="#FFD662"/>
<path d="M3467.11 3653.75C3461.43 3645.79 3106.77 3605.3 2926.61 3581.08C2865.37 3572.85 2804.12 3564.61 2742.88 3556.38C2575.62 3533.89 2231.06 3501.05 2231.06 3501.05C2276.62 3529.55 2322.76 3557.24 2369.52 3583.72C2445.5 3626.76 2526.77 3657.77 2611.3 3679.9C2757.59 3718.2 2905.96 3749.14 3057.1 3734.78C3179.15 3723.18 3472.78 3661.71 3467.11 3653.75Z" fill="#FFD662"/>
<path d="M3890.5 3808.29C3904.38 3794.45 3838.31 3695.2 3831.26 3682.66C3782.24 3595.53 3729.2 3510.53 3673.68 3427.4C3552.17 3245.46 3405.4 3081 3239.69 2938.24C3163.3 2872.43 3087.5 2805.9 3009.95 2741.4C3001.4 2734.29 2897.43 2638.82 2888.02 2645.53C2876.73 2653.84 3084.48 2971.71 3101.28 3000.93C3203.62 3178.91 3338.17 3336.25 3486.05 3477.87C3518.33 3508.77 3879.25 3819.51 3890.5 3808.29Z" fill="#FFD662"/>
<path d="M4205.31 3902.28C4198.46 3907.96 4185.61 3893.24 4166.45 3874.09C4114.15 3821.84 4063.65 3767.77 4015.02 3712.09C3917.74 3600.73 3827.97 3482.82 3746.53 3359.41C3708.85 3302.31 3671.18 3244.92 3637.42 3185.41C3545.2 3023 3474.48 2846.13 3450.77 2660.87C3623.23 2764.08 3774.81 2903.54 3890.11 3068.29C4038.73 3280.64 4155.32 3521.06 4198.77 3778.17C4203.87 3808.36 4211.59 3841.46 4211.22 3872.16C4211 3890.01 4209.05 3899.18 4205.31 3902.28Z" fill="#FFD662"/>
<path d="M4283.52 3768.7C4221.61 3633.44 4194.14 3483.83 4147.77 3342.93C4123.05 3267.81 4096.63 3193.26 4068.55 3119.33C4042.16 3049.87 3926.81 2838.99 3948.42 2834.77C3970.03 2830.55 4095.66 3003.02 4117.64 3029.73C4243.42 3182.7 4320.68 3348.25 4366 3542.63C4384.62 3622.53 4395.68 3704.21 4399.14 3786.17C4400.46 3817.56 4405.47 3951.15 4393.02 3949.42C4359.48 3944.79 4301.93 3808.91 4283.52 3768.7Z" fill="#FFD662"/>
<path d="M3637.45 3723.05C3654.76 3747.33 3404.84 3902.8 3348.12 3930.97C3205.79 4001.66 3048.59 4040.97 2890.24 4051.25C2810.62 4056.42 2730.5 4054.24 2651.28 4044.69C2582.07 4036.35 2423.75 3992.85 2423.75 3992.85C2423.75 3992.85 2863.5 3904.43 2994.62 3865.08C3203.35 3802.43 3620.13 3698.77 3637.45 3723.05Z" fill="#FFD662"/>
<path d="M3266.36 4356.71C3177.7 4370.57 3087.95 4375.79 2998.33 4380.36C2908.86 4384.93 2819.4 4389.49 2729.93 4394.06C2937.26 4337.18 3140.13 4264.06 3336.07 4175.61C3450.65 4123.88 3562.81 4066.95 3677.76 4016.02C3750.7 3983.7 4022.69 3835.32 4052.32 3869.03C4081.95 3902.74 3809.06 4271.9 3266.36 4356.71Z" fill="#FFD662"/>
<path d="M4341.81 3943.29C4345.16 3942.6 4325.82 4014.27 4274.26 4094.77C4218.82 4181.33 4147.37 4256.27 4070.06 4324.08C3785.08 4574.04 3420.61 4656.34 3059.18 4727.28C3053.42 4728.41 3040.92 4728.37 3036.23 4731.78C3193.51 4617.41 3353.78 4506.65 3522.06 4408.95C3640.01 4340.47 4263.91 3959.43 4341.81 3943.29Z" fill="#FFD662"/>
<path d="M3360.65 3598.67C3360.65 3598.67 4154.64 3996.6 4857.86 3997.11" stroke="#FFD662" stroke-width="20" stroke-miterlimit="10"/>
<rect width="5000" height="5000" fill="#F8F8F8" fill-opacity="0.75"/>
</g>
<defs>
<clipPath id="clip0_46_437">
<rect width="5000" height="5000" fill="white"/>
</clipPath>
</defs>
</svg>
