<svg width="5000" height="5000" viewBox="0 0 5000 5000" fill="none" xmlns="http://www.w3.org/2000/svg">
<g clip-path="url(#clip0_44_11)">
<path d="M5000 -0.000488281H0V5000H5000V-0.000488281Z" fill="white"/>
<path d="M1329.57 986.229C1379.25 1000.28 1428.79 1014.9 1477.47 1032.08C1673.34 1101.18 1868.87 1213.19 2012.47 1364.99C2086.05 1442.77 2148.71 1541.6 2174.24 1648.92C2188.56 1709.1 2190.96 1775.26 2162.44 1830.15C2119.38 1913.03 2013.7 1948.84 1921.62 1933.23C1829.54 1917.62 1749.75 1860.51 1681.86 1796.37C1517.39 1640.98 1408.54 1439.55 1259.67 1270.83C1103.15 1093.45 914.86 961.87 712.14 842.27C712.15 842.27 1126.22 928.719 1329.57 986.229Z" fill="#288594"/>
<path d="M712.15 842.27C1153.99 1005.45 1585.05 1274.1 1924.67 1600.45" stroke="#40A8B3" stroke-width="18.5232" stroke-miterlimit="10" stroke-linecap="round" stroke-linejoin="round"/>
<path d="M3667.46 1125.89C3631.18 1151.85 3595.17 1178.23 3560.61 1206.44C3421.56 1319.94 3295.34 1468.22 3222.98 1633.67C3185.91 1718.44 3163.87 1817.14 3174.51 1911.87C3180.48 1964.99 3197.88 2019.49 3237.13 2055.78C3296.39 2110.58 3392.8 2108.78 3463.11 2069.14C3533.42 2029.5 3581.59 1959.72 3618.02 1887.71C3706.29 1713.23 3735.87 1517.6 3807.56 1336.86C3882.94 1146.83 3997.55 984.75 4127.39 828.2C4127.39 828.2 3815.98 1019.63 3667.46 1125.89Z" fill="#288594"/>
<path d="M4127.39 828.2C3815.86 1090.15 3543.95 1434.72 3363.27 1799.45" stroke="#40A8B3" stroke-width="16.0071" stroke-miterlimit="10" stroke-linecap="round" stroke-linejoin="round"/>
<path d="M864.37 3015.05C865.38 3068.99 865.77 3122.97 863.35 3176.87C853.61 3393.71 800.86 3623.22 692.57 3812.85C637.08 3910.01 557.23 4002.65 457.64 4060.71C401.79 4093.27 336.35 4115.73 272.81 4103.85C176.87 4085.91 109.01 3991.08 96.7199 3894.25C84.4199 3797.42 117.35 3700.31 160.92 3612.97C266.48 3401.37 434.94 3231.45 558.55 3031.42C688.51 2821.11 763.03 2592.91 821.19 2353.92C821.19 2353.91 860.25 2794.24 864.37 3015.05Z" fill="#288594"/>
<path d="M821.19 2353.91C791.93 2845.27 653.91 3357.82 430.46 3796.41" stroke="#40A8B3" stroke-width="19.3578" stroke-miterlimit="10" stroke-linecap="round" stroke-linejoin="round"/>
<path d="M4389.74 2378.54C4349.83 2418.82 4310.35 2459.58 4273.07 2502.32C4123.1 2674.26 3996.64 2887.04 3941.35 3109.83C3913.02 3223.98 3906.51 3352.36 3940.09 3468.78C3958.92 3534.07 3992.38 3598.63 4049.32 3635.72C4135.29 3691.71 4255.71 3668.85 4335.33 3604.15C4414.95 3539.45 4460.39 3441.72 4490.65 3343.69C4563.96 3106.2 4559.19 2854.74 4610.38 2612.94C4664.2 2358.72 4773.16 2131.12 4902.39 1907.2C4902.4 1907.2 4553.13 2213.65 4389.74 2378.54Z" fill="#288594"/>
<path d="M4902.4 1907.2C4568.05 2302.03 4301 2791.91 4152.59 3287.55" stroke="#40A8B3" stroke-width="20.3471" stroke-miterlimit="10" stroke-linecap="round" stroke-linejoin="round"/>
<path d="M2858.51 -104.24C2916.91 -133.6 2975.69 -162.32 3035.84 -187.91C3277.85 -290.88 3556.22 -353.5 3820.15 -334.54C3955.37 -324.83 4098.42 -286.12 4214.03 -207.74C4278.86 -163.78 4337.68 -104.06 4358 -28.4105C4388.67 85.8095 4320.61 209.63 4221.27 273.799C4121.93 337.969 3998.58 352.87 3880.33 351.03C3593.85 346.57 3319.94 251.55 3036.64 221.31C2738.78 189.52 2450.42 227.67 2158.84 289.34C2158.83 289.33 2619.43 15.9495 2858.51 -104.24Z" fill="#288594"/>
<path d="M2158.83 289.33C2710.98 63.8596 3343.27 -53.9004 3939.51 -39.5704" stroke="#40A8B3" stroke-width="23.4551" stroke-miterlimit="10" stroke-linecap="round" stroke-linejoin="round"/>
<path d="M2858.51 4895.76C2916.91 4866.4 2975.69 4837.68 3035.84 4812.09C3277.85 4709.12 3556.22 4646.5 3820.15 4665.46C3955.37 4675.17 4098.42 4713.88 4214.03 4792.26C4278.86 4836.22 4337.68 4895.94 4358 4971.59C4388.67 5085.81 4320.61 5209.63 4221.27 5273.8C4121.93 5337.97 3998.58 5352.87 3880.33 5351.03C3593.85 5346.57 3319.94 5251.55 3036.64 5221.31C2738.78 5189.52 2450.42 5227.67 2158.84 5289.34C2158.83 5289.33 2619.43 5015.95 2858.51 4895.76Z" fill="#288594"/>
<path d="M2158.83 5289.33C2710.98 5063.86 3343.27 4946.1 3939.51 4960.42" stroke="#40A8B3" stroke-width="23.4551" stroke-miterlimit="10" stroke-linecap="round" stroke-linejoin="round"/>
<path d="M112 300.08C196.27 225.75 268.31 133.39 372.51 91.3297C476.71 49.2697 606.56 54.5997 689.83 130.05C741.13 176.53 769.78 245.24 773.56 314.36C778.67 407.97 741.14 498.79 694.81 580.29C544.23 845.13 306.05 1053.38 109.26 1282.89C-92.7901 1518.53 -274.2 1774.46 -421.14 2049C-421.15 2048.99 -641.72 964.83 112 300.08Z" fill="#40A8B3"/>
<path d="M-421.15 2048.99C-301.3 1491.89 -63.7901 925.74 281.39 472.34" stroke="#288594" stroke-width="31.5143" stroke-miterlimit="10" stroke-linecap="round" stroke-linejoin="round"/>
<path d="M5112 300.08C5196.27 225.75 5268.31 133.39 5372.51 91.3297C5476.71 49.2697 5606.56 54.5997 5689.83 130.05C5741.13 176.53 5769.78 245.24 5773.56 314.36C5778.67 407.97 5741.14 498.79 5694.81 580.29C5544.23 845.13 5306.05 1053.38 5109.26 1282.89C4907.21 1518.53 4725.8 1774.46 4578.86 2049C4578.85 2048.99 4358.28 964.83 5112 300.08Z" fill="#40A8B3"/>
<path d="M4578.85 2048.99C4698.7 1491.89 4936.21 925.74 5281.39 472.34" stroke="#288594" stroke-width="31.5143" stroke-miterlimit="10" stroke-linecap="round" stroke-linejoin="round"/>
<path d="M1616.54 2927.93C1593.63 3037.94 1591.32 3155.05 1533.13 3251.17C1474.94 3347.29 1367.8 3420.85 1255.92 3410.37C1187 3403.91 1122.88 3366.08 1078.43 3313.02C1018.23 3241.15 993.84 3145.96 982.08 3052.95C943.88 2750.7 1009.71 2441.24 1029.68 2139.58C1050.18 1829.85 1042 1516.26 995.08 1208.43C995.07 1208.43 1821.44 1944.06 1616.54 2927.93Z" fill="#40A8B3"/>
<path d="M995.07 1208.43C1233.04 1726.21 1382.25 2321.75 1377.69 2891.58" stroke="#288594" stroke-width="31.5143" stroke-miterlimit="10" stroke-linecap="round" stroke-linejoin="round"/>
<path d="M3033.45 1821.4C3083.87 1756.67 3147.98 1700.05 3173.99 1622.23C3200.01 1544.41 3190.34 1450.01 3131.64 1392.68C3095.48 1357.36 3044.12 1339.54 2993.58 1339.87C2925.13 1340.31 2860.61 1371.71 2803.27 1409.11C2616.96 1530.65 2475.78 1713.52 2317.27 1867.17C2154.53 2024.93 1976.08 2168.54 1782.53 2287.86C1782.54 2287.86 2582.52 2400.34 3033.45 1821.4Z" fill="#40A8B3"/>
<path d="M1782.54 2287.86C2183.23 2175.7 2585.28 1977.38 2900.36 1705.61" stroke="#288594" stroke-width="23.0114" stroke-miterlimit="10" stroke-linecap="round" stroke-linejoin="round"/>
<path d="M2733.26 3302.31C2681.03 3408.85 2607.03 3507.96 2593.21 3625.8C2579.39 3743.65 2621 3874.42 2721.04 3938.21C2782.67 3977.51 2860.64 3987.55 2932.09 3972.14C3028.86 3951.27 3110.91 3887.74 3181 3817.84C3408.79 3590.69 3554.56 3290.08 3733.49 3025.71C3917.21 2754.27 4127.34 2498.2 4366.03 2272.06C4366.04 2272.07 3200.36 2349.43 2733.26 3302.31Z" fill="#40A8B3"/>
<path d="M4366.04 2272.07C3832.01 2549.34 3321.53 2948.97 2955.9 3426.85" stroke="#288594" stroke-width="33.2772" stroke-miterlimit="10" stroke-linecap="round" stroke-linejoin="round"/>
<path d="M5245.95 4841.29C5329.65 4879.2 5408.12 4934.14 5499.66 4942.05C5591.21 4949.96 5691.45 4914.67 5738.47 4835.72C5767.43 4787.08 5773.37 4726.49 5759.75 4671.55C5741.31 4597.14 5690.2 4535.13 5634.44 4482.52C5453.23 4311.56 5217.1 4205.83 5008.23 4073.57C4793.78 3937.77 4590.6 3781.17 4409.91 3601.75C4409.91 3601.75 4497.33 4502.24 5245.95 4841.29Z" fill="#40A8B3"/>
<path d="M4409.91 3601.75C4637.15 4008.58 4958.55 4394.27 5337.1 4666.01" stroke="#288594" stroke-width="25.7707" stroke-miterlimit="10" stroke-linecap="round" stroke-linejoin="round"/>
<path d="M245.95 4841.29C329.65 4879.2 408.12 4934.14 499.66 4942.05C591.2 4949.96 691.45 4914.67 738.47 4835.72C767.44 4787.08 773.37 4726.49 759.75 4671.55C741.31 4597.14 690.2 4535.13 634.43 4482.52C453.23 4311.56 217.1 4205.83 8.22992 4073.57C-206.22 3937.77 -409.4 3781.17 -590.09 3601.75C-590.09 3601.75 -502.67 4502.24 245.95 4841.29Z" fill="#40A8B3"/>
<path d="M-590.09 3601.75C-362.85 4008.58 -41.45 4394.27 337.1 4666.01" stroke="#288594" stroke-width="25.7707" stroke-miterlimit="10" stroke-linecap="round" stroke-linejoin="round"/>
<path d="M3035.17 -293.36C2224.26 -384.41 1792.62 -343.73 1146.45 96.8797C1049.66 162.88 955.64 238.71 900.87 338.72C846.1 438.73 838.41 567.94 909.02 656.51C952.52 711.07 1021.65 744.93 1093.76 754.15C1191.41 766.64 1290.5 736.61 1380.71 697.11C1673.86 568.74 1916.63 349.01 2177.46 172.01C2445.26 -9.72032 2732.22 -169.37 3035.17 -293.36Z" fill="#45BE93"/>
<path d="M2997.97 -302.59C2401.44 -227.86 1820.6 -27.9103 1309.78 278.53" stroke="#FAF5EF" stroke-width="18.8748" stroke-miterlimit="10" stroke-linecap="round" stroke-linejoin="round"/>
<path d="M4739.08 418.16C4169.81 827.74 3918.19 1102.56 3760.48 1755.96C3736.86 1853.83 3720.67 1956.37 3743.44 2051.69C3766.21 2147.01 3835.82 2233.78 3931.88 2249.51C3991.06 2259.2 4054.65 2240.91 4105.91 2205.21C4175.34 2156.86 4221.17 2080.58 4255.88 2003.39C4368.67 1752.54 4396.68 1472.52 4460.83 1209.32C4526.71 939.08 4617.52 671.87 4739.08 418.16Z" fill="#45BE93"/>
<path d="M4710.06 433.729C4373.01 825.339 4118.15 1287.69 3969.33 1777.54" stroke="#FAF5EF" stroke-width="16.2216" stroke-miterlimit="10" stroke-linecap="round" stroke-linejoin="round"/>
<path d="M4913.8 462.95C4806.74 -346 4663.25 -755.12 4079.9 -1276.07C3992.52 -1354.1 3896.27 -1427.07 3786 -1456.13C3675.74 -1485.19 3548.48 -1461.51 3479.54 -1371.64C3437.07 -1316.27 3420.87 -1241.02 3429.29 -1168.81C3440.7 -1071.03 3493.73 -982.1 3553.8 -904.06C3749.03 -650.48 4020.79 -467.82 4255.43 -257.33C4496.35 -41.2303 4720.46 198.8 4913.8 462.95Z" fill="#45BE93"/>
<path d="M4913.79 424.62C4697.5 -136.32 4363.47 -651.861 3942.96 -1073.77" stroke="#FAF5EF" stroke-width="18.8748" stroke-miterlimit="10" stroke-linecap="round" stroke-linejoin="round"/>
<path d="M4913.8 5462.95C4806.74 4654 4663.25 4244.88 4079.9 3723.93C3992.52 3645.9 3896.27 3572.93 3786 3543.87C3675.74 3514.81 3548.48 3538.49 3479.54 3628.36C3437.07 3683.73 3420.87 3758.98 3429.29 3831.19C3440.7 3928.97 3493.73 4017.9 3553.8 4095.94C3749.03 4349.52 4020.79 4532.18 4255.43 4742.67C4496.35 4958.77 4720.46 5198.8 4913.8 5462.95Z" fill="#45BE93"/>
<path d="M4913.79 5424.62C4697.5 4863.68 4363.47 4348.14 3942.96 3926.23" stroke="#FAF5EF" stroke-width="18.8748" stroke-miterlimit="10" stroke-linecap="round" stroke-linejoin="round"/>
<path d="M3035.17 4706.64C2224.26 4615.59 1792.62 4656.27 1146.45 5096.88C1049.66 5162.88 955.64 5238.71 900.87 5338.72C846.1 5438.73 838.41 5567.94 909.02 5656.51C952.52 5711.07 1021.65 5744.93 1093.76 5754.15C1191.41 5766.64 1290.5 5736.61 1380.71 5697.11C1673.86 5568.74 1916.63 5349.01 2177.46 5172.01C2445.26 4990.28 2732.22 4830.63 3035.17 4706.64Z" fill="#45BE93"/>
<path d="M2997.97 4697.41C2401.44 4772.15 1820.6 4972.09 1309.78 5278.54" stroke="#FAF5EF" stroke-width="18.8748" stroke-miterlimit="10" stroke-linecap="round" stroke-linejoin="round"/>
<path d="M451.21 2810.17C816.4 2271.36 947.84 1951.48 876.49 1331.72C865.8 1238.89 847.14 1144.36 796.85 1068.57C746.55 992.78 658.17 939.41 569.43 956.41C514.76 966.88 465.2 1003.13 431.93 1050.62C386.88 1114.94 371.31 1196.05 365.73 1274.4C347.6 1529.03 412.67 1781.99 440.87 2031.84C469.82 2288.37 476.07 2550.24 451.21 2810.17Z" fill="#45BE93"/>
<path d="M471.53 2787.32C640.11 2338.37 714.45 1854.04 687.61 1379.63" stroke="#FAF5EF" stroke-width="15.0559" stroke-miterlimit="10" stroke-linecap="round" stroke-linejoin="round"/>
<path d="M865.16 3710.1C1504.78 3830.77 1850.55 3824.09 2390.76 3512.05C2471.67 3465.31 2550.97 3410.58 2600.49 3334.29C2650.01 3257.99 2663.81 3155.67 2612.91 3081.02C2581.55 3035.03 2528.58 3003.98 2471.77 2992.36C2394.84 2976.62 2314.23 2994.61 2240.12 3020.66C1999.29 3105.33 1793.11 3265.67 1575.11 3390.95C1351.28 3519.58 1113.52 3629.5 865.16 3710.1Z" fill="#45BE93"/>
<path d="M894.2 3719.66C1373.15 3695.7 1847.08 3571.21 2271.64 3357.84" stroke="#FAF5EF" stroke-width="15.0559" stroke-miterlimit="10" stroke-linecap="round" stroke-linejoin="round"/>
<path d="M4428.24 506.02C4137.36 707.19 3829.7 887.11 3499.02 1014.68C2937.98 1231.11 2264.89 1362.04 1723.74 1022.23C1666.36 986.2 1607.6 939.82 1593.5 873.5C1560.78 719.44 1743.89 599.93 1861.65 543.89C2267.2 350.9 2752.89 413.57 3186.58 436.96C3675.58 463.34 4175.1 497.09 4648.7 350.35L4428.24 506.02Z" fill="#486D87"/>
<path d="M4639.1 357.129C4287.79 541.939 3901.82 655.679 3516.71 706.229C3131.54 756.789 2745.07 797.459 2357.82 828.189" stroke="#FDF2D6" stroke-width="27.8267" stroke-miterlimit="10" stroke-linecap="round" stroke-linejoin="round"/>
<path d="M3436.17 2331.57C3212.18 2293.36 2984.18 2272.08 2756.98 2287.54C2371.52 2313.77 1944.01 2420.2 1721.09 2764.95C1697.45 2801.51 1675.82 2844.46 1685.61 2886.91C1708.36 2985.51 1847.44 3005.41 1931.22 3006.08C2219.77 3008.4 2485.61 2840.09 2731.82 2708.76C3009.44 2560.68 3291.17 2405.46 3606.8 2362.38L3436.17 2331.57Z" fill="#486D87"/>
<path d="M3599.38 2361.05C3344.64 2348.77 3088.99 2387.29 2851.01 2462.36C2612.98 2537.45 2376.88 2618.65 2143.02 2705.86" stroke="#FDF2D6" stroke-width="17.8784" stroke-miterlimit="10" stroke-linecap="round" stroke-linejoin="round"/>
<path d="M3548.25 4422.1C3243.95 4241.87 2924.41 4084.01 2585.58 3980C2010.72 3803.53 1330.09 3720.23 814.16 4097.23C759.45 4137.21 704.1 4187.6 694.69 4254.75C672.87 4410.72 863.93 4517.07 985.34 4564.7C1403.45 4728.71 1883.54 4632.07 2314.51 4578.26C2800.45 4517.59 3296.36 4448.81 3779.1 4561.9L3548.25 4422.1Z" fill="#486D87"/>
<path d="M3769.06 4555.8C3405.63 4396.13 3012.62 4309.8 2624.92 4286.43C2237.15 4263.06 1848.78 4249.65 1460.32 4246.21" stroke="#FDF2D6" stroke-width="27.8267" stroke-miterlimit="10" stroke-linecap="round" stroke-linejoin="round"/>
<path d="M171.59 1594.35C253.53 1861.22 315.49 2135.64 332.56 2414.9C361.52 2888.68 299.4 3426.36 -85.4102 3752.44C-126.21 3787.02 -175.13 3820.16 -228.4 3814.94C-352.12 3802.8 -398.35 3636.5 -412.41 3534.53C-460.84 3183.34 -297.78 2832.85 -176.68 2512.12C-40.1402 2150.48 104.46 1782.7 107.07 1391.34L171.59 1594.35Z" fill="#486D87"/>
<path d="M109.88 1400.16C165.1 1708.59 158.57 2026.15 104.7 2327.97C50.8299 2629.84 -10.8001 2930.33 -80.0901 3229.04" stroke="#FDF2D6" stroke-width="21.965" stroke-miterlimit="10" stroke-linecap="round" stroke-linejoin="round"/>
<path d="M5171.59 1594.35C5253.53 1861.22 5315.49 2135.64 5332.56 2414.9C5361.52 2888.68 5299.4 3426.36 4914.59 3752.44C4873.79 3787.02 4824.87 3820.16 4771.6 3814.94C4647.88 3802.8 4601.65 3636.5 4587.59 3534.53C4539.16 3183.34 4702.22 2832.85 4823.32 2512.12C4959.86 2150.48 5104.46 1782.7 5107.07 1391.34L5171.59 1594.35Z" fill="#486D87"/>
<path d="M5109.88 1400.16C5165.1 1708.59 5158.57 2026.15 5104.7 2327.97C5050.83 2629.84 4989.2 2930.33 4919.91 3229.04" stroke="#FDF2D6" stroke-width="21.965" stroke-miterlimit="10" stroke-linecap="round" stroke-linejoin="round"/>
<rect width="5000" height="5000" fill="#F8F8F8" fill-opacity="0.75"/>
</g>
<defs>
<clipPath id="clip0_44_11">
<rect width="5000" height="5000" fill="white"/>
</clipPath>
</defs>
</svg>
