<svg width="230" height="25" viewBox="0 0 230 25" fill="none" xmlns="http://www.w3.org/2000/svg">
<g filter="url(#filter0_ii_4_32)">
<path d="M11.4217 22.3714C9.25453 22.3714 7.30209 21.9333 5.56443 21.0571C3.82677 20.1619 2.46006 18.9238 1.46432 17.3429C0.488108 15.7429 0 13.9333 0 11.9143C0 9.89524 0.488108 8.09524 1.46432 6.51429C2.46006 4.91429 3.82677 3.67619 5.56443 2.8C7.30209 1.90476 9.25453 1.45714 11.4217 1.45714C13.4132 1.45714 15.1899 1.8 16.7519 2.48571C17.4277 2.78241 18.0524 3.13617 18.6258 3.54698C19.8875 4.45075 19.6998 6.25649 18.5294 7.27567C17.2855 8.3589 15.4294 8.06131 13.929 7.37618C13.2547 7.06825 12.536 6.91429 11.7732 6.91429C10.3284 6.91429 9.16667 7.37143 8.28807 8.28571C7.40948 9.18095 6.97018 10.3905 6.97018 11.9143C6.97018 13.4381 7.40948 14.6571 8.28807 15.5714C9.16667 16.4667 10.3284 16.9143 11.7732 16.9143C12.536 16.9143 13.2547 16.7603 13.929 16.4524C15.4294 15.7673 17.2855 15.4697 18.5294 16.5529C19.6998 17.5721 19.8875 19.3778 18.6258 20.2816C18.0524 20.6924 17.4277 21.0462 16.7519 21.3429C15.1899 22.0286 13.4132 22.3714 11.4217 22.3714Z" fill="white"/>
<path d="M30.5568 17.0993C30.4099 16.8601 30.1493 16.7143 29.8686 16.7143C29.4226 16.7143 29.0611 17.0758 29.0611 17.5218V19.3143C29.0611 20.7502 27.897 21.9143 26.4611 21.9143H25.4424C23.7855 21.9143 22.4424 20.5711 22.4424 18.9143V9.28571C22.4424 7.62886 23.7855 6.28571 25.4424 6.28571H26.3182C27.8331 6.28571 29.0611 7.51373 29.0611 9.02857V10.8438C29.0611 11.3561 29.4764 11.7714 29.9887 11.7714C30.3049 11.7714 30.5993 11.6104 30.7698 11.3442L33.171 7.59618C33.6941 6.77962 34.5971 6.28571 35.5668 6.28571C37.8588 6.28571 39.2102 8.85701 37.9104 10.7447L36.9841 12.0899C36.2854 13.1046 36.2781 14.4433 36.9657 15.4655L38.1591 17.24C39.4994 19.2329 38.0714 21.9143 35.6698 21.9143H35.1912C34.1482 21.9143 33.1801 21.3726 32.6345 20.4838L30.5568 17.0993Z" fill="white"/>
<path d="M50.6068 22.2C48.8301 22.2 47.2291 21.8571 45.8038 21.1714C44.3981 20.4667 43.2949 19.5048 42.4944 18.2857C41.6939 17.0476 41.2937 15.6476 41.2937 14.0857C41.2937 12.5238 41.6939 11.1333 42.4944 9.91429C43.2949 8.67619 44.3981 7.71429 45.8038 7.02857C47.2291 6.34286 48.8301 6 50.6068 6C52.403 6 54.004 6.34286 55.4098 7.02857C56.835 7.71429 57.9382 8.67619 58.7191 9.91429C59.5196 11.1333 59.9199 12.5238 59.9199 14.0857C59.9199 15.6476 59.5196 17.0476 58.7191 18.2857C57.9382 19.5048 56.835 20.4667 55.4098 21.1714C54.004 21.8571 52.403 22.2 50.6068 22.2ZM50.6068 17.1714C51.3682 17.1714 51.993 16.9048 52.4811 16.3714C52.9692 15.819 53.2133 15.0571 53.2133 14.0857C53.2133 13.1143 52.9692 12.3619 52.4811 11.8286C51.993 11.2952 51.3682 11.0286 50.6068 11.0286C49.8453 11.0286 49.2206 11.2952 48.7325 11.8286C48.2443 12.3619 48.0003 13.1143 48.0003 14.0857C48.0003 15.0571 48.2443 15.819 48.7325 16.3714C49.2206 16.9048 49.8453 17.1714 50.6068 17.1714Z" fill="white"/>
<path d="M75.9035 6.28571C77.5603 6.28571 78.9035 7.62886 78.9035 9.28571V18.9143C78.9035 20.5711 77.5603 21.9143 75.9035 21.9143H75.2847C73.6279 21.9143 72.2847 20.5711 72.2847 18.9143V12.8552C72.2847 12.0042 71.5948 11.3143 70.7438 11.3143C69.9187 11.3143 69.2401 11.9642 69.2044 12.7885L69.1804 13.3429C69.1023 15.3619 68.8875 17.019 68.5361 18.3143C68.1846 19.6095 67.5989 20.6095 66.7789 21.3143C65.9784 22 64.8753 22.3429 63.4695 22.3429C63.2051 22.3429 62.9275 22.3299 62.6367 22.3041C61.32 22.187 60.4426 20.9595 60.5091 19.6393L60.6239 17.3612C60.6423 16.9961 60.9661 16.7429 61.3316 16.7429C62.1321 16.7429 62.6592 16.4667 62.9131 15.9143C63.1669 15.3429 63.3231 14.4 63.3816 13.0857L63.5161 9.18241C63.5718 7.56672 64.8977 6.28571 66.5144 6.28571H75.9035Z" fill="white"/>
<path d="M92.1494 11C94.2971 11 95.9469 11.4571 97.0988 12.3714C98.2508 13.2857 98.8267 14.581 98.8267 16.2571C98.8267 18.0095 98.1532 19.3905 96.806 20.4C95.4783 21.4095 93.6528 21.9143 91.3294 21.9143H85.0163C83.3594 21.9143 82.0163 20.5711 82.0163 18.9143V9.28571C82.0163 7.62886 83.3594 6.28571 85.0163 6.28571H86.2486C87.5504 6.28571 88.6058 7.34104 88.6058 8.64286C88.6058 9.94467 89.6611 11 90.9629 11H92.1494ZM90.6558 17.5714C91.6125 17.5714 92.0909 17.0952 92.0909 16.1429C92.0909 15.2286 91.6125 14.7714 90.6558 14.7714H90.0058C89.2326 14.7714 88.6058 15.3982 88.6058 16.1714C88.6058 16.9446 89.2326 17.5714 90.0058 17.5714H90.6558Z" fill="white"/>
<path d="M108.835 17.0993C108.688 16.8601 108.428 16.7143 108.147 16.7143C107.701 16.7143 107.339 17.0758 107.339 17.5218V19.3143C107.339 20.7502 106.175 21.9143 104.739 21.9143H103.721C102.064 21.9143 100.721 20.5711 100.721 18.9143V9.28571C100.721 7.62886 102.064 6.28571 103.721 6.28571H104.597C106.111 6.28571 107.339 7.51373 107.339 9.02857V10.8438C107.339 11.3561 107.755 11.7714 108.267 11.7714C108.583 11.7714 108.878 11.6104 109.048 11.3442L111.449 7.59618C111.972 6.77962 112.875 6.28571 113.845 6.28571C116.137 6.28571 117.489 8.85701 116.189 10.7447L115.263 12.0899C114.564 13.1046 114.557 14.4433 115.244 15.4655L116.438 17.24C117.778 19.2329 116.35 21.9143 113.948 21.9143H113.47C112.427 21.9143 111.459 21.3726 110.913 20.4838L108.835 17.0993Z" fill="white"/>
<path d="M128.885 22.2C127.108 22.2 125.507 21.8571 124.082 21.1714C122.676 20.4667 121.573 19.5048 120.773 18.2857C119.972 17.0476 119.572 15.6476 119.572 14.0857C119.572 12.5238 119.972 11.1333 120.773 9.91429C121.573 8.67619 122.676 7.71429 124.082 7.02857C125.507 6.34286 127.108 6 128.885 6C130.681 6 132.282 6.34286 133.688 7.02857C135.113 7.71429 136.217 8.67619 136.998 9.91429C137.798 11.1333 138.198 12.5238 138.198 14.0857C138.198 15.6476 137.798 17.0476 136.998 18.2857C136.217 19.5048 135.113 20.4667 133.688 21.1714C132.282 21.8571 130.681 22.2 128.885 22.2ZM128.885 17.1714C129.647 17.1714 130.271 16.9048 130.76 16.3714C131.248 15.819 131.492 15.0571 131.492 14.0857C131.492 13.1143 131.248 12.3619 130.76 11.8286C130.271 11.2952 129.647 11.0286 128.885 11.0286C128.124 11.0286 127.499 11.2952 127.011 11.8286C126.523 12.3619 126.279 13.1143 126.279 14.0857C126.279 15.0571 126.523 15.819 127.011 16.3714C127.499 16.9048 128.124 17.1714 128.885 17.1714Z" fill="white"/>
<path d="M167.872 16.8571C168.462 16.8571 168.941 17.3357 168.941 17.9261V23C168.941 24.1046 168.046 25 166.941 25H164.363C163.511 25 162.82 24.3092 162.82 23.4571C162.82 22.605 162.129 21.9143 161.277 21.9143H155.519C154.666 21.9143 153.976 22.605 153.976 23.4571C153.976 24.3092 153.285 25 152.433 25H149.855C148.75 25 147.855 24.1046 147.855 23V17.3257C147.855 17.0669 148.065 16.8571 148.323 16.8571C149.261 16.8571 149.915 16.4286 150.286 15.5714C150.657 14.6952 150.871 13.4381 150.93 11.8L151.063 8.21141C151.103 7.1365 151.986 6.28571 153.062 6.28571H164.803C165.908 6.28571 166.803 7.18114 166.803 8.28571V15.7882C166.803 16.3786 167.282 16.8571 167.872 16.8571ZM156.875 12.2857C156.836 13.4857 156.748 14.4381 156.611 15.1429C156.484 15.8879 157.008 16.8571 157.764 16.8571H158.815C159.588 16.8571 160.214 16.231 160.214 15.4586V12.9939C160.214 12.0663 159.462 11.3143 158.534 11.3143H157.876C157.335 11.3143 156.891 11.7445 156.875 12.2857Z" fill="white"/>
<path d="M170.877 9.28571C170.877 7.62886 172.22 6.28571 173.877 6.28571H174.723C176.238 6.28571 177.466 7.51373 177.466 9.02857V9.51636C177.466 10.7618 178.476 11.7714 179.721 11.7714C180.967 11.7714 181.976 10.7618 181.976 9.51636V9.02857C181.976 7.51373 183.204 6.28571 184.719 6.28571H185.566C187.223 6.28571 188.566 7.62886 188.566 9.28571V18.9143C188.566 20.5711 187.223 21.9143 185.566 21.9143H184.519C183.115 21.9143 181.976 20.7758 181.976 19.3714V19.0836C181.976 17.8382 180.967 16.8286 179.721 16.8286C178.476 16.8286 177.466 17.8382 177.466 19.0836V19.3714C177.466 20.7758 176.328 21.9143 174.923 21.9143H173.877C172.22 21.9143 170.877 20.5711 170.877 18.9143V9.28571Z" fill="white"/>
<path d="M208.509 14.0857C208.509 14.9387 207.757 15.6 206.904 15.6H199.13C198.249 15.6 197.705 16.5222 198.463 16.9714C199.01 17.2762 199.693 17.4286 200.513 17.4286C201.216 17.4286 201.802 17.3429 202.271 17.1714C203.259 16.8243 204.402 16.8269 205.149 17.5616L205.468 17.8754C206.492 18.8831 206.531 20.5748 205.242 21.2096C203.901 21.8699 202.257 22.2 200.308 22.2C198.376 22.2 196.677 21.8571 195.213 21.1714C193.748 20.4667 192.616 19.4952 191.815 18.2571C191.015 17.019 190.615 15.6286 190.615 14.0857C190.615 12.5238 191.005 11.1333 191.786 9.91429C192.587 8.67619 193.67 7.71429 195.037 7.02857C196.423 6.34286 197.975 6 199.693 6C201.314 6 202.788 6.31429 204.116 6.94286C205.463 7.57143 206.527 8.49524 207.308 9.71429C208.108 10.9333 208.509 12.3905 208.509 14.0857ZM199.752 10.4C199.069 10.4 198.502 10.581 198.053 10.9429C197.325 11.5302 198.051 12.4857 198.987 12.4857H200.542C201.463 12.4857 202.167 11.5492 201.451 10.9714C201.002 10.5905 200.435 10.4 199.752 10.4Z" fill="white"/>
<path d="M210.888 9.28571C210.888 7.62886 212.231 6.28571 213.888 6.28571H215.666C216.667 6.28571 217.478 7.09684 217.478 8.09741C217.478 9.81871 219.653 10.5699 220.715 9.21549L222.216 7.30105C222.719 6.66008 223.489 6.28571 224.303 6.28571H226.104C227.761 6.28571 229.104 7.62886 229.104 9.28571V18.9143C229.104 20.5711 227.761 21.9143 226.104 21.9143H224.324C223.325 21.9143 222.515 21.1043 222.515 20.1052C222.515 18.3822 220.334 17.6347 219.277 18.9952L217.8 20.8962C217.301 21.5385 216.533 21.9143 215.72 21.9143H213.888C212.231 21.9143 210.888 20.5711 210.888 18.9143V9.28571ZM219.557 5C217.526 5 216.043 4.6 215.105 3.8C214.602 3.36006 214.234 2.79099 214.001 2.09277C213.63 0.980424 214.65 0 215.823 0H216.462C217.282 0 217.815 0.745316 218.268 1.42857C218.503 1.73333 218.922 1.88571 219.528 1.88571C219.793 1.88571 220.026 1.84872 220.227 1.77473C221.343 1.36387 222.131 0 223.32 0C224.509 0 225.546 0.996142 225.156 2.11917C224.918 2.80535 224.545 3.36562 224.038 3.8C223.101 4.6 221.607 5 219.557 5Z" fill="white"/>
</g>
<defs>
<filter id="filter0_ii_4_32" x="0" y="-3.53879" width="229.104" height="28.5388" filterUnits="userSpaceOnUse" color-interpolation-filters="sRGB">
<feFlood flood-opacity="0" result="BackgroundImageFix"/>
<feBlend mode="normal" in="SourceGraphic" in2="BackgroundImageFix" result="shape"/>
<feColorMatrix in="SourceAlpha" type="matrix" values="0 0 0 0 0 0 0 0 0 0 0 0 0 0 0 0 0 0 127 0" result="hardAlpha"/>
<feOffset dy="-1"/>
<feGaussianBlur stdDeviation="0.5"/>
<feComposite in2="hardAlpha" operator="arithmetic" k2="-1" k3="1"/>
<feColorMatrix type="matrix" values="0 0 0 0 0.75 0 0 0 0 0.700275 0 0 0 0 0.654375 0 0 0 0.45 0"/>
<feBlend mode="normal" in2="shape" result="effect1_innerShadow_4_32"/>
<feColorMatrix in="SourceAlpha" type="matrix" values="0 0 0 0 0 0 0 0 0 0 0 0 0 0 0 0 0 0 127 0" result="hardAlpha"/>
<feOffset dy="-3.53879"/>
<feGaussianBlur stdDeviation="2.35919"/>
<feComposite in2="hardAlpha" operator="arithmetic" k2="-1" k3="1"/>
<feColorMatrix type="matrix" values="0 0 0 0 1 0 0 0 0 1 0 0 0 0 1 0 0 0 0.25 0"/>
<feBlend mode="normal" in2="effect1_innerShadow_4_32" result="effect2_innerShadow_4_32"/>
</filter>
</defs>
</svg>
