<svg width="430" height="37" viewBox="0 0 430 37" fill="none" xmlns="http://www.w3.org/2000/svg">
<g filter="url(#filter0_ii_4_3)">
<path d="M16.1835 32.656C13.1495 32.656 10.4161 32.0273 7.98348 30.77C5.55082 29.4853 3.63748 27.7087 2.24348 25.44C0.876815 23.144 0.193481 20.5473 0.193481 17.65C0.193481 14.7527 0.876815 12.1697 2.24348 9.90101C3.63748 7.60501 5.55082 5.82834 7.98348 4.57101C10.4161 3.28634 13.1495 2.64401 16.1835 2.64401C18.9715 2.64401 21.4588 3.13601 23.6455 4.12001C24.9544 4.70901 26.1261 5.45469 27.1608 6.35707C28.343 7.38812 28.1533 9.19107 26.9831 10.2357L25.3214 11.7189C24.0339 12.8681 22.0819 12.6166 20.6399 11.6684C19.43 10.8728 18.1085 10.475 16.6755 10.475C14.6528 10.475 13.0265 11.131 11.7965 12.443C10.5665 13.7277 9.95148 15.4633 9.95148 17.65C9.95148 19.8367 10.5665 21.586 11.7965 22.898C13.0265 24.1827 14.6528 24.825 16.6755 24.825C18.1085 24.825 19.43 24.4272 20.6399 23.6316C22.0819 22.6835 24.0339 22.4319 25.3214 23.5811L26.9831 25.0644C28.1533 26.109 28.343 27.9119 27.1608 28.9429C26.1261 29.8453 24.9544 30.591 23.6455 31.18C21.4588 32.164 18.9715 32.656 16.1835 32.656Z" fill="white"/>
<path d="M42.9686 25.0851C42.7654 24.7457 42.3988 24.538 42.0032 24.538V24.538C41.3818 24.538 40.878 25.0418 40.878 25.6633V29C40.878 30.6569 39.5348 32 37.878 32H34.612C32.9551 32 31.612 30.6569 31.612 29V12.573C31.612 10.9162 32.9551 9.57301 34.612 9.57301H37.878C39.5348 9.57301 40.878 10.9162 40.878 12.573V16.1524C40.878 16.8663 41.4567 17.445 42.1706 17.445V17.445C42.6162 17.445 43.0305 17.2154 43.2667 16.8375L46.9257 10.983C47.4739 10.1059 48.4353 9.57301 49.4697 9.57301H51.9357C54.3365 9.57301 55.7647 12.2529 54.426 14.2459L51.4596 18.6617C50.7866 19.6635 50.7795 20.9712 51.4416 21.9803L54.9677 27.3542C56.2767 29.3493 54.8456 32 52.4594 32H48.8101C47.7555 32 46.7783 31.4462 46.2364 30.5414L42.9686 25.0851Z" fill="white"/>
<path d="M71.0412 32.41C68.5538 32.41 66.3125 31.918 64.3172 30.934C62.3492 29.9227 60.8048 28.5423 59.6842 26.793C58.5635 25.0163 58.0032 23.0073 58.0032 20.766C58.0032 18.5247 58.5635 16.5293 59.6842 14.78C60.8048 13.0033 62.3492 11.623 64.3172 10.639C66.3125 9.65501 68.5538 9.16301 71.0412 9.16301C73.5558 9.16301 75.7972 9.65501 77.7652 10.639C79.7605 11.623 81.3048 13.0033 82.3982 14.78C83.5188 16.5293 84.0792 18.5247 84.0792 20.766C84.0792 23.0073 83.5188 25.0163 82.3982 26.793C81.3048 28.5423 79.7605 29.9227 77.7652 30.934C75.7972 31.918 73.5558 32.41 71.0412 32.41ZM71.0412 25.194C72.1072 25.194 72.9818 24.8113 73.6652 24.046C74.3485 23.2533 74.6902 22.16 74.6902 20.766C74.6902 19.372 74.3485 18.2923 73.6652 17.527C72.9818 16.7617 72.1072 16.379 71.0412 16.379C69.9752 16.379 69.1005 16.7617 68.4172 17.527C67.7338 18.2923 67.3922 19.372 67.3922 20.766C67.3922 22.16 67.7338 23.2533 68.4172 24.046C69.1005 24.8113 69.9752 25.194 71.0412 25.194Z" fill="white"/>
<path d="M107.655 9.57301C109.312 9.57301 110.655 10.9162 110.655 12.573V29C110.655 30.6569 109.312 32 107.655 32H104.389C102.733 32 101.389 30.6569 101.389 29V18.9451C101.389 17.7543 100.424 16.789 99.2334 16.789V16.789C98.078 16.789 97.128 17.6997 97.0792 18.8541L97.0435 19.7C96.9342 22.5973 96.6335 24.9753 96.1415 26.834C95.6495 28.6927 94.8295 30.1277 93.6815 31.139C92.5608 32.123 91.0165 32.615 89.0485 32.615C88.4649 32.615 87.8351 32.5689 87.1591 32.4765C85.7405 32.2828 84.7942 30.9697 84.8645 29.5397L85.066 25.4429C85.0911 24.9324 85.5444 24.579 86.0555 24.579V24.579C87.1762 24.579 87.9142 24.1827 88.2695 23.39C88.6248 22.57 88.8435 21.217 88.9255 19.331L89.156 12.4722C89.2104 10.8555 90.5367 9.57301 92.1543 9.57301H107.655Z" fill="white"/>
<path d="M129.199 16.338C132.206 16.338 134.516 16.994 136.128 18.306C137.741 19.618 138.547 21.4767 138.547 23.882C138.547 26.3967 137.604 28.3783 135.718 29.827C133.86 31.2757 131.304 32 128.051 32H118.013C116.356 32 115.013 30.6569 115.013 29V12.573C115.013 10.9162 116.356 9.57301 118.013 9.57301H121.238C122.895 9.57301 124.238 10.9162 124.238 12.573V13.338C124.238 14.9949 125.581 16.338 127.238 16.338H129.199ZM127.108 25.768C128.448 25.768 129.117 25.0847 129.117 23.718C129.117 22.406 128.448 21.75 127.108 21.75H126.247C125.138 21.75 124.238 22.6495 124.238 23.759V23.759C124.238 24.8685 125.138 25.768 126.247 25.768H127.108Z" fill="white"/>
<path d="M152.556 25.0851C152.352 24.7457 151.986 24.538 151.59 24.538V24.538C150.969 24.538 150.465 25.0418 150.465 25.6633V29C150.465 30.6569 149.122 32 147.465 32H144.199C142.542 32 141.199 30.6569 141.199 29V12.573C141.199 10.9162 142.542 9.57301 144.199 9.57301H147.465C149.122 9.57301 150.465 10.9162 150.465 12.573V16.1524C150.465 16.8663 151.044 17.445 151.757 17.445V17.445C152.203 17.445 152.617 17.2154 152.854 16.8375L156.513 10.983C157.061 10.1059 158.022 9.57301 159.057 9.57301H161.523C163.923 9.57301 165.352 12.2529 164.013 14.2459L161.047 18.6617C160.374 19.6635 160.366 20.9712 161.029 21.9803L164.555 27.3542C165.864 29.3493 164.432 32 162.046 32H158.397C157.342 32 156.365 31.4462 155.823 30.5414L152.556 25.0851Z" fill="white"/>
<path d="M180.628 32.41C178.141 32.41 175.899 31.918 173.904 30.934C171.936 29.9227 170.392 28.5423 169.271 26.793C168.15 25.0163 167.59 23.0073 167.59 20.766C167.59 18.5247 168.15 16.5293 169.271 14.78C170.392 13.0033 171.936 11.623 173.904 10.639C175.899 9.65501 178.141 9.16301 180.628 9.16301C183.143 9.16301 185.384 9.65501 187.352 10.639C189.347 11.623 190.892 13.0033 191.985 14.78C193.106 16.5293 193.666 18.5247 193.666 20.766C193.666 23.0073 193.106 25.0163 191.985 26.793C190.892 28.5423 189.347 29.9227 187.352 30.934C185.384 31.918 183.143 32.41 180.628 32.41ZM180.628 25.194C181.694 25.194 182.569 24.8113 183.252 24.046C183.935 23.2533 184.277 22.16 184.277 20.766C184.277 19.372 183.935 18.2923 183.252 17.527C182.569 16.7617 181.694 16.379 180.628 16.379C179.562 16.379 178.687 16.7617 178.004 17.527C177.321 18.2923 176.979 19.372 176.979 20.766C176.979 22.16 177.321 23.2533 178.004 24.046C178.687 24.8113 179.562 25.194 180.628 25.194Z" fill="white"/>
<path d="M235.208 24.743C236.035 24.743 236.705 25.413 236.705 26.2395V34.428C236.705 35.5326 235.809 36.428 234.705 36.428H230.136C229.031 36.428 228.136 35.5326 228.136 34.428V34C228.136 32.8954 227.24 32 226.136 32H217.754C216.649 32 215.754 32.8954 215.754 34V34.428C215.754 35.5326 214.858 36.428 213.754 36.428H209.185C208.08 36.428 207.185 35.5326 207.185 34.428V25.399C207.185 25.0367 207.479 24.743 207.841 24.743V24.743C209.153 24.743 210.069 24.128 210.588 22.898C211.107 21.6407 211.408 19.8367 211.49 17.486L211.707 11.5005C211.746 10.4249 212.629 9.57301 213.706 9.57301H231.712C232.816 9.57301 233.712 10.4684 233.712 11.573V23.2465C233.712 24.073 234.382 24.743 235.208 24.743V24.743ZM219.813 18.183C219.758 19.905 219.635 21.2717 219.444 22.283V22.283C219.265 23.3578 220.023 24.743 221.113 24.743H222.508C223.601 24.743 224.487 23.8572 224.487 22.7646V18.789C224.487 17.6844 223.591 16.789 222.487 16.789H221.248C220.472 16.789 219.836 17.4066 219.813 18.183V18.183Z" fill="white"/>
<path d="M239.415 12.573C239.415 10.9162 240.758 9.57301 242.415 9.57301H245.64C247.297 9.57301 248.64 10.9162 248.64 12.573V14.445C248.64 16.1019 249.983 17.445 251.64 17.445H251.954C253.611 17.445 254.954 16.1019 254.954 14.445V12.573C254.954 10.9162 256.297 9.57301 257.954 9.57301H261.179C262.836 9.57301 264.179 10.9162 264.179 12.573V29C264.179 30.6569 262.836 32 261.179 32H257.954C256.297 32 254.954 30.6569 254.954 29V27.702C254.954 26.0452 253.611 24.702 251.954 24.702H251.64C249.983 24.702 248.64 26.0452 248.64 27.702V29C248.64 30.6569 247.297 32 245.64 32H242.415C240.758 32 239.415 30.6569 239.415 29V12.573Z" fill="white"/>
<path d="M292.098 20.766V20.766C292.098 21.9894 291.022 22.939 289.799 22.939H279.005C277.749 22.939 276.961 24.2547 278.035 24.907V24.907C278.8 25.3443 279.757 25.563 280.905 25.563C281.889 25.563 282.709 25.44 283.365 25.194V25.194C284.745 24.6972 286.351 24.701 287.383 25.7426L288.411 26.7793C289.536 27.913 289.59 29.7773 288.223 30.6028C286.229 31.8076 283.694 32.41 280.618 32.41C277.912 32.41 275.534 31.918 273.484 30.934C271.434 29.9227 269.849 28.5287 268.728 26.752C267.607 24.9753 267.047 22.98 267.047 20.766C267.047 18.5247 267.594 16.5293 268.687 14.78C269.808 13.0033 271.325 11.623 273.238 10.639C275.179 9.65501 277.352 9.16301 279.757 9.16301C282.026 9.16301 284.089 9.61401 285.948 10.516C287.834 11.418 289.324 12.7437 290.417 14.493C291.538 16.2423 292.098 18.3333 292.098 20.766ZM279.839 15.477C278.882 15.477 278.09 15.7367 277.461 16.256V16.256C276.43 17.1075 277.478 18.47 278.815 18.47H280.9C282.215 18.47 283.231 17.1345 282.217 16.297V16.297C281.588 15.7503 280.796 15.477 279.839 15.477Z" fill="white"/>
<path d="M295.429 12.573C295.429 10.9162 296.772 9.57301 298.429 9.57301H302.092C303.507 9.57301 304.654 10.7201 304.654 12.1352V12.1352C304.654 14.585 307.763 15.6378 309.251 13.6922L311.503 10.7499C312.07 10.0081 312.951 9.57301 313.885 9.57301H317.931C319.588 9.57301 320.931 10.9162 320.931 12.573V29C320.931 30.6569 319.588 32 317.931 32H314.265C312.852 32 311.706 30.8546 311.706 29.4417V29.4417C311.706 26.9898 308.591 25.9423 307.109 27.8962L304.899 30.8123C304.332 31.5605 303.447 32 302.508 32H298.429C296.772 32 295.429 30.6569 295.429 29V12.573ZM307.565 7.72801C304.723 7.72801 302.645 7.15401 301.333 6.00601C300.613 5.36032 300.09 4.52078 299.765 3.48738C299.273 1.92125 300.696 0.553009 302.338 0.553009H303.184C304.358 0.553009 305.123 1.61695 305.761 2.60301V2.60301C306.089 3.04034 306.677 3.25901 307.524 3.25901C307.924 3.25901 308.271 3.19759 308.566 3.07475C310.096 2.43819 311.177 0.553009 312.834 0.553009V0.553009C314.491 0.553009 315.943 1.93628 315.431 3.51204C315.099 4.53414 314.568 5.36547 313.838 6.00601C312.526 7.15401 310.435 7.72801 307.565 7.72801Z" fill="white"/>
<path d="M363.934 24.743C364.76 24.743 365.43 25.413 365.43 26.2395V33.428C365.43 35.0849 364.087 36.428 362.43 36.428H359.075C357.853 36.428 356.861 35.4368 356.861 34.214V34.214C356.861 32.9913 355.87 32 354.647 32H346.693C345.471 32 344.479 32.9913 344.479 34.214V34.214C344.479 35.4368 343.488 36.428 342.265 36.428H338.91C337.254 36.428 335.91 35.0849 335.91 33.428V25.399C335.91 25.0367 336.204 24.743 336.566 24.743V24.743C337.878 24.743 338.794 24.128 339.313 22.898C339.833 21.6407 340.133 19.8367 340.215 17.486L340.398 12.4643C340.456 10.8508 341.781 9.57301 343.396 9.57301H359.437C361.094 9.57301 362.437 10.9162 362.437 12.573V23.2465C362.437 24.073 363.107 24.743 363.934 24.743V24.743ZM348.538 18.183C348.484 19.905 348.361 21.2717 348.169 22.283V22.283C347.99 23.3578 348.749 24.743 349.838 24.743H351.234C352.327 24.743 353.212 23.8572 353.212 22.7646V19.1396C353.212 17.8414 352.16 16.789 350.862 16.789H349.974C349.197 16.789 348.561 17.4066 348.538 18.183V18.183Z" fill="white"/>
<path d="M379.702 32.41C377.215 32.41 374.974 31.918 372.978 30.934C371.01 29.9227 369.466 28.5423 368.345 26.793C367.225 25.0163 366.664 23.0073 366.664 20.766C366.664 18.5247 367.225 16.5293 368.345 14.78C369.466 13.0033 371.01 11.623 372.978 10.639C374.974 9.65501 377.215 9.16301 379.702 9.16301C382.217 9.16301 384.458 9.65501 386.426 10.639C388.422 11.623 389.966 13.0033 391.059 14.78C392.18 16.5293 392.74 18.5247 392.74 20.766C392.74 23.0073 392.18 25.0163 391.059 26.793C389.966 28.5423 388.422 29.9227 386.426 30.934C384.458 31.918 382.217 32.41 379.702 32.41ZM379.702 25.194C380.768 25.194 381.643 24.8113 382.326 24.046C383.01 23.2533 383.351 22.16 383.351 20.766C383.351 19.372 383.01 18.2923 382.326 17.527C381.643 16.7617 380.768 16.379 379.702 16.379C378.636 16.379 377.762 16.7617 377.078 17.527C376.395 18.2923 376.053 19.372 376.053 20.766C376.053 22.16 376.395 23.2533 377.078 24.046C377.762 24.8113 378.636 25.194 379.702 25.194Z" fill="white"/>
<path d="M399.666 32.41C398.108 32.41 396.81 31.918 395.771 30.934C394.76 29.9227 394.254 28.638 394.254 27.08C394.254 25.522 394.76 24.2647 395.771 23.308C396.81 22.324 398.108 21.832 399.666 21.832C401.224 21.832 402.509 22.324 403.52 23.308C404.559 24.2647 405.078 25.522 405.078 27.08C405.078 28.638 404.559 29.9227 403.52 30.934C402.509 31.918 401.224 32.41 399.666 32.41Z" fill="white"/>
<path d="M412.118 32.41C410.56 32.41 409.262 31.918 408.223 30.934C407.212 29.9227 406.706 28.638 406.706 27.08C406.706 25.522 407.212 24.2647 408.223 23.308C409.262 22.324 410.56 21.832 412.118 21.832C413.676 21.832 414.961 22.324 415.972 23.308C417.011 24.2647 417.53 25.522 417.53 27.08C417.53 28.638 417.011 29.9227 415.972 30.934C414.961 31.918 413.676 32.41 412.118 32.41Z" fill="white"/>
<path d="M424.57 32.41C423.012 32.41 421.714 31.918 420.675 30.934C419.664 29.9227 419.158 28.638 419.158 27.08C419.158 25.522 419.664 24.2647 420.675 23.308C421.714 22.324 423.012 21.832 424.57 21.832C426.128 21.832 427.413 22.324 428.424 23.308C429.463 24.2647 429.982 25.522 429.982 27.08C429.982 28.638 429.463 29.9227 428.424 30.934C427.413 31.918 426.128 32.41 424.57 32.41Z" fill="white"/>
</g>
<defs>
<filter id="filter0_ii_4_3" x="0.193481" y="-2.98578" width="429.789" height="39.4138" filterUnits="userSpaceOnUse" color-interpolation-filters="sRGB">
<feFlood flood-opacity="0" result="BackgroundImageFix"/>
<feBlend mode="normal" in="SourceGraphic" in2="BackgroundImageFix" result="shape"/>
<feColorMatrix in="SourceAlpha" type="matrix" values="0 0 0 0 0 0 0 0 0 0 0 0 0 0 0 0 0 0 127 0" result="hardAlpha"/>
<feOffset dy="-1"/>
<feGaussianBlur stdDeviation="0.5"/>
<feComposite in2="hardAlpha" operator="arithmetic" k2="-1" k3="1"/>
<feColorMatrix type="matrix" values="0 0 0 0 0.8125 0 0 0 0 0.423448 0 0 0 0 0.0643229 0 0 0 0.45 0"/>
<feBlend mode="normal" in2="shape" result="effect1_innerShadow_4_3"/>
<feColorMatrix in="SourceAlpha" type="matrix" values="0 0 0 0 0 0 0 0 0 0 0 0 0 0 0 0 0 0 127 0" result="hardAlpha"/>
<feOffset dy="-3.53879"/>
<feGaussianBlur stdDeviation="2.35919"/>
<feComposite in2="hardAlpha" operator="arithmetic" k2="-1" k3="1"/>
<feColorMatrix type="matrix" values="0 0 0 0 1 0 0 0 0 1 0 0 0 0 1 0 0 0 0.25 0"/>
<feBlend mode="normal" in2="effect1_innerShadow_4_3" result="effect2_innerShadow_4_3"/>
</filter>
</defs>
</svg>
