<?xml version="1.0" encoding="UTF-8"?> <svg xmlns="http://www.w3.org/2000/svg" width="68" height="19" viewBox="0 0 68 19" fill="none"> <g filter="url(#filter0_ii_4_35)"> <path d="M20.0173 10.8571C20.6077 10.8571 21.0863 11.3357 21.0863 11.9261V16C21.0863 17.6569 19.7431 19 18.0863 19H16.5082C15.6562 19 14.9654 18.3092 14.9654 17.4571C14.9654 16.605 14.2746 15.9143 13.4225 15.9143H7.66372C6.81162 15.9143 6.12086 16.605 6.12086 17.4571C6.12086 18.3092 5.4301 19 4.57801 19H3C1.34315 19 0 17.6569 0 16V11.3257C0 11.0669 0.209791 10.8571 0.468582 10.8571C1.40575 10.8571 2.05982 10.4286 2.43079 9.57143C2.80175 8.69524 3.01652 7.4381 3.07509 5.8L3.1727 3.17426C3.23265 1.56189 4.55715 0.285714 6.17063 0.285714H15.9483C17.6052 0.285714 18.9483 1.62886 18.9483 3.28571V9.78818C18.9483 10.3786 19.4269 10.8571 20.0173 10.8571ZM9.02025 6.28572C8.9812 7.48571 8.89332 8.4381 8.75665 9.14286C8.62938 9.88787 9.15365 10.8571 9.90946 10.8571H10.9604C11.7328 10.8571 12.3589 10.231 12.3589 9.45864V6.99389C12.3589 6.06627 11.6069 5.31429 10.6793 5.31429H10.0214C9.47997 5.31429 9.03655 5.74454 9.02025 6.28572Z" fill="white"></path> <path d="M31.2807 16.2C29.504 16.2 27.903 15.8571 26.4777 15.1714C25.0719 14.4667 23.9688 13.5048 23.1683 12.2857C22.3678 11.0476 21.9676 9.64762 21.9676 8.08572C21.9676 6.52381 22.3678 5.13333 23.1683 3.91429C23.9688 2.67619 25.0719 1.71429 26.4777 1.02857C27.903 0.342857 29.504 0 31.2807 0C33.0769 0 34.6779 0.342857 36.0837 1.02857C37.509 1.71429 38.6121 2.67619 39.3931 3.91429C40.1936 5.13333 40.5938 6.52381 40.5938 8.08572C40.5938 9.64762 40.1936 11.0476 39.3931 12.2857C38.6121 13.5048 37.509 14.4667 36.0837 15.1714C34.6779 15.8571 33.0769 16.2 31.2807 16.2ZM31.2807 11.1714C32.0421 11.1714 32.6669 10.9048 33.155 10.3714C33.6431 9.81905 33.8872 9.05714 33.8872 8.08572C33.8872 7.11429 33.6431 6.36191 33.155 5.82857C32.6669 5.29524 32.0421 5.02857 31.2807 5.02857C30.5193 5.02857 29.8945 5.29524 29.4064 5.82857C28.9183 6.36191 28.6742 7.11429 28.6742 8.08572C28.6742 9.05714 28.9183 9.81905 29.4064 10.3714C29.8945 10.9048 30.5193 11.1714 31.2807 11.1714Z" fill="white"></path> <path d="M45.5409 16.2C44.428 16.2 43.5006 15.8571 42.7587 15.1714C42.0363 14.4667 41.6751 13.5714 41.6751 12.4857C41.6751 11.4 42.0363 10.5238 42.7587 9.85714C43.5006 9.17143 44.428 8.82857 45.5409 8.82857C46.6538 8.82857 47.5715 9.17143 48.2939 9.85714C49.0358 10.5238 49.4067 11.4 49.4067 12.4857C49.4067 13.5714 49.0358 14.4667 48.2939 15.1714C47.5715 15.8571 46.6538 16.2 45.5409 16.2Z" fill="white"></path> <path d="M54.4355 16.2C53.3227 16.2 52.3952 15.8571 51.6533 15.1714C50.9309 14.4667 50.5697 13.5714 50.5697 12.4857C50.5697 11.4 50.9309 10.5238 51.6533 9.85714C52.3952 9.17143 53.3227 8.82857 54.4355 8.82857C55.5484 8.82857 56.4661 9.17143 57.1885 9.85714C57.9304 10.5238 58.3014 11.4 58.3014 12.4857C58.3014 13.5714 57.9304 14.4667 57.1885 15.1714C56.4661 15.8571 55.5484 16.2 54.4355 16.2Z" fill="white"></path> <path d="M63.3302 16.2C62.2173 16.2 61.2899 15.8571 60.5479 15.1714C59.8255 14.4667 59.4644 13.5714 59.4644 12.4857C59.4644 11.4 59.8255 10.5238 60.5479 9.85714C61.2899 9.17143 62.2173 8.82857 63.3302 8.82857C64.4431 8.82857 65.3607 9.17143 66.0831 9.85714C66.825 10.5238 67.196 11.4 67.196 12.4857C67.196 13.5714 66.825 14.4667 66.0831 15.1714C65.3607 15.8571 64.4431 16.2 63.3302 16.2Z" fill="white"></path> </g> <defs> <filter id="filter0_ii_4_35" x="0" y="-3.53879" width="67.196" height="22.5388" filterUnits="userSpaceOnUse" color-interpolation-filters="sRGB"> <feFlood flood-opacity="0" result="BackgroundImageFix"></feFlood> <feBlend mode="normal" in="SourceGraphic" in2="BackgroundImageFix" result="shape"></feBlend> <feColorMatrix in="SourceAlpha" type="matrix" values="0 0 0 0 0 0 0 0 0 0 0 0 0 0 0 0 0 0 127 0" result="hardAlpha"></feColorMatrix> <feOffset dy="-1"></feOffset> <feGaussianBlur stdDeviation="0.5"></feGaussianBlur> <feComposite in2="hardAlpha" operator="arithmetic" k2="-1" k3="1"></feComposite> <feColorMatrix type="matrix" values="0 0 0 0 0.8125 0 0 0 0 0.423448 0 0 0 0 0.0643229 0 0 0 0.45 0"></feColorMatrix> <feBlend mode="normal" in2="shape" result="effect1_innerShadow_4_35"></feBlend> <feColorMatrix in="SourceAlpha" type="matrix" values="0 0 0 0 0 0 0 0 0 0 0 0 0 0 0 0 0 0 127 0" result="hardAlpha"></feColorMatrix> <feOffset dy="-3.53879"></feOffset> <feGaussianBlur stdDeviation="2.35919"></feGaussianBlur> <feComposite in2="hardAlpha" operator="arithmetic" k2="-1" k3="1"></feComposite> <feColorMatrix type="matrix" values="0 0 0 0 1 0 0 0 0 1 0 0 0 0 1 0 0 0 0.25 0"></feColorMatrix> <feBlend mode="normal" in2="effect1_innerShadow_4_35" result="effect2_innerShadow_4_35"></feBlend> </filter> </defs> </svg> 